<svg xmlns="http://www.w3.org/2000/svg" width="33.6" height="33.624" viewBox="0 0 33.6 33.624"><defs><style>.cls-1{fill:#cc1c26;fill-rule:evenodd}</style></defs><path id="fa-file-text-o" class="cls-1" d="M1050.01 715.5a.7.7 0 0 0-.2-.5l-6.98-6.98a.784.784 0 0 0-.52-.219.688.688 0 0 0-.7.7v4.2h-7.7a.714.714 0 0 0-.7.7v4.2a.714.714 0 0 0 .7.7h7.7v4.2a.722.722 0 0 0 .7.7.73.73 0 0 0 .5-.2l7-7a.7.7 0 0 0 .2-.501zm3.5 0a11.9 11.9 0 1 1-11.9-11.9 11.916 11.916 0 0 1 11.9 11.9zm4.9 0a16.805 16.805 0 1 0-16.8 16.8 16.8 16.8 0 0 0 16.8-16.8z" transform="translate(-1024.81 -698.688)"/></svg>