<svg id="Layer_1" xmlns="http://www.w3.org/2000/svg" viewBox="0 0 144 49.1"><style>.st0{fill:#2573ba}.st1{fill:url(#SVGID_1_)}.st2{fill:#7a8235}.st3{fill:url(#SVGID_2_)}.st4{fill:#d67429}.st5{fill:url(#SVGID_3_)}.st6{fill:url(#SVGID_4_)}.st7{fill:url(#SVGID_5_)}</style><path class="st0" d="M32.7 41.9V15.1h10.4c1.8 0 3.2.2 4.4.5 1.2.4 2.2 1.1 3 2.3.9 1.2 1.3 2.5 1.3 4.1 0 1.5-.4 2.8-1.3 3.9s-2.1 1.8-3.6 2.1c1.9.3 3.3 1.1 4.3 2.3 1 1.2 1.5 2.6 1.5 4.3 0 2.1-.7 3.8-2 5.2-1.4 1.4-3.4 2.1-6.3 2.1H32.7zm4.5-15.5h5.9c1.2 0 2.2-.4 2.9-1.1.7-.7 1.1-1.6 1.1-2.7 0-1.2-.4-2.1-1.2-2.7-.9-.6-1.8-.9-2.9-.9h-5.8v7.4zm0 11.5h6.2c1.3 0 2.4-.3 3.1-1 .8-.7 1.1-1.6 1.1-2.8 0-1.1-.4-2-1.2-2.8s-1.8-1.1-3.1-1.1H37v7.7zM59.7 19.8h-4.5v-4.7h4.5v4.7zm0 22.1h-4.5V22.1h4.5v19.8zM71.2 42.4c-2.9 0-5.2-1.1-6.7-3.2s-2.3-4.5-2.3-7.2c0-2.9.9-5.4 2.6-7.3 1.7-2 4-2.9 6.8-2.9 2.7 0 4.8.9 6.5 2.8 1.7 1.9 2.6 4.4 2.6 7.4 0 3.1-.9 5.6-2.7 7.5-1.8 1.9-4.1 2.9-6.8 2.9m.2-3.7c3 0 4.5-2.2 4.5-6.7 0-2-.4-3.6-1.1-4.8-.7-1.2-1.8-1.8-3.3-1.8-1.5 0-2.7.6-3.4 1.8C67.4 28.4 67 30 67 32c0 2.2.4 3.8 1.2 4.9.7 1.2 1.8 1.8 3.2 1.8M114.9 35.6l4 .5c-.5 1.8-1.5 3.3-3.1 4.4-1.5 1.2-3.4 1.7-5.7 1.7-2.7 0-5-.9-6.6-2.8-1.7-1.8-2.5-4.3-2.5-7.5 0-3 .8-5.5 2.5-7.4 1.7-2 4-2.9 6.9-2.9 2.8 0 5 1 6.6 2.9 1.5 1.9 2.3 4.4 2.3 7.5v.5h-13.6c0 1.3.1 2.4.4 3.2.3.8.8 1.5 1.5 2.1.8.6 1.7.9 2.8.9 2.3.1 3.7-.9 4.5-3.1m-.3-5.9c0-1.4-.4-2.6-1.3-3.5a4.1 4.1 0 0 0-3.1-1.4c-1.2 0-2.3.4-3.1 1.3-.8.8-1.3 2-1.5 3.6h9zM138.2 41.9h-4.5V29.6c0-1.3-.3-2.3-.9-3-.6-.7-1.3-1-2.2-1-1.2 0-2.2.5-3.1 1.5-.9 1-1.3 2.6-1.3 4.6v10.2h-4.5V22.1h4.1v4.6c1.4-3.3 3.4-5 6-5 1.7 0 3.2.5 4.5 1.7 1.2 1.1 1.9 3 1.9 5.8v12.7z"/><path class="st0" d="M99.4 38.7c-1.1-1-2.7-1.6-4.8-1.6h-5.9c-.9 0-1.6-.2-2-.6-.4-.4-.7-.9-.7-1.3 0-.9.5-1.5 1.4-2 1.4.3 2.6.5 3.7.5 2.4 0 4.4-.6 5.9-1.7 1.5-1.2 2.2-2.6 2.2-4.4 0-1.2-.4-2.3-1.3-3.3l2.9-.3-.6-3.8-5.4 1.8c-1.3-.3-2.6-.4-3.8-.4-2.8 0-4.8.6-6.2 1.8-1.4 1.2-2 2.6-2 4.2 0 2 .9 3.5 2.8 4.6-2.1 1-3.2 2.4-3.2 4.1 0 1.1.6 2.2 1.9 3.3-1.9.9-2.9 2.3-2.9 4 0 3.6 3.2 5.4 9.6 5.4 3.4 0 6-.6 7.7-1.9 1.7-1.2 2.6-2.8 2.6-4.7-.1-1.4-.7-2.7-1.9-3.7zM88.3 25.4c.6-.6 1.6-.9 2.8-.9 1.2 0 2.1.3 2.7.9.6.6.9 1.3.9 2.2 0 2.3-1.2 3.5-3.7 3.5-1.1 0-2-.3-2.7-.9-.6-.6-1-1.4-1-2.4 0-.9.3-1.7 1-2.4zM91.8 46c-2.4 0-4.1-.3-5.1-1-1.1-.7-1.6-1.5-1.6-2.4 0-.6.3-1.1 1-1.7 1.2.3 2.3.5 3.2.5H94c.8 0 1.5.2 2.1.5.6.3.9.8.9 1.5 0 1.8-1.7 2.6-5.2 2.6z"/><linearGradient id="SVGID_1_" gradientUnits="userSpaceOnUse" x1="22.001" y1="26.427" x2="11.53" y2="17.641"><stop offset="0" stop-color="#c4ca80"/><stop offset=".505" stop-color="#dbe08c"/></linearGradient><path class="st1" d="M17.7 17.7c-.3.3-.6.5-.6.5-4 2.9-9.1 4.4-9.1 4.4l-.8.2c2.3 2.3 5.4 3.7 8.9 3.7 3 0 5.8-1.1 8-2.9.2-.2.4-.4.7-.6.1-.1.2-.2.4-.3.2-.2.3-.4.5-.5.1-.2.3-.3.4-.5.1-.1.1-.2.2-.3-2.3.6-5.5-1-8.6-3.7z"/><path class="st2" d="M4 17.3c.3.9.6 1.8 1 2.6-.4-.9-.8-1.7-1-2.6zM7.2 22.8c-.2-.2-.4-.4-.5-.6.1.2.3.4.5.6zM5.7 20.9c-.2-.3-.4-.6-.5-.9.1.3.3.6.5.9zM6.4 21.9c-.2-.2-.4-.5-.5-.7.1.2.3.4.5.7z"/><linearGradient id="SVGID_2_" gradientUnits="userSpaceOnUse" x1="28.943" y1="18.107" x2="20.831" y2="11.3"><stop offset="0" stop-color="#9fbc6e"/><stop offset=".403" stop-color="#afce79"/></linearGradient><path class="st3" d="M28.7 12.3c0-.1 0-.3-.1-.4-.1-.4-.1-.7-.2-1 0-.2-.1-.3-.1-.5-.1-.4-.3-.8-.4-1.2 0-.1-.1-.2-.1-.3-.2-.4-.4-.9-.6-1.3 0 0 0-.1-.1-.1-1.1 2.1-4 4-7.6 5.3.2.7.2 1.6 0 2.4-.3 1-1.1 1.9-1.7 2.4 3.1 2.7 6.3 4.4 8.6 3.6.1-.1.1-.2.2-.3.1-.1.1-.2.2-.3.1-.2.3-.4.4-.6.1-.1.2-.3.2-.4l.3-.6c.1-.2.2-.4.2-.5.1-.2.1-.3.2-.5s.1-.4.2-.6c.1-.3.2-.6.2-.9 0-.1 0-.2.1-.3.1-.3.1-.6.1-.9V15c0-.4.1-.8.1-1.1 0-.6-.1-1.1-.1-1.6z"/><path class="st4" d="M12 1.9c.2-.1.4-.1.6-.2-.2 0-.4.1-.6.2zM7.3 4.7z"/><linearGradient id="SVGID_3_" gradientUnits="userSpaceOnUse" x1="24.585" y1="10.814" x2="13.075" y2="1.156"><stop offset="0" stop-color="#9ec381"/><stop offset=".161" stop-color="#84b16b"/><stop offset=".321" stop-color="#71a45a"/><stop offset=".432" stop-color="#6a9f54"/></linearGradient><path class="st5" d="M26.7 6.8c0-.1-.1-.1-.1-.2-.2-.3-.4-.6-.6-.8v-.1c-2.3-2.8-5.8-4.6-9.7-4.6-1.2 0-2.4.2-3.5.5.5.8 1.1 1.4 1.1 1.4s3.5 4 5.2 8.7v.1c.1.2.2.6.3 1.2C23 11.6 26 9.8 27 7.7c0-.4-.2-.6-.3-.9z"/><path class="st4" d="M7.8 4.3c.1-.1.2-.2.4-.3-.2.1-.3.2-.4.3zM9.9 2.8c.2-.1.3-.2.5-.3-.1.1-.3.2-.5.3zM9 3.4c.1-.1.3-.2.4-.3-.1.1-.3.2-.4.3z"/><radialGradient id="SVGID_4_" cx="11.552" cy="12.211" r="9.398" gradientUnits="userSpaceOnUse"><stop offset=".157" stop-color="#3a5c7b"/><stop offset=".835" stop-color="#5b89b4"/></radialGradient><path class="st6" d="M19.5 12.9c-.1-.5-.3-1-.3-1.2v-.1C17.4 7 13.9 3 13.9 3s-.5-.6-1.2-1.3h-.1c-.2.1-.4.1-.6.2-.2.1-.3.1-.5.2s-.4.1-.5.2c-.2.1-.3.2-.5.2-.2.1-.3.2-.5.3l-.6.3c-.1.1-.3.2-.4.3-.3.2-.6.4-.8.6-.2.1-.3.2-.4.3-.2.2-.3.3-.5.4C5 7 3.5 10.2 3.5 13.8c0 1.2.2 2.4.5 3.5.3.9.6 1.8 1 2.6l.1.1c.2.3.4.6.5.9.1.1.1.2.2.3.2.2.3.5.5.7l.3.3c.2.2.4.4.5.6l.9-.3s5.1-1.4 9.1-4.4c0 0 .2-.2.6-.5.6-.5 1.4-1.4 1.7-2.4.3-.7.2-1.6.1-2.3z"/><radialGradient id="SVGID_5_" cx="-319.101" cy="362.501" r=".628" gradientTransform="matrix(2.5803 -22.7552 -13.4813 -1.4521 5714.502 -6724.429)" gradientUnits="userSpaceOnUse"><stop offset="0" stop-color="#e6f1f7"/><stop offset=".09" stop-color="#d1e3f0"/><stop offset=".279" stop-color="#abc8e3"/><stop offset=".467" stop-color="#8db4d8"/><stop offset=".652" stop-color="#78a5d1"/><stop offset=".832" stop-color="#6b9ccc"/><stop offset="1" stop-color="#6799cb"/></radialGradient><path class="st7" d="M8 1.6S2.2 4.2.5 10c-1.7 5.8 1.7 11.1 1.7 11.1s5.1-1.4 9.1-4.4c0 0 1.8-1.3 2.3-2.8.5-1.6-.4-3.6-.4-3.6C11.5 5.6 8 1.6 8 1.6z"/><g><path class="st0" d="M142.1 39.1c.8 0 1.4.6 1.4 1.5 0 .8-.7 1.4-1.4 1.4-.8 0-1.5-.7-1.5-1.4.1-.9.7-1.5 1.5-1.5zm0 2.6c.7 0 1.2-.5 1.2-1.2s-.5-1.2-1.2-1.2c-.6 0-1.2.5-1.2 1.2s.6 1.2 1.2 1.2zm-.3-.4h-.3v-1.6h.7c.1 0 .6 0 .6.5 0 .3-.2.4-.3.4l.3.7h-.3l-.3-.6h-.4v.6zm0-.9h.3c.1 0 .3 0 .3-.2 0-.1-.1-.2-.3-.2h-.4v.4z"/></g></svg>