<svg xmlns="http://www.w3.org/2000/svg" width="43.812" height="32.843" viewBox="0 0 43.812 32.843"><defs><style>.cls-1{fill:#cc1c26;fill-rule:evenodd}</style></defs><path id="fa-code" class="cls-1" d="M560.177 524.4a.766.766 0 0 0 0-1.1l-9.408-9.409 9.408-9.409a.766.766 0 0 0 0-1.1l-1.2-1.2a.766.766 0 0 0-1.1 0l-11.154 11.158a.766.766 0 0 0 0 1.1l11.156 11.16a.766.766 0 0 0 1.1 0zm14.149-25.545a.775.775 0 0 0-.527-.957l-1.484-.407a.761.761 0 0 0-.934.526l-8.929 30.908a.775.775 0 0 0 .526.957l1.485.407a.76.76 0 0 0 .933-.526zm15.729 15.586a.767.767 0 0 0 0-1.1L578.9 502.184a.766.766 0 0 0-1.1 0l-1.2 1.2a.765.765 0 0 0 0 1.1l9.408 9.409-9.408 9.407a.765.765 0 0 0 0 1.1l1.2 1.2a.766.766 0 0 0 1.1 0z" transform="translate(-546.5 -497.469)"/></svg>