<svg xmlns="http://www.w3.org/2000/svg" width="48" height="48" viewBox="0 0 48 48"><title>cogs</title><path fill="#272727" d="M17.049 33.846l1.936-2.71-2.121-2.121-2.71 1.936a7.457 7.457 0 0 0-1.606-.665L12 27.001H9l-.547 3.285a7.436 7.436 0 0 0-1.606.665l-2.71-1.936-2.121 2.121 1.936 2.71a7.457 7.457 0 0 0-.665 1.606L.002 36v3l3.285.548c.16.565.384 1.104.665 1.606l-1.936 2.71 2.121 2.121 2.71-1.936a7.457 7.457 0 0 0 1.606.665l.548 3.285h3l.548-3.285a7.436 7.436 0 0 0 1.606-.665l2.71 1.936 2.121-2.121-1.936-2.71a7.457 7.457 0 0 0 .665-1.606L21 39.001v-3l-3.285-.548a7.436 7.436 0 0 0-.665-1.606zM10.5 40.5a3 3 0 1 1 0-6 3 3 0 0 1 0 6zM48 18v-3l-3.159-.574a13.65 13.65 0 0 0-.221-1.115l2.698-1.739L46.17 8.8l-3.138.678a13.978 13.978 0 0 0-.632-.944l1.828-2.641-2.121-2.121L39.466 5.6c-.305-.223-.62-.435-.944-.633l.678-3.138L36.428.681l-1.739 2.698a13.239 13.239 0 0 0-1.115-.221L33-.001h-3l-.574 3.159a13.65 13.65 0 0 0-1.115.221L26.572.681 23.8 1.829l.678 3.138c-.324.198-.638.409-.944.633l-2.641-1.828-2.121 2.121L20.6 8.534c-.223.305-.435.62-.633.944L16.829 8.8l-1.148 2.772 2.698 1.739c-.089.366-.163.738-.221 1.115L14.999 15v3l3.159.574c.058.377.133.749.221 1.115l-2.698 1.739 1.148 2.772 3.138-.678c.198.324.409.638.633.944l-1.828 2.641 2.121 2.121 2.641-1.828c.305.223.62.435.944.632L23.8 31.17l2.772 1.148 1.739-2.698c.366.089.738.163 1.115.221L30 33h3l.574-3.159a13.65 13.65 0 0 0 1.115-.221l1.739 2.698L39.2 31.17l-.678-3.138c.324-.198.638-.409.944-.632l2.641 1.828 2.121-2.121-1.828-2.641c.223-.305.435-.62.632-.944l3.138.678 1.148-2.772-2.698-1.739c.089-.366.163-.738.221-1.115L48 18zm-16.5 5.025a6.525 6.525 0 1 1 0-13.05 6.525 6.525 0 1 1 0 13.05z"/></svg>