<svg xmlns="http://www.w3.org/2000/svg" width="16" height="16" viewBox="0 0 16 16"><title>comment-o</title><path fill="#272727" d="M8 1.143c-3.714 0-6.857 2.089-6.857 4.571 0 1.33.893 2.598 2.438 3.473l.777.446-.241.857a6.462 6.462 0 0 1-.625 1.536 8.839 8.839 0 0 0 2.455-1.527l.384-.339.509.054c.384.045.777.071 1.161.071 3.714 0 6.857-2.089 6.857-4.571s-3.143-4.571-6.857-4.571zm8 4.571c0 3.161-3.58 5.714-8 5.714-.438 0-.875-.027-1.295-.071a9.799 9.799 0 0 1-4.107 2.161c-.321.089-.67.152-1.018.196h-.045c-.179 0-.339-.143-.384-.339v-.009c-.045-.223.107-.357.241-.518.563-.634 1.205-1.17 1.625-2.661C1.178 9.142-.001 7.526-.001 5.714c0-3.161 3.58-5.714 8-5.714s8 2.554 8 5.714z"/></svg>