<svg xmlns="http://www.w3.org/2000/svg" width="64" height="64" viewBox="0 0 64 64"><title>feed3</title><path fill="#272727" d="M53.334 0H10.668C4.801 0 0 4.801 0 10.668v42.664C0 59.203 4.801 64 10.668 64h42.666C59.201 64 64 59.203 64 53.332V10.668C64 4.801 59.201 0 53.334 0zm-35.9 51.953c-2.998 0-5.434-2.418-5.434-5.414 0-2.98 2.436-5.426 5.434-5.426 3.01 0 5.441 2.446 5.441 5.426 0 2.996-2.431 5.414-5.441 5.414zM31.092 52c0-5.113-1.988-9.926-5.591-13.528-3.607-3.609-8.398-5.602-13.494-5.602v-7.824c14.853 0 26.945 12.09 26.945 26.953h-7.86zm13.885 0c0-18.191-14.791-32.996-32.961-32.996v-7.828c22.5 0 40.809 18.32 40.809 40.825h-7.848z"/></svg>