<svg xmlns="http://www.w3.org/2000/svg" width="48" height="48" viewBox="0 0 48 48"><title>lamp7</title><path fill="#272727" d="M15 30c-.012 4.971 4.029 6 9 6s8.988-1.029 9-6 5.988-6.716 6-15S32.284 0 24 0C15.716 0 9.012 6.716 9 15s6.012 10.029 6 15z"/><path fill="#272727" d="M24 39c-3.702 0-6.778-.823-7.389-4.547-.073.503-.111 1.02-.111 1.547 0 4.971 3.358 6 7.5 6s7.5-1.029 7.5-6c0-.528-.038-1.045-.111-1.547C30.778 38.177 27.702 39 24 39z"/><path fill="#272727" d="M24 45c-2.962 0-5.422-.823-5.911-4.547A13.51 13.51 0 0 0 18 42c0 4.971 2.686 6 6 6s6-1.029 6-6c0-.528-.031-1.045-.089-1.547C29.422 44.177 26.962 45 24 45z"/></svg>