<svg id="Layer_1" data-name="Layer 1" xmlns="http://www.w3.org/2000/svg" viewBox="0 0 450.93 36.1"><defs><style>.cls-1{fill:none}.cls-2,.cls-5{fill:#fff}.cls-3{fill:#ce2027}.cls-4{clip-path:url(#clip-path)}.cls-5{fill-rule:evenodd}</style><clipPath id="clip-path" transform="translate(-134.54 -270.39)"><path class="cls-1" d="M339.68 298.29z"/></clipPath></defs><title>SG-LogoTrain-BlkBG</title><path class="cls-2" d="M71.13 1.08h.36V36.1h-.36z"/><path class="cls-3" d="M138.21 300a3.38 3.38 0 0 1-3.68-3.21 3.71 3.71 0 0 1 3.71-3.47 4.59 4.59 0 0 1 2.1.53 4.78 4.78 0 0 1 .19 1.38h-.17a2.2 2.2 0 0 0-2.35-1.61 2.54 2.54 0 0 0-2.58 2.81 3 3 0 0 0 2.86 3.26 2 2 0 0 0 2.11-1.61h.19a4.44 4.44 0 0 1-.21 1.37 3.49 3.49 0 0 1-2.17.53M147.84 299.84a12.79 12.79 0 0 0-1.5.06c-.07 0 0-.19 0-.19.45 0 .68 0 .68-.3a4.52 4.52 0 0 0-.37-1.24l-.29-.78h-2.24l-.34.78a3.84 3.84 0 0 0-.42 1.24c0 .22.19.27.62.3.05 0 .07.2 0 .19a6 6 0 0 0-.94-.06 5.34 5.34 0 0 0-1 .06c-.08 0 0-.19 0-.19.66 0 .91-.46 1.4-1.56l2.13-4.74a.11.11 0 0 1 .19 0l1.81 4.74c.46 1.19.64 1.51 1.46 1.57 0 0 .07.19 0 .18a8.66 8.66 0 0 0-1.12-.06m-3.61-2.72h2l-.91-2.51zM154.79 299.89h-1.71c-1 0-2 0-2.72.06-.09 0 0-.19 0-.19 1-.11 1-.07 1-1.55v-2.94c0-1.49 0-1.45-1-1.57 0 0-.09-.19 0-.17.72 0 1.68.07 2.67.07.73 0 1.39 0 2-.07a1.69 1.69 0 0 0-.07.57v.37c0 .08-.16 0-.17 0-.07-.43-.28-.56-1.57-.56h-.94a10.2 10.2 0 0 0 0 1.31v1.26h1c1.08 0 1-.08 1.06-.33a.24.24 0 0 1 .18 0 2.83 2.83 0 0 0-.06.61v.38c0 .07-.17 0-.18 0-.06-.31-.12-.42-1-.42h-1v1.43c0 1.27.16 1.39.61 1.39h.52c1.5 0 1.59-.13 1.73-.78h.18c0 .24-.13.71-.19.91a.22.22 0 0 1-.27.2M157 299.38a8.46 8.46 0 0 1 .06-1.29h.17a1.57 1.57 0 0 0 1.64 1.65 1.17 1.17 0 0 0 1.3-1.14c0-1.63-3-1.64-3-3.42a1.89 1.89 0 0 1 1.93-1.81 2.56 2.56 0 0 1 1.28.31 2 2 0 0 1 .15 1.08.19.19 0 0 1-.2 0 1.21 1.21 0 0 0-1.31-1.09 1.08 1.08 0 0 0-1.18 1c0 1.56 2.9 1.53 2.9 3.4a2 2 0 0 1-2 2 2.65 2.65 0 0 1-1.79-.66M167.49 299.84a12.63 12.63 0 0 0-1.5.06c-.08 0 0-.19 0-.19.45 0 .69 0 .69-.3a4.5 4.5 0 0 0-.38-1.24l-.3-.77h-2.24l-.35.78a3.84 3.84 0 0 0-.42 1.24c0 .22.19.27.63.3.05 0 .07.2 0 .19a6 6 0 0 0-.94-.06 5.35 5.35 0 0 0-1 .06c-.07 0 0-.19 0-.19.66 0 .91-.46 1.4-1.56l2.13-4.74a.11.11 0 0 1 .19 0l1.81 4.74c.45 1.19.64 1.51 1.45 1.57 0 0 .07.19 0 .18a8.72 8.72 0 0 0-1.13-.06m-3.6-2.72h2l-.93-2.51zM172.64 297a5.89 5.89 0 0 1-.78.05 2.46 2.46 0 0 1-.38 0v1.15c0 1.41 0 1.48.92 1.55 0 0 .07.2 0 .19a10 10 0 0 0-1.21-.06 12 12 0 0 0-1.44.06c-.08 0 0-.19 0-.19.88-.09.92-.08.92-1.55v-3c0-1.1 0-1.45-.58-1.45a2.59 2.59 0 0 0-.37 0s-.11-.15 0-.18a11.51 11.51 0 0 1 2.46-.16c1.43 0 2.61.44 2.61 1.53a2 2 0 0 1-1.37 1.77c.53 1.41 2.07 3.11 3.17 3.11 0 0 .07.18 0 .18a3.87 3.87 0 0 1-3.87-3.08m-1.09-3.22a8.09 8.09 0 0 0-.07 1.37v1.63h.37c1.47 0 2-.53 2-1.34a1.57 1.57 0 0 0-1.86-1.67h-.44M177.76 299.38a8.46 8.46 0 0 1 .06-1.29h.18a1.57 1.57 0 0 0 1.64 1.65 1.17 1.17 0 0 0 1.3-1.14c0-1.63-2.95-1.64-2.95-3.42a1.89 1.89 0 0 1 1.93-1.81 2.59 2.59 0 0 1 1.29.31 2.09 2.09 0 0 1 .15 1.08.18.18 0 0 1-.19 0 1.22 1.22 0 0 0-1.32-1.09 1.08 1.08 0 0 0-1.17 1c0 1.56 2.89 1.53 2.89 3.4a2 2 0 0 1-2 2 2.65 2.65 0 0 1-1.78-.66" transform="translate(-134.54 -270.39)"/><path class="cls-2" d="M.34 31.91h2.44v.51H.92v.85h1.64v.52H.92v.88H2.8v.52H.34v-3.28zM4 31.91h.53l1.76 2.27v-2.27h.57v3.28h-.49l-1.81-2.34v2.34H4v-3.28zM8.93 32.44H7.89v-.53h2.66v.53H9.51v2.75h-.58v-2.75zM11.68 31.91h2.43v.51h-1.86v.85h1.65v.52h-1.65v.88h1.88v.52h-2.45v-3.28z"/><path class="cls-2" d="M149.87 302.3h1.46a1.32 1.32 0 0 1 .95.33 1 1 0 0 1 .27.71 1 1 0 0 1-.78 1l.88 1.24H152l-.81-1.14h-.72v1.14h-.57v-3.28zm1.42 1.62a.58.58 0 0 0 .67-.55.57.57 0 0 0-.68-.54h-.84v1.1h.85z" transform="translate(-134.54 -270.39)"/><path class="cls-2" d="M19.95 32.44h-1.04v-.53h2.66v.53h-1.04v2.75h-.58v-2.75z"/><path class="cls-2" d="M157.78 302.28h.54l1.44 3.3h-.61l-.34-.79h-1.55l-.34.79h-.59zm.83 2L158 303l-.56 1.31h1.13z" transform="translate(-134.54 -270.39)"/><path class="cls-2" d="M26.15 31.91h.58v3.28h-.58zM28.12 31.91h.53l1.76 2.27v-2.27h.57v3.28h-.49l-1.81-2.34v2.34h-.56v-3.28zM32.34 31.91h.61l1 1.55 1-1.55h.61v3.28h-.58v-2.35l-1.03 1.54h-.02l-1.03-1.54v2.35h-.56v-3.28zM36.92 31.91h2.43v.51H37.5v.85h1.64v.52H37.5v.88h1.87v.52h-2.45v-3.28zM40.58 31.91h.53l1.76 2.27v-2.27h.57v3.28h-.49l-1.81-2.34v2.34h-.56v-3.28zM45.6 32.44h-1.04v-.53h2.66v.53h-1.04v2.75h-.58v-2.75z"/><path class="cls-2" d="M158.16 288.47c-2.58 0-4.09-.46-4-3.66 2.27.73 1.85 3 4 3.66M155.92 275.9c-1.77 1.6-3.53.09-5.19 1.67 1.3-2.23 2.44-3.31 5.19-1.67" transform="translate(-134.54 -270.39)"/><path class="cls-2" d="M150.79 276.84c.34-2.44-1.19-3.78 2.52-6.27 1.68 3.14-1.14 3.66-2.52 6.27M153.66 277.4c-.73 2.27-3 1.85-3.66 4 0-2.58.45-4.09 3.66-4" transform="translate(-134.54 -270.39)"/><path class="cls-2" d="M149.69 280.92c-.93-2.28-2.92-2.68-1-6.69 3 1.88.85 3.74 1 6.69M146.6 279.69c3.56.11 2.6 2.82 4.17 5.31-1.94-1.51-3.87-.86-4.17-5.31M147.48 285.49c3.14-1.69 3.66 1.14 6.27 2.52-2.44-.34-3.78 1.19-6.27-2.52" transform="translate(-134.54 -270.39)"/><path class="cls-2" d="M151.3 285.17c-1.28-2.24-1.65-3.77 1.15-5.33.5 2.33-1.68 3.11-1.15 5.33M152.62 282.55c1.6 1.77.09 3.53 1.67 5.19-2.23-1.3-3.31-2.44-1.67-5.19M151.14 290.06c1.88-3 3.74-.84 6.69-1-2.28.93-2.68 2.92-6.69 1M158.49 288.47c2.58 0 4.09-.46 4-3.66-2.27.73-1.85 3-4 3.66M160.73 275.9c1.76 1.6 3.53.09 5.19 1.67-1.3-2.23-2.44-3.31-5.19-1.67" transform="translate(-134.54 -270.39)"/><path class="cls-2" d="M165.86 276.84c-.34-2.44 1.19-3.78-2.52-6.27-1.69 3.14 1.14 3.66 2.52 6.27M163 277.4c.73 2.27 3 1.85 3.66 4 0-2.58-.45-4.09-3.66-4" transform="translate(-134.54 -270.39)"/><path class="cls-2" d="M167 280.92c.93-2.28 2.92-2.68 1-6.69-3 1.88-.85 3.75-1 6.69M170 279.69c-3.56.11-2.6 2.82-4.17 5.31 1.95-1.51 3.87-.86 4.17-5.31M169.17 285.49c-3.14-1.69-3.66 1.14-6.27 2.52 2.44-.34 3.78 1.19 6.27-2.52" transform="translate(-134.54 -270.39)"/><path class="cls-2" d="M165.35 285.17c1.28-2.24 1.65-3.77-1.15-5.33-.5 2.33 1.68 3.11 1.15 5.33M164 282.55c-1.6 1.77-.1 3.53-1.67 5.19 2.23-1.3 3.31-2.44 1.67-5.19M165.51 290.06c-1.88-3-3.75-.84-6.69-1 2.28.93 2.68 2.92 6.69 1M182.06 304.81a.78.78 0 0 1 1.56 0 .78.78 0 0 1-1.56 0m1.47 0a.69.69 0 1 0-1.37 0 .68.68 0 0 0 .68.69.68.68 0 0 0 .69-.69m-1-.44h.37a.35.35 0 0 1 .25.09.25.25 0 0 1 .07.18.26.26 0 0 1-.18.26l.2.3H183l-.18-.27h-.12v.27h-.18v-.83zm.37.4a.12.12 0 0 0 .14-.12.12.12 0 0 0-.15-.12h-.19v.24h.18zM580.37 301.67a.24.24 0 0 1-.1-.19.25.25 0 0 1 .25-.26.23.23 0 0 1 .16.06 2.08 2.08 0 0 0 1.44.54.88.88 0 0 0 1-.78c0-.42-.23-.67-1.19-.87s-1.53-.57-1.53-1.31a1.35 1.35 0 0 1 1.5-1.24 2.32 2.32 0 0 1 1.45.45.26.26 0 0 1 .11.21.25.25 0 0 1-.25.25.23.23 0 0 1-.15 0 1.91 1.91 0 0 0-1.18-.4.84.84 0 0 0-1 .74c0 .43.23.67 1.24.88s1.48.59 1.48 1.29a1.37 1.37 0 0 1-1.56 1.29 2.66 2.66 0 0 1-1.72-.61m-3.19.07a1.76 1.76 0 0 0 1.89-1.79 1.77 1.77 0 0 0-1.89-1.8h-1.07v3.61h1.07zm-1.58-3.82a.26.26 0 0 1 .25-.26h1.33a2.27 2.27 0 0 1 2.42 2.27 2.28 2.28 0 0 1-2.42 2.28h-1.33a.26.26 0 0 1-.25-.26v-4zm-2.79 2.03a1 1 0 0 0 1.17-.94 1 1 0 0 0-1.16-.9h-1.41V300h1.4zm-1.91-2.07a.26.26 0 0 1 .25-.26h1.71a1.8 1.8 0 0 1 1.3.45 1.27 1.27 0 0 1 .35.9 1.33 1.33 0 0 1-1.22 1.32l1.13 1.46a.29.29 0 0 1 .08.19.27.27 0 0 1-.26.25.3.3 0 0 1-.24-.14l-1.28-1.67h-1.31V302a.26.26 0 1 1-.51 0v-4.07zm-2 2.62l-1-2.33-1 2.33h2.1zm-3.22 1.33l1.85-4a.34.34 0 0 1 .33-.23.33.33 0 0 1 .32.23l1.85 4a.33.33 0 0 1 0 .13.25.25 0 0 1-.25.25.29.29 0 0 1-.26-.19L569 301h-2.5l-.48 1.06a.26.26 0 0 1-.25.18.24.24 0 0 1-.23-.24.3.3 0 0 1 0-.14M559 298a.44.44 0 0 1 0-.12.27.27 0 0 1 .27-.26.3.3 0 0 1 .27.22l1.26 3.62 1.19-3.63a.26.26 0 0 1 .25-.2.26.26 0 0 1 .25.2l1.19 3.63 1.26-3.63a.27.27 0 0 1 .25-.2.27.27 0 0 1 .26.26.48.48 0 0 1 0 .12L564 302a.29.29 0 0 1-.27.22.29.29 0 0 1-.27-.22l-1.19-3.5L561 302a.29.29 0 0 1-.27.22.28.28 0 0 1-.27-.22zm-4 4v-4a.26.26 0 0 1 .25-.26h2.83a.23.23 0 0 1 0 .47h-2.57v1.56h2.28a.23.23 0 1 1 0 .47h-2.28v1.59h2.61a.24.24 0 0 1 0 .47h-2.87a.26.26 0 0 1-.25-.3m-2.84-2a1 1 0 0 0 1.17-.94 1 1 0 0 0-1.16-.9h-1.41V300h1.4zm-1.91-2.07a.26.26 0 0 1 .25-.26h1.71a1.8 1.8 0 0 1 1.3.45 1.26 1.26 0 0 1 .35.9 1.33 1.33 0 0 1-1.22 1.32l1.13 1.46a.28.28 0 0 1 .09.19.27.27 0 0 1-.26.25.3.3 0 0 1-.24-.14l-1.28-1.67h-1.31V302a.26.26 0 1 1-.51 0v-4.07zM584.54 298.48a.46.46 0 1 1 .46.46.46.46 0 0 1-.46-.46m.86 0a.39.39 0 1 0-.39.39.39.39 0 0 0 .39-.39m-.17.25h-.09l-.14-.23h-.1v.23h-.07v-.51h.17a.14.14 0 0 1 .18.13.14.14 0 0 1-.16.14zm-.24-.3c.06 0 .17 0 .17-.07s-.07-.06-.12-.06h-.14v.13h.1zM574.77 291.92a.26.26 0 1 1 .52 0v3.85h2.36a.24.24 0 0 1 .24.24.23.23 0 0 1-.24.24H575a.26.26 0 0 1-.26-.26v-4.07zm-2 2.65l-1-2.33-1 2.33h2.1zm-3.22 1.33l1.85-4a.33.33 0 0 1 .32-.23.33.33 0 0 1 .32.23l1.85 4a.43.43 0 0 1 0 .13.25.25 0 0 1-.25.25.28.28 0 0 1-.26-.19l-.47-1h-2.5l-.41 1.01a.26.26 0 0 1-.25.18.23.23 0 0 1-.23-.23.3.3 0 0 1 0-.14m-1.89-3.74h-1.33a.24.24 0 0 1-.24-.23.25.25 0 0 1 .24-.24h3.16a.24.24 0 0 1 .24.24.24.24 0 0 1-.24.23h-1.32V296a.26.26 0 1 1-.52 0v-3.85zm-2.28 1.83a1.81 1.81 0 0 0-1.8-1.88 1.79 1.79 0 0 0-1.78 1.87 1.81 1.81 0 0 0 1.8 1.88 1.79 1.79 0 0 0 1.78-1.87m-4.11 0a2.31 2.31 0 0 1 2.33-2.35 2.28 2.28 0 0 1 2.32 2.34 2.32 2.32 0 1 1-4.65 0m-2.24-1.83h-1.32a.24.24 0 0 1-.24-.23.25.25 0 0 1 .24-.24h3.16a.24.24 0 0 1 .24.24.24.24 0 0 1-.24.23h-1.34V296a.26.26 0 1 1-.52 0v-3.85zM400.94 294.45a1.29 1.29 0 0 1-.74 1.18 1 1 0 0 1-.61.06 1 1 0 0 1 0-.93 1.74 1.74 0 0 1 1.23-.48zM398.76 295.76c-.73.75-1.32 1.61-2 2.41a1 1 0 0 0 .4.89.76.76 0 0 0 .54-.05 14.55 14.55 0 0 0 1.71-2.16V296a.42.42 0 0 0-.62-.28M403.29 295.91a.51.51 0 0 1-.19.45 6.29 6.29 0 0 0-2.22 1.37 2.72 2.72 0 0 0 1.31-.15 5.74 5.74 0 0 0 2.25-1.51c-.39-.11-.8 0-1.15-.17m2-.91a2.26 2.26 0 0 1 .44 1.83 6.48 6.48 0 0 1-3.11 1.82c-.78.17-1.69.59-2.53.17a2.41 2.41 0 0 1-.58-1.4 2.58 2.58 0 0 1 1.15-1.17c.63-.48 1.35-.74 2-1.15a.28.28 0 0 1 .2-.18l.31.59a4.29 4.29 0 0 1 1.93-.66z" transform="translate(-134.54 -270.39)"/><path class="cls-2" d="M394.4 296.86a23.05 23.05 0 0 0-6.58 2.13 1.67 1.67 0 0 1-1.15.2 2.84 2.84 0 0 0 .52 1.25.88.88 0 0 0 .47 0 34.32 34.32 0 0 1 6.5-2.36 1.78 1.78 0 0 1 .94 0v.14a11.8 11.8 0 0 1-3.11 2.14 1.75 1.75 0 0 0 .18 1c.22.68 1 .42 1.53.43a27.47 27.47 0 0 1 10.73-.6 4.21 4.21 0 0 1 2 .73c.17-.52.81-1.36.2-1.71a21.3 21.3 0 0 0-8.71-.55c-1.33.15-2.61.41-3.92.68a6.38 6.38 0 0 0 2.14-1.61 1.85 1.85 0 0 0 0-1.29 1.64 1.64 0 0 0-1.69-.58" transform="translate(-134.54 -270.39)"/><path class="cls-2" d="M390.93 299.4c-.71 1.13-1.61 2.1-2.4 3.21a.76.76 0 0 0 .27.79.85.85 0 0 0 1.07-.26l1.24-1.79a2.78 2.78 0 0 0 .54-1.63c-.1-.29-.46-.64-.74-.31M406.5 298.21c.1 0 .18 0 .18-.13s-.08-.08-.15-.08h-.15v.21h.12zm-.12.43h-.13v-.74h.29c.18 0 .26.05.26.2a.19.19 0 0 1-.2.2l.21.33h-.11l-.2-.31h-.12v.31zm.12.18a.55.55 0 1 0-.52-.54.52.52 0 0 0 .52.54m-.64-.54a.65.65 0 1 1 .64.63.63.63 0 0 1-.64-.63" transform="translate(-134.54 -270.39)"/><path class="cls-2" d="M290.86 3.92V2.69h1.47v1.3l.4-.07v-2.8h-.4v1.19h-1.47V1.12h-.39l.01 2.87.38-.07zM296.7 3.6h-1.47v-.9h1.17v-.39h-1.17V1.5h1.33v-.38h-1.71v2.86h1.65l.2-.38zM287.26 3.99l.39-.07V1.51h.93v-.39h-2.23v.39h.91v2.48z"/><path class="cls-2" d="M413.81 277.54c0-.87-.67-1.31-2-1.31h-.36v4.46h.55V279l1.56 1.69.43-.3-1.49-1.58a1.51 1.51 0 0 0 1.31-1.31m-.52 0c0 .56-.42.85-1.29.91v-1.67c.21 0 1.29 0 1.29.76M408.14 276.64a1.73 1.73 0 0 1 1.07.38l.12.09.37-.4-.14-.11a2.36 2.36 0 0 0-1.45-.49 2.29 2.29 0 0 0 0 4.59 2.36 2.36 0 0 0 1.42-.49l.14-.11-.34-.37-.11.08a1.81 1.81 0 0 1-1.1.37 1.77 1.77 0 0 1 0-3.55M417.51 276.12a2.29 2.29 0 1 0 2.3 2.29 2.3 2.3 0 0 0-2.3-2.29m1.77 2.29a1.77 1.77 0 1 1-1.77-1.77 1.78 1.78 0 0 1 1.77 1.77" transform="translate(-134.54 -270.39)"/><path class="cls-2" d="M298.71 8.31h2.11v-.53h-2.11V6.36h2.31v-.53h-2.85v4.53H301l.28-.53h-2.57V8.31zM303.8 5.83h-.53v4.54h2.74l.28-.54h-2.49v-4zM308.67 9.83l.01-4h-.54v4.54h2.74l.28-.54h-2.49zM294.76 9.28l-.53-1.27.89-2.19h-.57l-.59 1.52-.6-1.52h-.58l.91 2.2-.54 1.28-1.45-3.44-.02-.04h-.59l2 4.52.07.14.8-1.82.81 1.83 1.9-4.57.04-.1h-.58l-1.37 3.46zM289.81 5.72L289 7.55l-.81-1.84-1.9 4.58-.04.1h.58l1.37-3.46.53 1.27-.85 2.09-.04.1h.58l.58-1.52.6 1.52h.59l-.91-2.2.53-1.28 1.45 3.44.02.04h.6l-2.01-4.52-.06-.15z"/><path class="cls-2" d="M310.63 294.06a2.4 2.4 0 0 1 0 1.7 1.58 1.58 0 0 1-1 .62h-.11a.46.46 0 0 1-.1-.08.41.41 0 0 1-.09-.16c0-.94 1.1-1.33 1-2.27a.24.24 0 0 1 .25.2M314 297.8a1.68 1.68 0 0 1-.76 1.55.71.71 0 0 1-.8 0 .33.33 0 0 1-.11-.3.55.55 0 0 1 .27-.33 2.81 2.81 0 0 0 .51 0 .79.79 0 0 0 .34-.56 1.38 1.38 0 0 0-1.24.57c-.5.52-1.12 1.13-.82 1.88s1.13 1.39.87 2a7 7 0 0 1-1.39 1.54 5.63 5.63 0 0 1-.67.48 1.78 1.78 0 0 1-.95.24.73.73 0 0 1-.64-.41 2.7 2.7 0 0 1 .55-1.59.72.72 0 0 1 .43 0 .35.35 0 0 1 .21.21.8.8 0 0 0-.21.48.6.6 0 0 0 .07.63 2.52 2.52 0 0 0 1.46-1.31 2.38 2.38 0 0 0-.55-2 1.37 1.37 0 0 1 .09-1.38 6.07 6.07 0 0 1 1.2-1.24 4.18 4.18 0 0 1 1.55-.77.66.66 0 0 1 .6.4M307 298.74a.75.75 0 0 1 .37.48 15.29 15.29 0 0 1-.27 1.76.43.43 0 0 0 .23.27 1.11 1.11 0 0 1 .66.16.32.32 0 0 1-.15.27 1.35 1.35 0 0 1-1.25 0 2.4 2.4 0 0 1-.15-1l.11-1.16a.24.24 0 0 0-.23-.17c-.38-.2-.52.23-.74.43-.43.6-.71 1.67-1.05 2l-1.73 1.53a.55.55 0 0 1-.47 0 8.88 8.88 0 0 1-.3-1.2.07.07 0 0 0-.06.08 8.3 8.3 0 0 1-.58 1.59.08.08 0 0 1 0 .05 1.06 1.06 0 0 1-.55.48.57.57 0 0 1-.24.12.31.31 0 0 1-.31-.14 2.93 2.93 0 0 1-.27-1.65 4 4 0 0 1 1.12-3 2 2 0 0 1 .89-.51.84.84 0 0 1 .47.44.72.72 0 0 1-.52.49h-.08a.7.7 0 0 0-.67.34 4.06 4.06 0 0 0-.37 2.37.79.79 0 0 1 .2.3c.43-.63.21-1.52.78-2.07a1.32 1.32 0 0 1 .52-.22.3.3 0 0 1 .32.18 3.76 3.76 0 0 0 .21 1.18 8.16 8.16 0 0 0 2.71-3.4 1.44 1.44 0 0 1 1.07-.11zM309.84 299.37c0 .35-.41.53-.48.87a7.73 7.73 0 0 1-.44 1.71c-.33 0-.21-.36-.33-.54 0-.74.38-1.35.23-2.08a.52.52 0 0 1 .37-.38 1.08 1.08 0 0 1 .65.42" transform="translate(-134.54 -270.39)"/><path class="cls-2" d="M301.32 292.67a3.84 3.84 0 0 0-1.67.86l-.16.12a11.06 11.06 0 0 0-1.9 2.58 8 8 0 0 0-.72 2.07 15.24 15.24 0 0 0-.18 2.12 6 6 0 0 0 .06 1l.11.77a13.54 13.54 0 0 0 .72 2.84.69.69 0 0 1 .09.22.51.51 0 0 0 .51.49h.05l.09-.05a.91.91 0 0 0 .28-.28.4.4 0 0 0 .06-.22.51.51 0 0 0-.08-.26v-.09a6.35 6.35 0 0 0-.34-.94 9.27 9.27 0 0 1-.34-.91l-.13-.72a8.4 8.4 0 0 1-.19-1.38 3.36 3.36 0 0 1 0-.54 9.49 9.49 0 0 1 .64-3.54 11.92 11.92 0 0 1 1.36-2.19 4.09 4.09 0 0 1 1.55-1.17l.18-.06c.28-.06.41-.1.49 0a.68.68 0 0 1 .11.38 2.16 2.16 0 0 1-.17.74 15.89 15.89 0 0 1-1.07 2.13l-.14.21c0 .1-.12.2-.17.32s-.35.49-.35.49c-.28.41-.56.8-.82 1.2l-.2.32a8.26 8.26 0 0 1-.62.85l-.18.27a1.37 1.37 0 0 0-.4.81.33.33 0 0 0 .34.27h.06l.06-.07a2.8 2.8 0 0 0 1-.86 10.84 10.84 0 0 1 1.24-2.17c.25-.39.52-.8.74-1.21V297a18.69 18.69 0 0 0 1.2-2.5 2.14 2.14 0 0 0 0-1.47 1.14 1.14 0 0 0-1.08-.48M314.81 297.49a.46.46 0 1 1 .46.46.46.46 0 0 1-.46-.46m.86 0a.39.39 0 1 0-.39.39.39.39 0 0 0 .39-.39m-.17.25h-.09l-.15-.23h-.09v.23h-.07v-.51h.22a.14.14 0 0 1 .18.13.14.14 0 0 1-.16.14zm-.24-.3c.06 0 .17 0 .17-.07s-.07-.06-.12-.06h-.14v.13h.09zM321.89 275.78l1.31-.54a1.06 1.06 0 0 0-.18-.15 1.64 1.64 0 0 0-.52-.23zM321.81 276a.93.93 0 0 1 .26.82v3.93h1.56v-3.68a3.07 3.07 0 0 0-.28-1.64v-.06z" transform="translate(-134.54 -270.39)"/><path class="cls-2" d="M321.57 275.93a1 1 0 0 0-1 .26v4.6h-1.69v-8h1.69v2.17a5.08 5.08 0 0 1 1.69-.11zM306.42 274.76a1.27 1.27 0 0 1 1.45 1.25v4.78h-2.65a2 2 0 0 1-2.08-2.18c0-1.73 1.6-1.86 2.41-1.9s.76-.24.76-.45-.13-.38-.76-.38h-1.69v-1.12h2.57m-1.64 4.15a.78.78 0 0 0 .59.85c.13 0 .72.13.8-.34v-1.69c-1.56 0-1.39.55-1.39 1.18M317 274.76a1.27 1.27 0 0 1 1.45 1.25v4.78h-2.65a2 2 0 0 1-2.08-2.18c0-1.73 1.6-1.86 2.41-1.9s.76-.24.76-.45-.13-.38-.76-.38h-1.69v-1.12H317m-1.64 4.15a.78.78 0 0 0 .59.85c.13 0 .72.13.8-.34v-1.69c-1.56 0-1.39.55-1.39 1.18" transform="translate(-134.54 -270.39)"/><path class="cls-2" d="M166.5 2.36v2.01h-1.65V2.36h-1.69v8.04h1.69V5.71h1.65v4.69h1.69V2.36h-1.69z"/><path class="cls-2" d="M309.85 276.27c0-.21.13-.38.76-.38h.39v-1.13h-1.23a1.27 1.27 0 0 0-1.45 1.25v4.78h1.56v-4.53M312.93 276.27c0-.21.13-.38.76-.38h.31v-1.13h-1.23a1.27 1.27 0 0 0-1.45 1.25v4.78h1.56v-4.53M324.06 279a3.82 3.82 0 0 0 1.59.53c.46 0 .64-.21.62-.51s-.18-.44-.75-.63a1.84 1.84 0 0 1 .37-3.66 2.81 2.81 0 0 1 1.38.26l-.18 1.25A2.15 2.15 0 0 0 326 276a.48.48 0 0 0-.55.49c0 .28.21.41.83.62a1.8 1.8 0 0 1 1.42 1.7 1.84 1.84 0 0 1-2 2 3.31 3.31 0 0 1-1.67-.32V279z" transform="translate(-134.54 -270.39)"/><path class="cls-2" d="M324.36 275.24l-.08-.41 1-.4-1.15-.46-.24-1.26-.61.92-1.51-.61 1 1.39-1 1.45 1.56-.64.64.61a1.65 1.65 0 0 1 .38-.59M328.07 280.15a.46.46 0 1 1 .46.46.46.46 0 0 1-.46-.46m.86 0a.39.39 0 1 0-.39.39.39.39 0 0 0 .39-.39m-.17.25h-.09l-.15-.23h-.09v.23h-.07v-.5h.22a.14.14 0 0 1 .18.13.14.14 0 0 1-.16.14zm-.24-.3c.06 0 .17 0 .17-.07s-.07-.06-.12-.06h-.14v.13h.09zM228.66 299.18l.07-.23h2.19a4.54 4.54 0 0 1 2.17 1.35 17.29 17.29 0 0 1 1.63 2.1l.94-2.71s.21-.37-.35-.43a3.93 3.93 0 0 1-.62-.08l.09-.21h2.3l-.05.21a1.15 1.15 0 0 0-.67.21c-.15.2-1.39 4.15-1.39 4.15h-1.09a11.69 11.69 0 0 0-1.29-2.31 8 8 0 0 0-1.59-1.46l-.93 3a.3.3 0 0 0 .17.41c.09 0 .53.09.53.09v.25h-2.56l.09-.27a.94.94 0 0 0 .88-.39c.22-.52 1.35-3.36 1.35-3.36a1.59 1.59 0 0 0-1-.32h-.84M246.42 302.34a1.18 1.18 0 0 1-1 .87 3.86 3.86 0 0 1-1.2 0 .31.31 0 0 1-.3-.41l.39-1.56h1.37a.85.85 0 0 1 .76 1m-1.53-3.14h.9a.76.76 0 0 1 .92.91 1.37 1.37 0 0 1-1.18.85h-1.14zm1.4 1.9s1.53-.34 1.53-1.13c0-1-1.2-1-1.44-1h-3.28l-.09.23h.6a.24.24 0 0 1 .2.34s-.93 3-1 3.32a.47.47 0 0 1-.32.39l-.69.05-.09.21h2.77a7.11 7.11 0 0 0 1.51-.14c.48-.09 1.63-.53 1.63-1.24s-1.31-1.05-1.31-1.05M249.5 300.29a6.81 6.81 0 0 1 .38-1 .31.31 0 0 1 .32-.12h.58v-.21H248l-.05.19h.54c.33 0 .24.38.17.64a16.71 16.71 0 0 0-.69 2.57c0 .43.39 1.07 1.61 1.18a3.36 3.36 0 0 0 3.23-1.13 2 2 0 0 0 .19-.41l.79-2.56a.39.39 0 0 1 .43-.25h.54v-.21h-2.3l-.1.21h.51s.38 0 .3.28c-.25.79-.45 1.58-.72 2.35a1.78 1.78 0 0 1-1 1.13 3 3 0 0 1-1.61.2 1 1 0 0 1-1-.78 8 8 0 0 1 .51-2.08M257.2 298.94h2.15v.17a.63.63 0 0 0-.71.55l-.38 1.34h2l.24-1a2 2 0 0 0 .08-.51c0-.25-.2-.34-.58-.36v-.17h2v.17a.53.53 0 0 0-.57.46l-.68 2.87a1.82 1.82 0 0 0-.09.51c0 .3.27.35.56.36v.17h-2.17v-.17a.6.6 0 0 0 .71-.46l.35-1.49h-2a12.22 12.22 0 0 0-.34 1.6c0 .3.28.35.58.36v.17h-2v-.17a.54.54 0 0 0 .59-.46l.68-2.87a1.84 1.84 0 0 0 .09-.51c0-.3-.28-.35-.58-.36zM263.17 302.3a.93.93 0 0 0 1 1c1.19 0 1.92-1.77 1.92-3.21a.93.93 0 0 0-1-1.05c-1.19 0-1.92 1.77-1.92 3.21m3.76-1.68a3 3 0 0 1-2.87 3 1.63 1.63 0 0 1-1.78-1.79 3 3 0 0 1 2.87-3 1.63 1.63 0 0 1 1.78 1.79M267.77 303.33a.82.82 0 0 0 .81-.76l.84-3.35h-.47a1.32 1.32 0 0 0-1.39.91h-.2l.5-1.19h4.07l-.12 1.24h-.18a.83.83 0 0 0-1-1h-.39c-.47 2.13-.87 3.37-.87 3.74s.28.35.65.36v.17h-2.31zM276.24 300.11c-.06-.74-.25-.89-1.17-.89-.72 0-.8.07-.87.35l-.36 1.43c1.24 0 1.05-.15 1.26-.64h.22l-.43 1.64h-.18c0-.73.27-.78-.63-.78h-.31a13.22 13.22 0 0 0-.37 1.65c0 .23.11.31.68.31a1.78 1.78 0 0 0 1.88-.9h.22l-.36 1.18h-3.91v-.17a.53.53 0 0 0 .56-.46l.73-2.83a1.79 1.79 0 0 0 .08-.51c0-.3-.28-.35-.57-.36v-.18h3.89l-.19 1.17h-.21zM280.15 298.94v.17a.59.59 0 0 0-.72.55c-.52 2.21-.76 2.9-.76 3.24s.11.31.68.31a1.79 1.79 0 0 0 1.88-.9h.22l-.45 1.18h-3.92v-.17a.54.54 0 0 0 .57-.46l.69-2.87a2 2 0 0 0 .08-.51c0-.3-.28-.35-.55-.36v-.17h2.14z" transform="translate(-134.54 -270.39)"/><path class="cls-2" d="M239.09 304.19H239a.23.23 0 0 1-.06 0h-.39a.32.32 0 0 1-.12 0 1.72 1.72 0 0 0-.29-.11 2.09 2.09 0 0 1-.32-.14 4 4 0 0 1-.61-.38 1.43 1.43 0 0 1-.25-.25l-.14-.17c-.05-.06-.08-.14-.13-.21a1.36 1.36 0 0 1-.2-.33 1.47 1.47 0 0 1-.08-.38v-.34a2.47 2.47 0 0 1 0-.36v-.34-.33c0-.11.07-.18.09-.28s.08-.17.11-.27a2.14 2.14 0 0 1 .94-.87.54.54 0 0 0-.12.16l.11-.1a.52.52 0 0 0-.06.13l-.1.07-.05.07a2.42 2.42 0 0 0-.21.39 1.21 1.21 0 0 0-.07.14v.06-.09L237 300l-.07.18s-.05.15-.05.17a5.83 5.83 0 0 1 .61-1 .26.26 0 0 0 0-.11.21.21 0 0 1 .07-.05 3.63 3.63 0 0 1 .69-.52 2.8 2.8 0 0 1 1.24-.29 2.68 2.68 0 0 1 2.73 2.62 2.5 2.5 0 0 1-.2 1 .45.45 0 0 1 0 .11 1 1 0 0 0-.13.23c0 .07-.08.11-.07.14a.45.45 0 0 1-.08.14.19.19 0 0 1 0 .06v.06a.33.33 0 0 0-.1.09 1.87 1.87 0 0 1-.39.32l-.18.13a.33.33 0 0 1-.13.07l-.15.07a1.16 1.16 0 0 1-.26.11h-.23-.59a.06.06 0 0 0-.06 0h-.05.06-.36a.22.22 0 0 0 .14 0H239.66h-.52m-.24-.21h-.1m-.28 0zm.65 0zm-.14 0zm.53-5a2.23 2.23 0 0 0-1.54.61 2 2 0 0 0 0 2.95 2.25 2.25 0 0 0 3.08 0 2 2 0 0 0 0-2.95 2.22 2.22 0 0 0-1.54-.61m.06 5.15h.38-.15a.19.19 0 0 0-.06 0h-.05m.44-.09h.25l-.19.05h-.1m1.6-1zm.19-.2zm-.08 0zm.12 0l.06-.08v.05m-.07 0zm0 0zm.24-.46zm.12-.11v-.07a.09.09 0 0 1 0 .07m0-.11a.17.17 0 0 1 0-.06.18.18 0 0 0 0-.08.13.13 0 0 1 0-.06v.2" transform="translate(-134.54 -270.39)"/><path class="cls-2" d="M122.07 8.12v-.01l-1.78-1.77.91-.9-.95-.94-.9.9-.99.99 1.78 1.78-1.18 1.18.97.97 2.17-2.18-.03-.02zM139.95 8.11l-1.78-1.77.9-.9-.94-.94-.9.9-.99.99 1.77 1.78-1.17 1.18.97.97 2.17-2.18-.03-.03zM104.03 9.36l-1.94-1.95 1.94-1.94-.93-.93-2.88 2.88.93.93.01-.01 1.95 1.96.92-.94zM116.21 9.36l-1.43-1.42h1.34V6.89h-1.33l1.41-1.42-.93-.93-2.87 2.88.92.93.01-.01 1.95 1.96.93-.94z"/><path class="cls-2" d="M244.42 280.65l1.28-.51-1.87-4.84h-1.39l-1.88 4.84 1.32.51.34-.9h1.85zm-1.78-2l.49-1.29.5 1.29h-1zM261.88 280.65l1.28-.51-1.88-4.84h-1.39l-1.89 4.84 1.31.51.34-.9h1.85zm-1.78-2l.49-1.29.5 1.29h-1zM268.89 279.68l-1.12 1-1.32-1.39v.84l-1.39.55v-5.38h2.1l1.47 1.37v1.09l-.79.79zm-2.43-1.68l.81-.73-.81-.73V278zM273.88 280.3a.46.46 0 1 1 .46.46.46.46 0 0 1-.46-.46m.86 0a.39.39 0 1 0-.39.39.39.39 0 0 0 .39-.39m-.17.25h-.09l-.15-.23h-.09v.23h-.07V280h.22a.14.14 0 0 1 .18.13.14.14 0 0 1-.16.14zm-.24-.3c.06 0 .17 0 .17-.07s-.07-.06-.12-.06h-.14v.13h.09z" transform="translate(-134.54 -270.39)"/><path class="cls-2" d="M426.67 4.36h.76v6.07h-.76zM431.56 4.07l4.55 4.77V4.36h.75v6.31l-4.55-4.77v4.52h-.75V4.07z"/><path class="cls-2" d="M581 280.82l-.52-.48a3.14 3.14 0 1 1 1.35-2.67 3 3 0 0 1-.84 2.25l1 .9h-1zm-.57-1.4a2.43 2.43 0 1 0-4.2-1.54 2.44 2.44 0 0 0 2.51 2.36 2.47 2.47 0 0 0 1.21-.4l-1.31-1.18v-.86z" transform="translate(-134.54 -270.39)"/><path class="cls-2" d="M418.41 4.35h.75v5.38h3.42v.69h-4.17V4.35zM419.03.2h-.66V0h1.55v.2h-.67v1.77h-.22V.2zM421.18 0h.22v.87h1.13V0h.22v1.97h-.22v-.89h-1.13v.89h-.22V0zM424.15 0h1.43v.2h-1.2v.67h1.07v.21h-1.07v.69h1.21v.2h-1.44V0z"/><path class="cls-2" d="M581.9 275a.46.46 0 1 1 .46.46.46.46 0 0 1-.46-.46m.86 0a.39.39 0 1 0-.39.39.39.39 0 0 0 .39-.39m-.17.25h-.09l-.15-.23h-.09v.23h-.07v-.51h.22a.14.14 0 0 1 .18.13.14.14 0 0 1-.16.14zm-.24-.3c.06 0 .17 0 .17-.07s-.07-.06-.12-.06h-.13v.18h.09zM515 302.15h-1.9a2.49 2.49 0 0 0-.06-.63c-.19-1.3-.61-4.35-.93-6.54a5.75 5.75 0 0 0-.15-.58h1.74a4.62 4.62 0 0 0 0 .53c.27 2.2.7 5.79.7 5.79s.27-3.57.44-5.74a2.72 2.72 0 0 0 0-.59h1.83v.54c.26 2.12.7 5.68.7 5.68s.3-3.52.48-5.67a3.51 3.51 0 0 0 0-.55h1s-.08.37-.1.58l-.89 7.17h-1.82l-.62-5zM525.83 295.52v5.6a.39.39 0 0 0 .42.49c.31 0 .4-.13.4-.48v-5.62a.35.35 0 0 0-.42-.4.34.34 0 0 0-.4.41m-1.58-.12c0-.89.52-1 2-1s2 .14 2 1.05v5.72c0 .91-.2 1.17-2 1.17s-2-.23-2-1.11v-5.83zM523.41 301.29c0 .89-.55 1-2 1a13.51 13.51 0 0 1-1.93-.11v-2.86h1.42v1.77a.44.44 0 0 0 .51.48.4.4 0 0 0 .47-.46v-1.51c0-.55-.67-.71-1.14-.9-.74-.29-1.26-.31-1.26-1.39v-1.92c0-.89.57-1 2.07-1 .82 0 1.42.06 1.86.09v2.8H522v-1.79c0-.31-.13-.39-.47-.39s-.49.08-.49.41V297c0 .66.69.79 1.2 1s1.2.4 1.2 1v2.31z" transform="translate(-134.54 -270.39)"/><path class="cls-2" d="M384.23 33.06l.4.75.39-.75-.39-.75-.4.75z"/><path class="cls-2" d="M523.38 304.11a11.43 11.43 0 0 1-.62-1 .32.32 0 0 1 .32-.32.32.32 0 0 0 .59 0 .32.32 0 0 1 .32.32c0 .18-.43.59-.62 1M521.3 303.75a.35.35 0 0 0 .28.13.3.3 0 0 0 .32-.27c0-.15-.44-.49-.62-.82-.19.34-.62.68-.62.82a.3.3 0 0 0 .32.27.34.34 0 0 0 .27-.12.37.37 0 0 1-.42.32h-.1 1.09-.1a.36.36 0 0 1-.41-.33M525.55 303.66a.06.06 0 0 1 .06 0 .29.29 0 1 0 .26-.4h-.1a.06.06 0 0 1-.06 0 .07.07 0 0 1 0-.07.29.29 0 0 0 .06-.17.29.29 0 1 0-.52.17.08.08 0 0 1 0 .07.06.06 0 0 1-.07 0h-.1a.29.29 0 0 0 0 .57.28.28 0 0 0 .26-.18.06.06 0 0 1 .06 0 .36.36 0 0 1-.42.38h-.1H526h-.1a.36.36 0 0 1-.42-.38M530.74 295.15v3.5h.44a.57.57 0 0 0 .4-.65v-2.38a.44.44 0 0 0-.43-.47h-.41zm0 4.2v2a3.61 3.61 0 0 0 .16 1H529a4.07 4.07 0 0 0 .08-.88v-6.07a5.36 5.36 0 0 0-.13-1h2.89c1 0 1.33.27 1.33 1v2.81c0 .89-.33 1.14-.95 1.14h-1.52" transform="translate(-134.54 -270.39)"/><path class="cls-2" d="M377.42 32.86h6.02v.4h-6.02zM392.66 32.86h6.02v.4h-6.02z"/><path class="cls-2" d="M534.07 295a.46.46 0 1 1 .46.46.46.46 0 0 1-.46-.46m.86 0a.39.39 0 1 0-.39.39.39.39 0 0 0 .39-.39m-.17.25h-.09l-.15-.23h-.09v.23h-.07v-.51h.22a.14.14 0 0 1 .18.13.14.14 0 0 1-.16.14zm-.24-.3c.06 0 .17 0 .17-.07s-.07-.06-.12-.06h-.14v.13h.09zM349.14 278.06v-.13-1.33a.31.31 0 0 0-.27-.35 1.14 1.14 0 0 0-.24 0c-.07 0-.11 0-.11-.06s0-.06.13-.06h1.69c.08 0 .13 0 .13.06s0 .06-.11.06h-.18c-.17 0-.22.13-.23.35s0 .38 0 1.33v2.41a.3.3 0 0 0 .25.33 2.14 2.14 0 0 0 .32 0c.07 0 .11 0 .11.05s-.06.06-.13.06h-1.78c-.09 0-.13 0-.13-.06s0-.05.1-.05a.92.92 0 0 0 .23 0 .34.34 0 0 0 .18-.34V278.44h-2.41v.56a13.24 13.24 0 0 0 0 1.34.3.3 0 0 0 .24.33h.33c.07 0 .09 0 .09.05s0 .06-.12.06h-1.79c-.08 0-.12 0-.12-.06s0-.05.1-.05a.87.87 0 0 0 .22 0 .33.33 0 0 0 .19-.34V277.89v-1.33a.3.3 0 0 0-.26-.35 1.21 1.21 0 0 0-.24 0c-.07 0-.11 0-.11-.06s0-.06.14-.06h1.69c.09 0 .13 0 .13.06s0 .06-.11.06h-.19a.3.3 0 0 0-.23.35V278h2.4zM355.49 278.55a2 2 0 0 0-1.83-2.27c-.72 0-1.54.4-1.54 2a2.06 2.06 0 0 0 1.93 2.33c.43 0 1.44-.21 1.44-2m-4.23-.11a2.41 2.41 0 0 1 2.58-2.45 2.27 2.27 0 0 1 2.53 2.34 2.47 2.47 0 0 1-2.58 2.56 2.38 2.38 0 0 1-2.52-2.45M358.41 278.37c0 .07 0 .1.05.11a1.52 1.52 0 0 0 .47.07.62.62 0 0 0 .45-.1 1.11 1.11 0 0 0 .38-.93 1 1 0 0 0-1-1.15 1.19 1.19 0 0 0-.33 0 .07.07 0 0 0-.05.08v1.9zm-.74-.49v-1.33a.31.31 0 0 0-.27-.35 1.16 1.16 0 0 0-.24 0c-.06 0-.11 0-.11-.06s0-.06.14-.06h1.74a2 2 0 0 1 1.15.27 1.1 1.1 0 0 1 .42.86 1.76 1.76 0 0 1-.82 1.41c.56.7 1 1.25 1.36 1.64a1.26 1.26 0 0 0 .7.43h.17a.07.07 0 0 1 .08.05s0 .06-.12.06h-.59a1.32 1.32 0 0 1-.68-.12 3 3 0 0 1-.85-.92c-.26-.34-.55-.77-.62-.86a.14.14 0 0 0-.11 0h-.55V280.34a.3.3 0 0 0 .24.34 2.11 2.11 0 0 0 .32 0 .06.06 0 0 1 .07.05s0 .06-.13.06h-1.67c-.09 0-.13 0-.13-.06s0-.05.1-.05a.84.84 0 0 0 .22 0 .33.33 0 0 0 .18-.34V277.9zM362.25 280.72a.18.18 0 0 1-.12-.22v-.82c0-.1 0-.16.08-.16a.09.09 0 0 1 .07.11 1.13 1.13 0 0 0 0 .32.87.87 0 0 0 .9.63.76.76 0 0 0 .84-.71 1.18 1.18 0 0 0-.61-1l-.29-.23a1.85 1.85 0 0 1-.93-1.47 1.27 1.27 0 0 1 1.44-1.19 2.93 2.93 0 0 1 .83.11.08.08 0 0 1 .09.07v.75c0 .14 0 .19-.07.19s-.07 0-.07-.12a.71.71 0 0 0-.16-.4.78.78 0 0 0-.68-.32.66.66 0 0 0-.74.65 1.13 1.13 0 0 0 .66.9l.17.14a1.92 1.92 0 0 1 1 1.59 1.27 1.27 0 0 1-.59 1.09 1.81 1.81 0 0 1-1 .26 2.13 2.13 0 0 1-.91-.16M366.24 277.88v-1.33a.3.3 0 0 0-.26-.35 1.27 1.27 0 0 0-.25 0c-.07 0-.1 0-.1-.06s0-.06.14-.06h2.82v.82a.07.07 0 0 1-.06.07s-.06 0-.06-.08a.62.62 0 0 0 0-.23.41.41 0 0 0-.42-.23h-.89V278.07h1a.47.47 0 0 0 .29-.09.2.2 0 0 1 .11-.09v.88c0 .05 0 .12-.05.12a.06.06 0 0 1-.06-.06 1 1 0 0 0 0-.22.33.33 0 0 0-.35-.25h-.89a.06.06 0 0 0 0 .06v1.47c0 .44.12.53.75.53a1.49 1.49 0 0 0 .59-.08.54.54 0 0 0 .28-.46c0-.07 0-.1.07-.1s0 0 0 .11a4.39 4.39 0 0 1-.08.7c0 .16-.1.16-.34.16h-2.52c-.08 0-.13 0-.13-.06s0-.05.1-.05a.86.86 0 0 0 .23 0 .33.33 0 0 0 .18-.34V277.86zM369.84 280.72a.18.18 0 0 1-.12-.22v-.82c0-.1 0-.16.08-.16s.05.05.05.11a1.26 1.26 0 0 0 .06.32.87.87 0 0 0 .9.63.76.76 0 0 0 .83-.71 1.19 1.19 0 0 0-.62-1l-.28-.23a1.84 1.84 0 0 1-.93-1.47 1.27 1.27 0 0 1 1.49-1.17 2.88 2.88 0 0 1 .83.11.08.08 0 0 1 .09.07v.75c0 .14 0 .19-.08.19s-.06 0-.06-.12a.75.75 0 0 0-.16-.4.78.78 0 0 0-.68-.32.66.66 0 0 0-.75.65 1.14 1.14 0 0 0 .67.9l.17.14a1.91 1.91 0 0 1 1 1.59 1.27 1.27 0 0 1-.6 1.09 1.78 1.78 0 0 1-1 .26 2.14 2.14 0 0 1-.91-.16M377 278.06v-.13-1.33a.32.32 0 0 0-.27-.35 1.24 1.24 0 0 0-.25 0c-.07 0-.1 0-.1-.06s0-.06.13-.06h1.69c.09 0 .13 0 .13.06s0 .06-.11.06h-.18c-.17 0-.22.13-.22.35v3.74a.3.3 0 0 0 .24.33h.32c.07 0 .1 0 .1.05s0 .06-.12.06h-1.78c-.08 0-.13 0-.13-.06s0-.05.1-.05a1 1 0 0 0 .23 0 .33.33 0 0 0 .18-.34V278.44h-2.41v.56a12.55 12.55 0 0 0 0 1.34.29.29 0 0 0 .24.33h.32c.07 0 .1 0 .1.05s0 .06-.13.06h-1.78c-.09 0-.13 0-.13-.06s0-.05.1-.05a.94.94 0 0 0 .22 0 .34.34 0 0 0 .18-.34V277.89v-1.33a.3.3 0 0 0-.27-.35 1.1 1.1 0 0 0-.24 0c-.07 0-.1 0-.1-.06s0-.06.13-.06h1.69c.09 0 .13 0 .13.06s0 .06-.11.06h-.18a.3.3 0 0 0-.24.35V278H377zM383.38 278.55a2 2 0 0 0-1.83-2.27c-.72 0-1.54.4-1.54 2a2.06 2.06 0 0 0 1.92 2.33c.44 0 1.44-.21 1.44-2m-4.23-.11a2.41 2.41 0 0 1 2.58-2.45 2.27 2.27 0 0 1 2.52 2.34 2.47 2.47 0 0 1-2.59 2.56 2.38 2.38 0 0 1-2.52-2.45M385.58 277.88v-1.33a.31.31 0 0 0-.27-.35 1.2 1.2 0 0 0-.24 0c-.07 0-.1 0-.1-.06s0-.06.13-.06h2.83s0 .13-.06.41v.41a.07.07 0 0 1-.07.07v-.08a.76.76 0 0 0 0-.23.4.4 0 0 0-.42-.23h-.88V278.07h1a.45.45 0 0 0 .29-.09.21.21 0 0 1 .1-.09v.88c0 .05 0 .12-.05.12a.05.05 0 0 1-.06-.06 1 1 0 0 0 0-.22.33.33 0 0 0-.35-.25h-.88V280c0 .44.11.53.74.53a1.52 1.52 0 0 0 .6-.08.55.55 0 0 0 .28-.46c0-.07 0-.1.07-.1s.05 0 .05.11a5.38 5.38 0 0 1-.08.7c0 .16-.1.16-.34.16h-2.51c-.08 0-.12 0-.12-.06s0-.05.1-.05a.84.84 0 0 0 .23 0 .34.34 0 0 0 .18-.34V277.97zM388.62 280.47a.46.46 0 1 1 .46.46.46.46 0 0 1-.46-.46m.86 0a.39.39 0 1 0-.39.39.39.39 0 0 0 .39-.39m-.17.25h-.09l-.15-.23H389v.23h-.07v-.51h.22a.14.14 0 0 1 .18.13.14.14 0 0 1-.16.14zm-.24-.3c.06 0 .17 0 .17-.07s-.07-.06-.12-.06H389v.13h.09zM339.68 298.28zM339.68 298.28zM339.68 298.29z" transform="translate(-134.54 -270.39)"/><g class="cls-4"><path class="cls-2" d="M205.15 27.89v-.01.01z"/></g><path class="cls-2" d="M339.68 298.28zM339.68 298.28zM339.68 298.29z" transform="translate(-134.54 -270.39)"/><g class="cls-4"><path class="cls-2" d="M205.15 27.89v-.01.01z"/></g><path class="cls-2" d="M331.29 299.2a5 5 0 0 1 4.63-5.1h-.19a4.86 4.86 0 0 0-2.24 9.09 5 5 0 0 1-2.2-4" transform="translate(-134.54 -270.39)"/><path class="cls-2" d="M334.62 299.84a1.11 1.11 0 1 1 0-2.22 1.11 1.11 0 0 1 0 2.22m6-3a1.48 1.48 0 0 0-1.16-.42 1.61 1.61 0 0 0-1.26.67v-3h-1.33V298a2.07 2.07 0 0 0-1.93-1.51 2 2 0 0 0-1.43.64v-.56h-1.26v4.5a4.67 4.67 0 0 0 1.3 1.49v-2.18a1.94 1.94 0 0 0 1.38.59 2.08 2.08 0 0 0 1.95-1.55v1.48h1.32v-2.68a.75.75 0 0 1 1.5.06v2.61h1a4.36 4.36 0 0 0 .28-.71v-2.25a1.78 1.78 0 0 0-.36-1" transform="translate(-134.54 -270.39)"/><path class="cls-2" d="M336.35 303.49a4.71 4.71 0 0 1-4.12-2.42 4.66 4.66 0 0 1-.61-2.31 4.7 4.7 0 0 1 1.17-3.12 4.83 4.83 0 0 0 3.5 8.23 4.68 4.68 0 0 0 4.66-3.68 4.27 4.27 0 0 1-.28.71 4.85 4.85 0 0 1-4.32 2.6M348.28 296.09a.84.84 0 1 0 .76.83.79.79 0 0 0-.76-.83m.11 2.38a1.24 1.24 0 0 1-.86-.35v1.6h-.76v-4.25h.73v.31a1.24 1.24 0 0 1 .9-.38 1.54 1.54 0 0 1 0 3.07" transform="translate(-134.54 -270.39)"/><path class="cls-2" d="M215.79 23.76h.76v4.25h-.76z"/><path class="cls-2" d="M353.13 296.09a.84.84 0 1 0 .76.85.81.81 0 0 0-.76-.85m1.51 2.31h-.72v-.31a1.22 1.22 0 0 1-.9.38 1.54 1.54 0 0 1 0-3.07 1.22 1.22 0 0 1 .9.38v-.31h.72v2.94zM358.08 298.41h-.75v-1.72a.52.52 0 0 0-.55-.58.56.56 0 0 0-.58.58v1.72h-.75v-2.94h.72v.28a1 1 0 0 1 .76-.36 1.16 1.16 0 0 1 1.15 1.3v1.72zM360.82 296.61a.73.73 0 0 0-.73-.56.75.75 0 0 0-.73.56h1.46zm-1.47.62a.75.75 0 0 0 .74.59.68.68 0 0 0 .62-.35h.8a1.39 1.39 0 0 1-1.42 1 1.54 1.54 0 1 1 1.48-1.25h-2.23zM364.65 297.18a1.29 1.29 0 1 1-2.59 0v-2.47h.75v.75h1.81v.71h-1.81v1a.54.54 0 1 0 1.08 0v-.28h.75v.24zM344.77 303.55H344v-1.72a.51.51 0 0 0-.55-.56.55.55 0 0 0-.57.56v1.72h-.76v-4.25h.76v1.46a1.11 1.11 0 0 1 .68-.23 1.18 1.18 0 0 1 1.2 1.29v1.72zM347.46 302.09a.73.73 0 1 0-1.45 0 .73.73 0 1 0 1.45 0m.76 0a1.48 1.48 0 1 1-1.49-1.54 1.49 1.49 0 0 1 1.49 1.54" transform="translate(-134.54 -270.39)"/><path class="cls-2" d="M214.22 28.9h.76v4.25h-.76zM215.81 28.9h.75v4.25h-.75z"/><path class="cls-2" d="M354.37 303.67a1.24 1.24 0 0 1-1.31 1.32 1.26 1.26 0 0 1-1.28-1h.78a.45.45 0 0 0 .5.33.52.52 0 0 0 .55-.57v-.34a1 1 0 0 1-.68.24 1.18 1.18 0 0 1-1.2-1.29v-1.76h.76v1.73a.52.52 0 0 0 .55.57.55.55 0 0 0 .57-.57v-1.73h.76v3.07zM359.64 302.3a1.27 1.27 0 0 1-1.33 1.33 1.26 1.26 0 0 0-1.88 0 1.23 1.23 0 0 1-1.3-1.33v-1.7h.75v1.73a.52.52 0 0 0 .55.56.55.55 0 0 0 .58-.56v-1.73h.75v1.73a.52.52 0 0 0 .55.56.55.55 0 0 0 .57-.56v-1.73h.75v1.7zM362.34 302.09a.74.74 0 1 0-1.45 0 .73.73 0 1 0 1.45 0m.76 0a1.48 1.48 0 1 1-1.49-1.54 1.49 1.49 0 0 1 1.49 1.54" transform="translate(-134.54 -270.39)"/><path class="cls-2" d="M365.54 302.09a.74.74 0 1 0-1.45 0 .73.73 0 1 0 1.45 0m.76 0a1.48 1.48 0 1 1-1.49-1.54 1.5 1.5 0 0 1 1.49 1.54M368.61 301.33h-.44a.75.75 0 0 0-.77.76.77.77 0 0 0 .75.8.79.79 0 0 0 .76-.82v-2.77h.76v2.77a1.51 1.51 0 1 1-3 0 1.45 1.45 0 0 1 1.44-1.49h.53v.73zM370.48 299.92a.46.46 0 1 1 .46.46.46.46 0 0 1-.46-.46m.86 0a.39.39 0 1 0-.39.39.39.39 0 0 0 .39-.39m-.17.25h-.09l-.15-.23h-.09v.23h-.07v-.51h.23a.14.14 0 0 1 .18.13.14.14 0 0 1-.16.14zm-.24-.3c.06 0 .17 0 .17-.07s-.07-.06-.12-.06h-.14v.13h.09zM510.45 273.93a14.13 14.13 0 0 1 3.79-1.71c1.2-.34 2.62-.51 3.31.27s.78 2-.25 3.45c.06.35 0 .35-.26.4a20.54 20.54 0 0 1-4.73 4.75 1 1 0 0 1-.61.11c-.22 0-.51-.16-.22-.39a19.64 19.64 0 0 0 3.7-4c.14-.21.07-.27-.08-.24a15.54 15.54 0 0 1-1.81.16.81.81 0 0 1-.71-.27c-.18-.22-.29-.34 0-.41s2.64-.51 3-.58a.73.73 0 0 0 .7-.48 1.49 1.49 0 0 0 .14-1.44 1.66 1.66 0 0 0-1.73-.31 17.1 17.1 0 0 0-3.32 1.23.68.68 0 0 1-.77-.09c-.43-.2-.49-.24-.19-.45M520.31 278.45c0-.21-.13-.39-.31-.26a4.65 4.65 0 0 0-1 1.23c-.1.19 0 .28.15.17a8 8 0 0 0 1.16-1.14m12.69 1.13a.82.82 0 0 0-.17.46c0 .17.15.23.29.08a.58.58 0 0 0 .15-.44c0-.14-.12-.26-.27-.1m-13.17-5.9c.29-.23.57-.25.73.13a.94.94 0 0 1 0 .69 1.15 1.15 0 0 1-.27.65c-.19.29-2.66 2.95-3 3.49a6.29 6.29 0 0 0-.68 1.19c-.06.17-.06.38.27.17a8.1 8.1 0 0 0 1-.91 5.67 5.67 0 0 1 1.28-1.33 1.39 1.39 0 0 1 1.72-.22.73.73 0 0 1-.29 1c.25.43.22.68 0 .79-.1.21 0 .27.13.12a7.15 7.15 0 0 0 1.15-1.09c.14-.16.41-.27.53.13.07.2 0 .36.27.18s.3-.46.59-.25a.75.75 0 0 1 .13.43c0 .07 0 .16.17 0s.32-.22.43-.26.24-.2.41.09.14.33 0 .46a1.36 1.36 0 0 0-.33.36c-.08.11-.17.35.08.21a12.41 12.41 0 0 0 1.75-1.54c.13-.17.28-.17.41 0a.46.46 0 0 1 0 .59 3.29 3.29 0 0 0-.47.61c-.09.16-.09.24.15.12a16.1 16.1 0 0 0 1.3-1c.25-.23.37-.24.48-.08a1.12 1.12 0 0 1 .14.41c0 .25.1.14.21.07l.44-.32c.19-.12.31-.12.41 0s.15.3 0 .44a1.74 1.74 0 0 0-.38.45c-.08.15-.1.34.09.2s.53-.39.67-.49a2.93 2.93 0 0 1 1-1c.58-.34 1.21-.55 1.51-.14a.69.69 0 0 1-.06.73c-.12.13-.36.43-.66-.2a1.94 1.94 0 0 0-.83.74c-.12.17-.12.32.17.23a2.39 2.39 0 0 0 .73-.43c.2-.18.38-.07.41.11s0 .49 0 .49a1.67 1.67 0 0 1 .55-.26c.15-.14.41-.42.78-.73a1 1 0 0 1 .9-.19.32.32 0 0 1 .13.43c.72-.08 2.55-.17 3-.17a.77.77 0 0 1 .79.37c.22.31.23.62-.31.52a10.08 10.08 0 0 0-3.54.05 2.53 2.53 0 0 1-.9 1.2.74.74 0 0 1-1.17-.76c0-.19-.15 0-.25 0a12.09 12.09 0 0 0-2.36 3c-.11.31-.18.29-.29.13a1.69 1.69 0 0 1-.33-.57.86.86 0 0 1 .17-.74c.18-.28 1-1.4 1.19-1.55s0-.24-.1-.2a.56.56 0 0 1-.71-.54 5.05 5.05 0 0 1-.89.64.48.48 0 0 1-.74-.37c-.06-.21-.06-.26-.28 0-.05.08-.39.35-.54.51s-.12.14-.27 0a1.05 1.05 0 0 1-.22-.56 1.72 1.72 0 0 1-.72.44c-.33.08-.59 0-.69-.58-.3.22-.78.61-1 .75a.44.44 0 0 1-.7-.43l-.08-.1a1.57 1.57 0 0 0-.56.56c-.1.12-.27.33-.5 0a.85.85 0 0 1-.13-.51 1.19 1.19 0 0 0-.52.57c-.14.23-.42.08-.48-.45a.21.21 0 0 1-.15 0 4.85 4.85 0 0 1-.65.54c-.25.15-.65 0-.69-.59a4 4 0 0 1-.7.43.65.65 0 0 1-.92-.36 9 9 0 0 1-1.1.92c-.21.15-1.22-.06-1-1.56a7.5 7.5 0 0 1 1.32-2.39 21 21 0 0 1 2.91-3.52" transform="translate(-134.54 -270.39)"/><path class="cls-2" d="M526.8 276.56a1.06 1.06 0 0 0-.46.68c0 .32.14.32.32.43a.41.41 0 0 0 .5 0 .73.73 0 0 0 .35-.66.6.6 0 0 0-.36-.5.64.64 0 0 0-.34.07M534.4 281.17a.46.46 0 1 1 .46.46.46.46 0 0 1-.46-.46m.86 0a.39.39 0 1 0-.39.39.39.39 0 0 0 .39-.39m-.17.25H535l-.15-.23h-.09v.23h-.07v-.51h.22a.14.14 0 0 1 .18.13.14.14 0 0 1-.16.14zm-.24-.3c.06 0 .17 0 .17-.07s-.02-.05-.12-.05h-.14v.13h.09zM479.92 294.25V296a.12.12 0 0 0 .05.11.07.07 0 0 1 0 .06v.06h-.43v-.07a.07.07 0 0 1 0-.06.12.12 0 0 0 .05-.11v-1.74h-.06a.11.11 0 0 0-.1.05.67.67 0 0 0-.06.23h-.05v-.4H480.27v.42h-.05v-.09a.46.46 0 0 0-.05-.16.11.11 0 0 0-.09 0h-.06zM481.65 295.75a.56.56 0 0 1-.13.39.42.42 0 0 1-.33.14.44.44 0 0 1-.34-.14.51.51 0 0 1-.13-.36v-1.43a.12.12 0 0 0-.05-.11.07.07 0 0 1 0-.06v-.06h.43v.06a.07.07 0 0 1 0 .06.12.12 0 0 0-.05.11v1.45c0 .19.07.29.19.29s.21-.11.21-.34v-1.4a.12.12 0 0 0-.05-.11.07.07 0 0 1 0-.06v-.06h.31v.06a.07.07 0 0 1 0 .06.12.12 0 0 0-.05.11v1.4zM482.93 295.26v-.91a.12.12 0 0 0-.05-.11.07.07 0 0 1 0-.06v-.06h.31v.06a.07.07 0 0 1 0 .06.12.12 0 0 0-.05.11v1.87H483a.06.06 0 0 1-.06 0l-.58-1.52v1.3a.12.12 0 0 0 .05.11.07.07 0 0 1 0 .06v.06h-.31v-.07a.07.07 0 0 1 0-.06.12.12 0 0 0 .05-.11v-1.65a.12.12 0 0 0-.05-.11.07.07 0 0 1 0-.06v-.06h.34zM484 296a.12.12 0 0 0 .05.11.07.07 0 0 1 0 .06v.06h-.43v-.07a.07.07 0 0 1 0-.06.12.12 0 0 0 .05-.11v-1.65a.12.12 0 0 0-.05-.11.07.07 0 0 1 0-.06v-.06h.43v.06a.07.07 0 0 1 0 .06.12.12 0 0 0-.05.11V296zM485.51 295.72a.72.72 0 0 1-.13.41.35.35 0 0 1-.29.15.47.47 0 0 1-.42-.28 1.72 1.72 0 0 1-.16-.82 1.81 1.81 0 0 1 .15-.83.4.4 0 0 1 .61-.22h.08v.46h-.1a.39.39 0 0 1 0-.08.34.34 0 0 0-.22-.32.14.14 0 0 0-.13.08 1 1 0 0 0-.07.32 4.58 4.58 0 0 0 0 .47 3.67 3.67 0 0 0 .06.76.25.25 0 0 0 .21.24q.18 0 .23-.39zM486.28 294.36v-.15l.24-.11.38 1.89a.22.22 0 0 0 0 .07h.06v.06h-.46v-.06a.06.06 0 0 1 0-.05.09.09 0 0 0 .05-.08l-.06-.29h-.36l-.06.28a.13.13 0 0 0 .06.09.09.09 0 0 1 0 .06v.06h-.23v-.07a.18.18 0 0 0 .1-.06zm.1.45l-.15.71h.29zM478 294.94a.23.23 0 0 1 .22-.17.23.23 0 0 1 .23.23.49.49 0 1 1-.9 0 .23.23 0 0 1 .23-.23.24.24 0 0 1 .23.17M476.18 294.63a1.19 1.19 0 0 0-.45.68.23.23 0 0 0 .44.08.68.68 0 0 1-.17.46h.38a.78.78 0 0 1-.18-.46.23.23 0 0 0 .44-.07 1.19 1.19 0 0 0-.45-.68M488.86 294.94a.27.27 0 0 0 0-.11.31.31 0 0 0-.62 0 .28.28 0 0 0 0 .11.3.3 0 1 0 0 .6.32.32 0 0 0 .23-.1.64.64 0 0 1-.17.43h.38a.74.74 0 0 1-.18-.43.32.32 0 0 0 .24.11.3.3 0 0 0 0-.59" transform="translate(-134.54 -270.39)"/><path class="cls-5" d="M355.49 24.78l.36-.62.36.62-.36.61-.36-.61z"/><path class="cls-2" d="M472.32 301.35a1 1 0 0 1-.08.39.61.61 0 0 1-.24.31l-.15.07a.76.76 0 0 1-.5-.21 1.12 1.12 0 0 1-.09-.57v-.48a2 2 0 0 0 0-.41.67.67 0 0 0-.2-.35.23.23 0 0 0-.16-.12 1.18 1.18 0 0 0-.41 0h-.1a.68.68 0 0 1 0 .1.81.81 0 0 0 0 .1 1.6 1.6 0 0 1 0 .23v.3q0 .58.33.58h.19a.6.6 0 0 0 0 .21v.36a.18.18 0 0 0 0 .12h-1a.14.14 0 0 1-.13 0h-.27V301.52a.14.14 0 0 1 0-.14v-.1a1.68 1.68 0 0 0 .32-.1.32.32 0 0 0 .13-.3v-1.79-.05a3.91 3.91 0 0 0 0-.56.28.28 0 0 0-.16-.16h-.23a.07.07 0 0 1-.05 0v-.69l.12-.09h1.4a.81.81 0 0 1 .86.71 3 3 0 0 1 .05.76.88.88 0 0 1-.54.83l.21.18a1.45 1.45 0 0 1 .18.23 1.39 1.39 0 0 1 .09.29 2.26 2.26 0 0 0 .08.67h.07a.24.24 0 0 0 .24-.29v-.16-.14h.15a.5.5 0 0 1 0 .2V301.28zM469.45 301.69zM469.45 301.88zm.05-.49h.05zm0 .26zm0-3.53zm0 3.34zm0 .18zm0 .27zm0-3.71zm0-.27zm0-.15zm0 3.58zm.05.06zm0-.06zm.1-3.16zm.06 0zm0 3.6zm0-.08zm.16-3.49zm0 3.28zm.17-.57zm0-1.33zm1-.62a.11.11 0 0 1 0-.1v-.06a.86.86 0 0 0-.11-.17l-.14-.17-.15-.07H470.2l-.06.06a1 1 0 0 0 0 .23.8.8 0 0 1 0 .25.18.18 0 0 0 0 .1v.23a1.13 1.13 0 0 0 0 .16 1.24 1.24 0 0 1 0 .17h.51a.45.45 0 0 1 .16 0l.23-.29v-.05zm-.92-.65zm.34 0zm0 3.17zm0-1.68zm.08-1.78zm.2-.07zm.14 2.34zm.43-1.26zm.2 2.28zm.3-.46zm0-.19zM474.74 298.86v.14a1.74 1.74 0 0 0 0 .29.13.13 0 0 0 0 .13v.71a2.39 2.39 0 0 1 0 .5v.28a1.25 1.25 0 0 0 0 .18v.23l-.07.11v.05a.44.44 0 0 1 0 .1h-.27v.05H474h-.05a.1.1 0 0 1-.08 0h-.1a.11.11 0 0 1-.08 0 .07.07 0 0 0-.09 0l-.08-.07v-.06l-.16-.25a.31.31 0 0 1-.09-.14.35.35 0 0 0 0-.14v-.07a.27.27 0 0 1 0-.21h.05a.17.17 0 0 0 0-.08v-.34a.17.17 0 0 1 0-.13.29.29 0 0 1 0-.22.24.24 0 0 1 0-.09.12.12 0 0 0 0-.09v-.09h-.06a.44.44 0 0 0 0-.11v-.13a4.19 4.19 0 0 1 0-.44v-.07a1.22 1.22 0 0 1 .31-.69.92.92 0 0 1 .69-.28.83.83 0 0 1 .65.32 1.34 1.34 0 0 1 .29.68 1.27 1.27 0 0 1 0 .23.09.09 0 0 1 0 .05m-2 .81zm0 1.37zm0-1.34zm0 1zm0-1.05zm0 .43zm0 .83zm0-.17zm0 .53zm0-.62zm0 .43zm0-1.35zm0 .36zm0 .85zm0 .37zm0-1.28zm0 .33h.06zm0 .66zm0-1.61zm0 .26zm0 1zm0 .14zm0-.19zm0-1.45zm0 1.72zm0-.37zm-.2.13v.05zm-.06-.9zm0 .26zm0 .68zm0-1.28zM472.94 301.25zm0-1.42zm0 .67zm0 1.19zm0-2.09zm0 1.27zm0-.8zm0 0h-.05zm0 .72zm0 .13zm0 .11a.11.11 0 0 0 0-.06zm0 .12zm0-1.87zm0 .4zm0 1zm0-1.09zm0-.39zm0 .12zm0 .35zm0-.23zm0-.07zm0 .27h-.05.09m0 .19zm0 .26zm0 0zm0 .09zm0 .48zM472.98 300.95zm0-1.56zm0 .82zm0 .55zM473.03 299.37h.08m-.06 1.68zm0-1.48zm0 .65zm0 .64zm0 .14zm0-1.46zm0 .55zm0 .54h-.06zm-.06-.6zm0 1.63zm0-2.23zm-.07.44zm0 .89zm.06-1.19h-.06.05zm-.08 1.31zM472.9 300.8zm0-1zm0 1.22zm0-1zm0-.43zm0 .74zm0 1.53zm0-2zm0 .5zm0 .49zm.06-1zm-.06.4zm0-.55zm0 .47zm0 .34zm0 .19a.07.07 0 0 0 0 .05zm0 0a.09.09 0 0 1 0 .06v-.06m0-.35zm1.11-.4a.11.11 0 0 1 0-.09V299.71v-.2q0-.31-.06-.61a.4.4 0 0 0-.38-.39.25.25 0 0 0-.15 0 1.26 1.26 0 0 0-.15.19.73.73 0 0 0-.09.31v.08a.1.1 0 0 0-.08 0v.05h.05a.09.09 0 0 1 .08 0l.07.06v.05h-.05l-.07.06h.06v.06h-.05V299.49h.18-.07.06a.5.5 0 0 0 .14.14.31.31 0 0 0 .17.08h.08a1.17 1.17 0 0 0 .23-.16l.12-.23a.07.07 0 0 0 0-.06.64.64 0 0 0 0-.21.41.41 0 0 1 0-.1.14.14 0 0 0 0-.13v-.32 1.5zm-1.11.95zm0-.7zm0-.71zm0 .51zm0 .12zm0 .21zm0-.61zm0 .53zm0 .6zm0-.62zm0-.69zm0 1.32zm0 .87zm0-1.88zm0 .57zm0 .09zM472.9 299.62zm0 .05zm0 0zm0 .41zm0-.76zm0 .07zm0 1.55zm0 1zm0-2.65zm0 1.93zm0-1.21zm0 .5zm0 .29zm0 1.16h.05m0-2.02zm0 .73zm0 .84zm0-2.23zm0 2.54zm0-.66zM472.95 302.01zm.15 0h-.05a.07.07 0 0 0 .05 0zm-.05-.1zm0-4zm0 3.21zm0 .95zm0-.21zm0 .06zm0-.73zm0 .16zm.05-3.3zm0 4zm.29-.32a.06.06 0 0 0 0-.06h-.06a.09.09 0 0 1-.08 0 .12.12 0 0 1 0 .07h.09zm-.24.24h-.06zm0-.5zm0 .32zm0 .08zm.14-.26v-.06h.1zm-.15.33zm0-.13zm0 .1zm0-.42zm0-.23zm0 .75zm0-.41zm0-.27zm0 .73zm0-.42zM473.14 301.72zm0 .36zm0-.38zm0 .27zm0-.55zm0-.07zm0 .53zm0 .18zm0-.28zm0 .11zm0 .06zm.06-.63zm0-3.07zm0 3.28zm0 .09zm0 .45zm.07 0zm0-.61zm0 .56zm0 .11zm.05-.1zm0-.05zm0 .13zm.07-.05zm0 0zm0-.07zm0-.1zm0-.56zm0 .7zm0-.14zm0 0zm0-1.19zm0 1.19zm0-2.32zm0 1.12zm0-.5zm0 .28zm0 0zm0 0zm0-1.18zm0 .67zm0 .26a.09.09 0 0 1 0 .05zm0 1.53zm0 0zm0-1.57v-.06zm0-.15v.07a.63.63 0 0 0 0-.12m.08-.54zm-.05.38v.05a.25.25 0 0 1 0 .06.36.36 0 0 0 0-.12zm.18-.6h-.06a.1.1 0 0 0 0-.07v.06a.07.07 0 0 0 0 .05h-.06a.06.06 0 0 0-.05 0 .15.15 0 0 0 .12 0zm-.15.13zM473.45 299.45zm0 .3v.25a.19.19 0 0 1 0-.08m0 1.74zm0-.46zm0-.49zm0-2.13zm.06 1.09l-.05.16a1.26 1.26 0 0 0 .05-.16zm.9 1.33zm0 .82zm0-3.86zm0 3.8zm0-2.22v.05zm0 2.12zm0-.89zm0-1.27zm0 0zm0 1.87zm0-1.23zm0 .94zm0 .4zm0-.45zm0-.19zM474.41 299.06zm0 1.12zm0 1zm0-1.3zM478.06 302.11s-.07.06-.21.06a.72.72 0 0 1-.45-.07h-.63v-.1c0-.25-.05-.39-.05-.4a.26.26 0 0 1 .29-.28.15.15 0 0 0 .18-.14 2.33 2.33 0 0 0 0-.23.93.93 0 0 1 0-.24v-.07a.74.74 0 0 0-.28-.06h-.29a.25.25 0 0 0-.19.05l-.1.11a.73.73 0 0 0-.07.21 1.09 1.09 0 0 0 0 .24.15.15 0 0 0 .16.15h.25a.89.89 0 0 1 0 .19v.47a.12.12 0 0 1 0 .13h.06a.07.07 0 0 1-.09.08h-1.1a.09.09 0 0 1-.06-.06v-.09h.18v-.35a1 1 0 0 0 .4-.09.82.82 0 0 0 .12-.29 2.73 2.73 0 0 1 .09-.32.88.88 0 0 1 .07-.24.42.42 0 0 1 .1-.19.14.14 0 0 1 0-.07l.11-.45.21-.76.1-.36a.73.73 0 0 1 0-.21.94.94 0 0 0 0-.2l.09-.05-.06-.09.13-.35h.18a1.23 1.23 0 0 1 .08.27 2.29 2.29 0 0 1 .06.27 1.1 1.1 0 0 0 .06.29 1.12 1.12 0 0 1 .06.28 2 2 0 0 0 .06.32 1.64 1.64 0 0 1 .05.34v.46a.68.68 0 0 1 0 .09.17.17 0 0 0 0 .05v.6a.77.77 0 0 0 0 .09v.12a3.19 3.19 0 0 0 .12.36 1.09 1.09 0 0 0 .42.14 3.25 3.25 0 0 0 0 .37v.38m-2.89-.12zm0 0zm0 0zm0-.14zm0 0zm0-.18zm0 .24zm0-.12zm0-.4zm0 .42zM475.46 302.2zm1.31-1.75a2.23 2.23 0 0 1 0-.31.05.05 0 0 1 0-.05.08.08 0 0 1 0-.08v-.06a.17.17 0 0 0 0-.1.56.56 0 0 1-.05-.14.23.23 0 0 1 0-.07.15.15 0 0 0 0 .07.25.25 0 0 1-.07.12.74.74 0 0 0 0 .11.39.39 0 0 1 0 .13.14.14 0 0 1 0 .06.07.07 0 0 0 0 .06.2.2 0 0 1 0 .13.65.65 0 0 0 0 .13H477.23m-.54-1.19zm0-.43zm.3 3.19zm.08-2.7zm.1 3.15zm0-4.31zm.22 4.31zm0-3zm0 .41zm0 .45zm0-.43zm0 .83zm0-.82zm0 .1zm.05 1.92zm0-1.57zm.12.53zm.38.83zm.2.56zM481 301v.05a1.62 1.62 0 0 1-.1.57.71.71 0 0 1-.36.43v-.15.17l-.13.05H479h-.44a1.37 1.37 0 0 0 0-.45.14.14 0 0 1 0-.14v-.1l.26-.07a.33.33 0 0 0 .17-.2v-.07h.11v-.06h-.06a.35.35 0 0 1 0-.09v-.08a1.11 1.11 0 0 1 0-.18v-.08h.09l.05.08v-.07a.28.28 0 0 1 0-.09v-.06a.19.19 0 0 1-.09 0h-.08.09l.06.06v-.05V300.64h.07v-.07a.74.74 0 0 0 0-.19v.07-.07h-.11.09a.21.21 0 0 0-.15 0h.09-.06a.07.07 0 0 0 .05 0v-.07.13H479v-.52-.5h.06v.05l-.12-.07.09.05-.07-.09a.55.55 0 0 1 0-.21 1.15 1.15 0 0 0 0-.22.28.28 0 0 0-.2-.17l-.15-.05h-.11l-.05-.05v-.64l.12-.09h1.4a.83.83 0 0 1 .51.14 1.35 1.35 0 0 1 .32.43v.08a.15.15 0 0 0 0 .09h.08v.15a.07.07 0 0 0-.06 0v.06-.38 2.5zm-2.39-2.65zm0 3.37zM478.61 301.91zm.05-.49h.05zm0 .26zm0-3.52zm0 3.34zm0 .18zm0 .27zm0-3.71zm0-.27zm0-.15zm0 3.58zm.05.06zm0-.06zm.1-3.16zm.06 0zm0 3.6zm0 .28zm.06-1.94zm0-.83zm0 2.4zm0-1.2zm0-.32zm0 .54zm0 1.2zm0-.72v.06h.06zm0 .48l-.05.18a.19.19 0 0 1 0-.06.19.19 0 0 0 0-.07m0-1zm.07-.65a.06.06 0 0 0 0-.06v-.09zm.27 1.45a.9.9 0 0 0-.15-.31l-.21-.28.11.17a.61.61 0 0 1 .13.19.88.88 0 0 1 .08.23zm-.34-.88zm0-2.4zm0 3.28zm0-.94zm0 .06zm0-.76zm.14.76h-.12.12zm-.1-.55zm.06.45s0-.07-.05-.06v.05zm0 .16h.06zm-.06-.63zm0 .88zm0-1.33zm0 .71v-.03m0-.22zm0 .48v-.05m1 0a2.83 2.83 0 0 1 0-.52 7.58 7.58 0 0 1 0-1.11v-.16a.32.32 0 0 1-.08-.12.32.32 0 0 0-.08-.11h.06v-.1a.11.11 0 0 1-.09 0 1.07 1.07 0 0 0 .08-.26.06.06 0 0 0-.05-.06h-.11.15a.33.33 0 0 1-.08.19l-.09-.1a.17.17 0 0 1 0-.11.32.32 0 0 1 .06.15l-.08.07v-.06l-.45.1a.11.11 0 0 0-.05.12.47.47 0 0 1 0 .14v2.64H480.05a.21.21 0 0 1 .12-.09.63.63 0 0 0 .18-.18.8.8 0 0 0 .13-.22.21.21 0 0 0 0-.12v-.12zm-.93 1zm0-3.23zm0 3.12zm.32-3.14zm.13 3.31zm0-3.6zm0 .24zm0 .05zm0-.05zm.1.08v.05h-.07l.06-.07zm0 .06zM479.54 297.93zm0 .48v-.06zm.05 0zm0 3.6v.05zm.07-3.51zm.06 2.48zm0-2.33zm0 1.39V300zm.08-2.12v.06a1.09 1.09 0 0 0 0 .24 1.52 1.52 0 0 0 .07-.34m.12.18a.23.23 0 0 0-.06.11.21.21 0 0 1-.06.11.07.07 0 0 1 0-.05v-.03.39h.07v-.12a.3.3 0 0 1 0-.08.36.36 0 0 0 0-.08.15.15 0 0 0 0-.11v-.1zm-.12 3.55a.13.13 0 0 0 0 .11.2.2 0 0 0 0 .08v-.05a.46.46 0 0 0 0-.13m0-1.31zm0 0zm0-.09zm0-2.07a1.23 1.23 0 0 0 0 .13.25.25 0 0 0 0-.13m0 2.11zm0-.09zm0 1.44zm.05-3.62v.14a.19.19 0 0 0 0-.11zm0 2.26zm0-1.78zm0 2.85v.07zm0-2.69v-.33a.21.21 0 0 0 0 .11.1.1 0 0 0 0 .08v.09zm0-.71v.16a.09.09 0 0 0 0-.06.71.71 0 0 0 0-.08m0 3.05zm0-1.36zm0 .31v-.16.22zm.1.28V300c0-.12 0-.17-.05-.17v.14a.27.27 0 0 1 0 .08.17.17 0 0 0 0 .1.15.15 0 0 0 0 .1.5.5 0 0 0 0 .06v.06a1 1 0 0 1 .1-.21.18.18 0 0 1 0 .1m-.13.17v.08-.14a.07.07 0 0 0 0 .06m0-.76zm0 .35v.13a.14.14 0 0 0 0-.07V300zm0-1.44v-.07zm0 1.11zm0-.06zm0 .71a.2.2 0 0 0 0 .12.61.61 0 0 0 0-.12m0-2.07zm0 .38zm.1 1.07v.06m-.09-1.33zm0 1.81v.03m.06 0a1.48 1.48 0 0 0-.06.31.78.78 0 0 1 0-.1v-.09m0-2zm0-.08zm0 .15zm0 1.37zM484.78 302.1l-.1.05h-.18s-.05 0 0 0h-.62a.34.34 0 0 0-.15 0h-.14a.08.08 0 0 1 0-.05v-.38a1.31 1.31 0 0 1 0-.28v-.06h.2l.12-.1V300.83a.77.77 0 0 1 0-.13v-.24a.09.09 0 0 0-.09-.09h-.19a.65.65 0 0 1-.42 0h-.06l-.18.09V301.12h-.05a.08.08 0 0 0 0 .06v.16a.33.33 0 0 0 .21.11H483.37a.72.72 0 0 1 0 .11 1.07 1.07 0 0 1 0 .48v.07h-.12a.17.17 0 0 0-.08 0h-.57a.52.52 0 0 1-.22 0h-.56a.35.35 0 0 1-.05-.29v-.1a.22.22 0 0 1 .08-.16V301.35l.2-.07.06-.09v-.14a1.26 1.26 0 0 0 0-.15v-.06a.31.31 0 0 0 0-.1v-.09-.25a.06.06 0 0 1 0-.06v-.09h-.06v-.06a.05.05 0 0 0 0-.06V299.52a.51.51 0 0 0 0-.17v-.31a.69.69 0 0 0-.2-.12h-.33a2.61 2.61 0 0 1 0-.48v-.17-.18a.7.7 0 0 1 .35 0h.58a2.4 2.4 0 0 1 .42 0 2.37 2.37 0 0 1 0 .61.48.48 0 0 1 0 .14.15.15 0 0 0-.09.1 1.38 1.38 0 0 0-.14 0 .21.21 0 0 0-.15.12v.11a.18.18 0 0 0 0 .15v.06a.29.29 0 0 1-.06.11v.1a.43.43 0 0 0 0 .2v.16H483.59a.08.08 0 0 0 .07-.06.22.22 0 0 0 0-.05v-.28-.47a.58.58 0 0 1 0-.2.27.27 0 0 0-.08-.2.41.41 0 0 0-.29 0 .76.76 0 0 1 0-.27V297.84h.27v.08h.23l-.06-.08h.66a.32.32 0 0 1 .36.35v.44a.14.14 0 0 1 0 .1h-.33a.2.2 0 0 0-.16.22.55.55 0 0 0 0 .08V300.12 300v.25a.42.42 0 0 1 0 .17v.09a.16.16 0 0 1 0 .09.38.38 0 0 0 0 .07.14.14 0 0 0 0 .1v.23a.37.37 0 0 1 0 .11v.16a.62.62 0 0 0 .38.06h.09v.78zm-3-.23zm0 0zm0 .24zm.07-.24zm.11-.06zm.17.26zm0-.21zm0 .2zm.06-4.05zM482.19 299.08zm0 1.18zm0-1.33zm0 1.18zm0 .76h-.05m0-2.35zm0 1.55zm0 .72zM482.14 300.78zm0-2.16zm0 .7zm0 .31zm0 1.03zm0-.41zm0 1.75zm0-2.18zm0 .77zm.06.26h-.05.08zm-.05-.34zm0 1.53zm0-1.9zm0 .19zm0 .07zm0 0zm0-1.14zm0 1.78zm0 .81zm0-2.78zm0 .11zm0 1.05zm0 1.69v.05zm0-1.14zm0-.65zm0 .55zm0-1.3zm0 .75zm0 .82zM482.15 300.59zm0-1.27zm0 1.19zm0 .14zm0 0zm0 .21zm0 1.13zm0 .06zm0-3zm0 2.78zm0-1.19zm.08-1.39v-.05a.08.08 0 0 0 0 .07zm-.05 1.59zm0 .45zm0-1.19zm0 .71zm0 1.22zM482.18 301.07zm0-2.49zm0 2.37zm0 1zm0-1zm0 1.08zm0-1.86zm0-.77zm0 .75zm0-2.55zm0 1.7zm0 1.48zm.1-.72h-.06a.06.06 0 0 0 0 .07h.06zm-.09-.68zM482.19 300.76zm0 .21zm0-.16zM482.19 298.97zm0 1.67zm0-1.13zm0 1.3zm0 1.19zm0-2.29zm0 1.83zm0-1.73zm0 0zm0 2.14zm0-.45zm0 .59zm0-.13zm.07-2.05zm0 1.78zm0 .41zm0-.21zm.05-2.08zm0 2.31zm.23-2.28zm.1-1.7zm0 0zm.14 0h-.1.09m-.11 3.62zm.11-3.67zm0 1.64zm0 2.35zm.05 0zm.1 0zm.07-.65zm0 .56zm0-2.8zm0 .73zm0 .66zm0 1.48zm0-3.73zm0 .93zm0 1.33zm0 .36zm0-1.58zm0 .08zm0 2.52zm0-1.33zm0 .05zm0 .28zM482.99 300.74zm0-.21zm0 .37zm0-.27zm0-1.51zm0 1.39zM482.99 299.21zm0 .65zm0 .53zm0-.77zm0 1.11zm0-.13zm0-.43zm.5 1.13zm0-3.72zM487.51 298.86v.14a1.64 1.64 0 0 0 0 .29.13.13 0 0 0 0 .13v.71a2.39 2.39 0 0 1 0 .5v.28a1.26 1.26 0 0 0 0 .18v.23l-.07.11v.05a.44.44 0 0 1 0 .1h-.14l-.3.42h-.08v.05h-.1-.05a.1.1 0 0 1-.08 0h-.1a.11.11 0 0 1-.08 0 .07.07 0 0 0-.09 0l-.07-.07v-.06l-.16-.25a.3.3 0 0 1-.09-.14.39.39 0 0 0 0-.14v-.07a.28.28 0 0 1 0-.21h.05a.16.16 0 0 0 0-.08v-.76a.17.17 0 0 1 0-.13.29.29 0 0 1 0-.22.27.27 0 0 1 0-.09.11.11 0 0 0 0-.09v-.09h-.07a.4.4 0 0 0 0-.11v-.13a4.4 4.4 0 0 1 0-.44v-.07a1.22 1.22 0 0 1 .31-.69.91.91 0 0 1 .69-.28.83.83 0 0 1 .65.32 1.35 1.35 0 0 1 .29.68 1.42 1.42 0 0 1 0 .23.12.12 0 0 1 0 .05m-2 .81zm0 1.37zm0-1.34zm0 1zm0-1.05zm0 .43zm0 .83zm0-.17zm0 .53zm0-.62zm0 .43zm0-1.35zm0 .36zm0 .85zm0 .37zm0-1.28zm0 .33h.06zm0 .66zm0-1.61zm0 .26zm0 1zm0 .14zm0-.19zm0-1.45zm0 1.72zm0-.37zm.06.41v.05h.05zm-.06-.9zm0 .26zm0 .68zm0-1.28zM486.02 301.53zm0-1.42zm0 .67zm0 1.19zm0-2.09zm0 1.27zm0-.8zm0 0h-.05zm0 .72zm0 .13zm0 .11a.11.11 0 0 0 0-.06zm0 .12zm0-1.87zm0 .4zm0 1zm0-1.09zm0-.39zm0 .12zm0 .35zm0-.23zm0-.07zm0 .27h-.05.09m0 .19zm0 .26zm0 0zm0 .09zm0 .48zM486.06 301.23zm0-1.56zm0 .82zm0 .55zM486.11 299.65h.08m-.06 1.68zm0-1.48zm0 .65zm0 .64zm0 .14zm0-1.46zm0 .55zm0 .54h-.06zm-.06-.6zm0 1.63zm0-2.23zm-.07.44zm0 .89zm.06-1.19H486h.05zm-.08 1.31zM485.98 301.08zm0-1zm0 1.22zm0-1zm0-.43zm0 .74zm0 1.53zm0-2zm0 .5zm0 .49zm.06-1zm-.06.4zm0-.55zm0 .47zm0 .34zm0 .19a.07.07 0 0 0 0 .05zm0 0a.09.09 0 0 1 0 .06v-.06m0-.35zM487 300a.1.1 0 0 1 0-.09V299.76v-.2q0-.31-.06-.61a.4.4 0 0 0-.38-.39.24.24 0 0 0-.14 0 1.27 1.27 0 0 0-.14.19.71.71 0 0 0-.09.31v.08a.1.1 0 0 0-.08 0v.05h.05a.09.09 0 0 1 .08 0l.07.06v.05h-.41l-.07.06h.06v.06h-.05V299.54h.23-.06.06a.5.5 0 0 0 .14.14.31.31 0 0 0 .17.08h.08a1.17 1.17 0 0 0 .23-.16l.12-.23a.07.07 0 0 0 0-.06.66.66 0 0 0 0-.21.46.46 0 0 1 0-.1.14.14 0 0 0 0-.13v-.32V300zm-1.11.95zm0-.7zm0-.71zm0 .51zm0 .12zm0 .21zm0-.61zm0 .53zm0 .6zm0-.62zm0-.69zm0 1.32zm0 .87zm0-1.88zm0 .57zm0 .09zM485.89 299.67zm0 .05zm0 0zm0 .41zm0-.76zm0 .07zm0 1.55zm0 1zm0-2.65zm0 1.93zm0-1.21zm0 .5zm0 .29zm0 1.16h.05m0-2.02zm0 .73zm0 .84zm0-2.23zm0 2.54zm0-.66zM485.94 302.06zm.14 0h-.05a.07.07 0 0 0 .05 0zm-.05-.1zm0-4zm0 3.21zm0 .95zm0-.21zm0 .06zm0-.73zm0 .16zm.05-3.3zm0 4zm.29-.32a.06.06 0 0 0 0-.06h-.06a.09.09 0 0 1-.08 0 .12.12 0 0 1 0 .07h.09zm-.24.24h-.06zm0-.5zm0 .32zm0 .08zm.15-.26v-.06h.1zm-.15.33zm0-.13zm0 .1zm0-.42zm0-.23zm0 .75zm0-.41zm0-.27zm0 .73zm0-.42zM486.13 301.77zm0 .36zm0-.38zm0 .27zm0-.55zm0-.07zm0 .53zm0 .18zm0-.28zm0 .11zm0 .06zm.06-.63zm0-3.07zm0 3.28zm0 .09zm0 .45zm.07 0zm0-.61zm0 .56zm0 .11zm.05-.1zm0-.05zm0 .13zm.07-.05zm0 0zm0-.07zm0-.1zm0-.56zm0 .7zm0-.14zm0 0zm0-1.19zm0 1.19zm0-2.32zm0 1.12zm0-.5zm0 .28zm0 0zm0 0zm0-1.18zm0 .67zm0 .26a.08.08 0 0 1 0 .05zm0 1.53zm0 0zm0-1.57v-.06zm0-.15v.07a.74.74 0 0 0 0-.12m.08-.54zm-.05.38v.05a.24.24 0 0 1 0 .06.36.36 0 0 0 0-.12zm.18-.6h-.06a.1.1 0 0 0 0-.07v.06a.07.07 0 0 0 0 .05h-.06a.06.06 0 0 0-.05 0 .15.15 0 0 0 .12 0zm-.15.13zM486.44 299.5zm0 .3v.2a.18.18 0 0 1 0-.08m0 1.74zm0-.46zm0-.49zm0-2.13zm.06 1.09l-.05.16.05-.16zm.68 1.33zm0 .82zm0-3.86zm0 3.8zm0-2.22v.05zm0 2.12zm0-.89zm0-1.27zm0 0zm0 1.87zm0-1.23zm0 .94zm0 .4zm0-.45zm0-.19zM487.18 299.06zm0 1.12zm0 1zm0-1.3zM491 298.45a.51.51 0 0 0-.38.18.69.69 0 0 0-.09.38V301.06a1.37 1.37 0 0 1-.21.9.16.16 0 0 1-.13.1H489.97h-.13-.12v.05H489a.35.35 0 0 1-.12-.1.31.31 0 0 1-.1-.12.6.6 0 0 1-.14-.3.64.64 0 0 0 0-.1.35.35 0 0 1 0-.12.78.78 0 0 0 0-.16.65.65 0 0 1 0-.18v-.06a.08.08 0 0 1 0-.08v-.35a.52.52 0 0 1 0-.15v-.65l.06-.09a3.12 3.12 0 0 0-.08-1 1.15 1.15 0 0 0-.32 0v-.11a.23.23 0 0 1 .08-.23l-.08-.05a1.17 1.17 0 0 0 0-.17v-.16c0-.11.07-.17.22-.17h1.15V298.61a1.8 1.8 0 0 0-.32.07 1.89 1.89 0 0 0-.1.9v1.07a.68.68 0 0 0 0 .16 1.94 1.94 0 0 0 0 .23v.1a1 1 0 0 0 .16.19.45.45 0 0 0 .22 0 .65.65 0 0 0 .57-.15 4 4 0 0 0 .09-1.05V299a1.71 1.71 0 0 0 0-.31.36.36 0 0 0-.2-.21h-.16v-.86h.9a1.3 1.3 0 0 1 .35 0v.81zm-2.28 3.18zm.66.52zM489.81 302.08zm.28-.41zM490.37 301.72zM493.51 301.31v.07a.16.16 0 0 1 0 .1v.1a.67.67 0 0 1-.38.46h-.05a.19.19 0 0 0 0-.06.12.12 0 0 1 0-.06.16.16 0 0 1-.05.13h-.06s-.06 0 0 0h-.18a.23.23 0 0 0-.11.16h-.14v-.31a.14.14 0 0 0 0-.1v-.17a1.44 1.44 0 0 1 0-.42 3.43 3.43 0 0 0 0-.42 2.8 2.8 0 0 1 0-.54H492.83v.23a.34.34 0 0 1 .05.12.37.37 0 0 1 0 .11 1 1 0 0 1 .07.23 1.26 1.26 0 0 1 .14.21.75.75 0 0 0 .19.17.28.28 0 0 0 .13 0h.18-.07l.09-.09.09-.12a.05.05 0 0 1 .06-.06h-.05.08v-.13h-.08v-.08a.05.05 0 0 1-.06-.05.33.33 0 0 0 0-.09.36.36 0 0 1 0-.09.09.09 0 0 1 0-.07v-.08a.28.28 0 0 1 0 .11s0 .06-.05.06v.05-.05H492.46v-.08h-.05v-.08.06a.15.15 0 0 1-.09-.09.47.47 0 0 1-.25-.21.28.28 0 0 1-.13-.13v-.05a1.59 1.59 0 0 1-.09-1.66.72.72 0 0 1 .65-.37.7.7 0 0 1 .35.1.71.71 0 0 0 .23.1.31.31 0 0 0 .05-.13.08.08 0 0 1 .09-.08q.24 0 .24.08v1.73a.07.07 0 0 0 0 .06H493.31a3.5 3.5 0 0 1-.05-.38.48.48 0 0 0 0-.09.29.29 0 0 1 0-.1l-.12-.23a.29.29 0 0 0-.15-.17.3.3 0 0 0-.24-.11.41.41 0 0 0-.29.12.4.4 0 0 0-.12.3.49.49 0 0 0 .07.23l.12.21.07.09a.27.27 0 0 0 .08.08.38.38 0 0 0 .15.16v.1-.05a.26.26 0 0 0 .12.12v.05a.2.2 0 0 1 .09.13v.39l.05.07v.06a.51.51 0 0 1 0 .23m-1.86-.66zm0 1.23zm0-3.15zm0 2.19zm0 1zm0-1.05zm.08.94zm0-1zm0 1.35zm0-3.79zm0 2.42zm0-2.39zm0 2.22zm0 1.49zm0-.31zm0-1.12zm0 1.35zm0-1.31zm0 .31zm0-2.29zm0 .61zm.11 0zm0 2.41zm0-2zm.06.13h-.05.06m0 1.37zm0-1.34zm0-.09zm.13 2.28zm.23-2.25v-.16.06a.12.12 0 0 0 .15.12.09.09 0 0 0 .07-.09m-.16-.06zm0 2.32zm0 .08zm0-.07zm.05-2.33zm0 2.34zm0-2zm.08-.33a.09.09 0 0 1 0 .06zm0 0zm0 2.37zm0-2.26zm0-.21zm0 .56zM492.14 300.07zm.05 0zm0-.17zm0 1.86zm0-1.82zm0 .08zm0 0zm.05-.24zm0 0zm0 .45zm0 1.65zM492.24 299.99zm0 .13zm0-.06zm0 .19h.05zm0 .09zm.07 1.1v.05zm0-1.42zm.06.27zm0-.29zm0-2.07zm0 2.1zm0-.08zm0 .5zm0 .71zm0-.67zm0 .38zm0-.63zm0 .31zm0-.27zm0 0zm0 .29zM492.37 300.4zm0-.2zm0 .17zm0 0zm0 .59zm0 0zm0-.37zm0 .1zm0-.29zm0 .08zm.11.23h.05M492.45 299.28zm0 1.47zm0-.61zm.05.41h-.06.06m0-.12v-.06zm0-1.13zm0 1zm0 0zm0 .19zm0-.31zM492.5 299.07zM492.5 299.03zm0 1.24zm0-1zm0 0zm0 1zm0 .51zm0-.12zm0-.2zm0 .2zm0 .11zm0-.21M494.18 297.82zm2.49 0v.8l-.09.1a.11.11 0 0 0 .06.09v.37a.17.17 0 0 1-.13 0h-.16a.27.27 0 0 1 0-.19.93.93 0 0 1 0-.21.64.64 0 0 0-.43-.75 1.75 1.75 0 0 1-.51 0 .44.44 0 0 0-.22.33V299.16a.2.2 0 0 1-.1-.09.15.15 0 0 1-.06-.14.07.07 0 0 0-.05 0 .19.19 0 0 1-.09.06l-.06.06v-.4-.23c0-.25-.09-.37-.28-.37a.64.64 0 0 1-.24 0 .5.5 0 0 1 0-.27v-.05a.19.19 0 0 0 0-.11.21.21 0 0 0 0-.18v-.06l.05-.05h2.14a.14.14 0 0 1 .16.07 1 1 0 0 1 0 .2m-2.48 0zm2.51 2.49v1.74c0 .05-.09.07-.26.07h-.68l-.07-.07a2.21 2.21 0 0 1-.91.09 1.22 1.22 0 0 1-.56-.06v-.76a.05.05 0 0 1 .05-.05h.19c.16 0 .24-.12.24-.36v-.14-.62.07l.08.09h.06a.41.41 0 0 1 .13-.1v.1a.14.14 0 0 1 .1-.09v-.06h.05a.49.49 0 0 1 .06-.12v1.08a1.53 1.53 0 0 1 0 .29v.06a.23.23 0 0 0 .23.18h.34a.82.82 0 0 0 .39-.09.34.34 0 0 0 .19-.31v-.31a2.93 2.93 0 0 0 0-.32.63.63 0 0 1 0-.13h.2v.06-.06a.26.26 0 0 1 0 .12m-2-.79a.19.19 0 0 0 0-.09.1.1 0 0 1 0 .06m.07.59zm0-.08zm0-.64zm.38-.39zm.8 1.38v.06h-.23v-.16a1.52 1.52 0 0 1-.05-.14.21.21 0 0 0-.23-.16.28.28 0 0 0-.13 0 .38.38 0 0 0-.09 0 .15.15 0 0 0 0-.11h.3V300.14H495.46a.33.33 0 0 1 .15-.06v.16zm-.8-.6zM495.25 297.8v-.06h-.05a.11.11 0 0 0 .08.07zm0 .16zm0-.07zm0 0zm0 .2zm0 .07zm0-.27zm0 .32zm.2 1.78zm.06-.36a.09.09 0 0 1 0 .06.1.1 0 0 1 0-.06m.28.13v.08a.1.1 0 0 1-.06-.06.08.08 0 0 0-.06-.05h-.05v-.24a.15.15 0 0 1 .15-.19.14.14 0 0 1 .1 0 .13.13 0 0 1 .05.14V299.74m-.12.49zm.64.29zm0-.36zm0 .73zm.09-.65zM486.3 274.79a1 1 0 0 1-.81.64 1 1 0 0 0 .07-.62l-.22-.36h.07a7.09 7.09 0 0 0 .86-.13c.19.1 0 .34 0 .51M465.89 277.31a1.08 1.08 0 0 0 1.26-.92.87.87 0 0 0-1-.89l-.54.07v1.73h.26zm.43 2.87a1.11 1.11 0 0 0 1.33-1.13 1.23 1.23 0 0 0-1.45-1.18h-.57v2.2zm-1.5-4a1.31 1.31 0 0 0-.36-1.22h1.88c1.08 0 1.7.49 1.7 1.3a1.24 1.24 0 0 1-.82 1.15 1.58 1.58 0 0 1 1.31 1.58 1.79 1.79 0 0 1-1 1.55 3.75 3.75 0 0 1-1.8.28h-1.32a1.31 1.31 0 0 0 .36-1.24v-3.38zM470.92 275.72l-.8 2.23h1.59zm-1 2.9l-.4 1.26c-.18.49-.23.75.15.92h-1.48a2.09 2.09 0 0 0 .78-1.28l1.33-3.7c.12-.32.27-.69-.12-.83h1.27l1.66 4.55a2.16 2.16 0 0 0 .79 1.28h-1.65c.39-.21.32-.31.11-.92l-.43-1.26h-2zM476.28 280.18a1.91 1.91 0 0 0 1.41-.55l-.42 1.18H474a1.24 1.24 0 0 0 .37-1.22v-3.39a1.26 1.26 0 0 0-.37-1.2h1.54a1.3 1.3 0 0 0-.36 1.22v3.89zM480 280.18a1.93 1.93 0 0 0 1.41-.55l-.41 1.18h-3.28a1.28 1.28 0 0 0 .35-1.22v-3.39a1.3 1.3 0 0 0-.35-1.22h1.52a1.28 1.28 0 0 0-.35 1.22v3.89zM483.28 279.66a1.15 1.15 0 0 0 .42 1.14h-1.57a1.31 1.31 0 0 0 .35-1.22v-1.31l-1.33-2.39a2.1 2.1 0 0 0-.76-.91h.73a.63.63 0 0 1 .6.25l1.29 2.33 1-1.66a.57.57 0 0 0-.14-.89h1.4l-2 3.3v1.4zM489.11 276a1.72 1.72 0 0 0-1.26-.56.89.89 0 0 0-1 .82c0 1.2 2.75 1.19 2.75 2.84a2 2 0 0 1-2.13 1.84 3.91 3.91 0 0 1-1.44-.26l-.23-1.12a2.59 2.59 0 0 0 1.76.75 1.09 1.09 0 0 0 1.14-.93c0-1.39-2.76-1.14-2.76-3 0-1.13 1-1.56 2-1.56a3.89 3.89 0 0 1 1.2.19v1zM490.57 280.32a.46.46 0 1 1 .46.46.46.46 0 0 1-.46-.46m.86 0a.39.39 0 1 0-.39.39.39.39 0 0 0 .39-.39m-.17.25h-.09l-.15-.23h-.09v.23h-.07v-.51h.22a.14.14 0 0 1 .18.13.14.14 0 0 1-.16.14zm-.24-.3c.06 0 .17 0 .17-.07s-.07-.06-.12-.06h-.14v.13h.07zM430.57 298.16h-1.67a1.07 1.07 0 0 0-1.17.81l-1.13 3.18h1.26l.49-1.29h1.18l-.42 1.24h1.37l.95-2.73a.87.87 0 0 0-.86-1.21m-.51 1.2l-.21.59h-1.18l.2-.56a.48.48 0 0 1 .25-.3 1.46 1.46 0 0 1 .75 0 .24.24 0 0 1 .2.31" transform="translate(-134.54 -270.39)"/><path class="cls-2" d="M290.52 27.76l-.49 1.5h1.3l.5-1.5h1.34l-1.43 4h-1.33l.58-1.58h-1.29l-.55 1.57h-1.26l1.36-3.99h1.27z"/><path class="cls-2" d="M434.66 298.16h-2.42l-1.37 4h1.27l.53-1.63h.92a.22.22 0 0 1 .24.26c0 .21-.2.71-.2.95a.5.5 0 0 0 .18.41h1.4a.85.85 0 0 1-.4-.52 5.51 5.51 0 0 0 .24-.9.56.56 0 0 0-.3-.53c1.14-.27 1.28-2-.09-2m-.78 1.48H433l.18-.55h.82c.52 0 .34.55-.17.55" transform="translate(-134.54 -270.39)"/><path class="cls-2" d="M440.44 298.1l-2.33 3.62a.89.89 0 0 1-.7.44 3.93 3.93 0 0 1-1.17 0 .43.43 0 0 1-.4-.47v-3.59h1.26v3l1.95-3h1.4zM445.88 298.14l-.43 1.25c-.23.64 1 .67 1.26 0l.45-1.26h1.25l-1.16 3.31a1.13 1.13 0 0 1-1.26.66h-2.81l.36-.94h2.14a.56.56 0 0 0 .55-.41 8.82 8.82 0 0 1-1.38 0 .87.87 0 0 1-.72-1.26l.48-1.37h1.29zM447.32 302.07h3a1.32 1.32 0 0 0 1.34-1.22 1.06 1.06 0 0 0-1.19-1.24c-.74 0-.94 0-.94-.21s.08-.35.61-.35h2.1l.34-1h-2.85a1.47 1.47 0 0 0-1.44 1.48 1 1 0 0 0 1.26 1c.58 0 .76 0 .76.25s-.16.26-.76.26h-1.9zM444.18 298.14l-.34 1h-1.92a.72.72 0 0 0-.82.58h2.55l-.34 1h-2.54s-.21.51.3.51h2.13l-.32.94h-2.68c-.71 0-.93-.7-.7-1.45l.59-1.67a1.33 1.33 0 0 1 1.35-.85h2.76zM453.19 298.51a.46.46 0 1 1 .46.46.46.46 0 0 1-.46-.46m.86 0a.39.39 0 1 0-.39.39.39.39 0 0 0 .39-.39m-.17.25h-.09l-.15-.23h-.09v.23h-.07v-.51h.22a.14.14 0 0 1 .18.13.14.14 0 0 1-.16.14zm-.24-.3c.06 0 .17 0 .17-.07s-.07-.06-.12-.06h-.14v.13h.09z" transform="translate(-134.54 -270.39)"/></svg>