<svg xmlns="http://www.w3.org/2000/svg" width="29.969" height="34.969" viewBox="0 0 29.969 34.969"><defs><style>.cls-1{fill:#cc1c26;fill-rule:evenodd}</style></defs><path id="fa-file-text-o" class="cls-1" d="M235.277 507.381l-6.092-6.093a5.237 5.237 0 0 0-3.2-1.327h-17.5a1.874 1.874 0 0 0-1.874 1.874v31.242a1.874 1.874 0 0 0 1.874 1.874h26.245a1.875 1.875 0 0 0 1.875-1.874v-22.494a5.232 5.232 0 0 0-1.328-3.202zm-8.669-4.765a2.489 2.489 0 0 1 .8.43l6.112 6.111a2.5 2.5 0 0 1 .429.8h-7.341v-7.342zm7.5 29.836h-24.996V502.46h15v8.123a1.875 1.875 0 0 0 1.875 1.874h8.123v20zm-20-16.87v1.249a.616.616 0 0 0 .625.625h13.746a.616.616 0 0 0 .625-.625v-1.249a.616.616 0 0 0-.625-.625h-13.743a.616.616 0 0 0-.625.625zm14.371 4.373h-13.743a.617.617 0 0 0-.625.625v1.25a.617.617 0 0 0 .625.625h13.746a.617.617 0 0 0 .625-.625v-1.25a.617.617 0 0 0-.625-.625zm0 5h-13.743a.616.616 0 0 0-.625.625v1.25a.616.616 0 0 0 .625.624h13.746a.616.616 0 0 0 .625-.624v-1.25a.616.616 0 0 0-.625-.626z" transform="translate(-206.625 -499.969)"/></svg>