<svg id="Caesars_Entertainment_4cbw" data-name="Caesars Entertainment_4cbw" xmlns="http://www.w3.org/2000/svg" viewBox="0 0 751.27 140.79"><defs><style>.cls-1{fill:#fff;}</style></defs><title>CaesarsEntertainment_Laurel_Horz_MinAOI_4c</title><path class="cls-1" d="M245.22,487.75c-17.82-.07-28.25-3.16-27.91-25.31,15.66,5.07,12.76,20.81,27.91,25.31" transform="translate(-165.37 -363.75)"/><path class="cls-1" d="M229.73,400.91c-12.2,11-24.4.65-35.87,11.52,9-15.4,16.85-22.88,35.87-11.52" transform="translate(-165.37 -363.75)"/><path class="cls-1" d="M194.33,407.41c2.35-16.88-8.22-26.12,17.4-43.32,11.64,21.71-7.88,25.32-17.4,43.32" transform="translate(-165.37 -363.75)"/><path class="cls-1" d="M214.11,411.28C209,426.95,193.3,424,188.8,439.2c0.06-17.81,3.14-28.24,25.3-27.92" transform="translate(-165.37 -363.75)"/><path class="cls-1" d="M186.7,435.6c-6.41-15.79-20.18-18.51-6.59-46.22,20.94,13,5.84,25.88,6.59,46.22" transform="translate(-165.37 -363.75)"/><path class="cls-1" d="M165.37,427.1c24.62,0.76,18,19.49,28.81,36.72-13.43-10.46-26.72-5.93-28.81-36.72" transform="translate(-165.37 -363.75)"/><path class="cls-1" d="M171.45,467.14c21.71-11.65,25.33,7.88,43.33,17.39-16.88-2.33-26.12,8.22-43.33-17.39" transform="translate(-165.37 -363.75)"/><path class="cls-1" d="M197.8,464.93c-8.85-15.47-11.39-26,8-36.84,3.46,16.1-11.64,21.47-8,36.84" transform="translate(-165.37 -363.75)"/><path class="cls-1" d="M206.93,446.81c11,12.2.65,24.4,11.53,35.87-15.4-9-22.89-16.85-11.53-35.87" transform="translate(-165.37 -363.75)"/><path class="cls-1" d="M196.75,498.76c13-20.94,25.88-5.83,46.21-6.59-15.79,6.41-18.51,20.17-46.21,6.59" transform="translate(-165.37 -363.75)"/><path class="cls-1" d="M247.54,487.75c17.82-.07,28.24-3.16,27.91-25.32-15.66,5.07-12.76,20.81-27.91,25.32" transform="translate(-165.37 -363.75)"/><path class="cls-1" d="M263,400.91c12.2,11,24.4.65,35.87,11.52-9-15.4-16.85-22.88-35.87-11.52" transform="translate(-165.37 -363.75)"/><path class="cls-1" d="M298.42,407.41c-2.34-16.88,8.22-26.13-17.4-43.33-11.65,21.71,7.88,25.33,17.4,43.33" transform="translate(-165.37 -363.75)"/><path class="cls-1" d="M278.65,411.28C283.7,426.95,299.46,424,304,439.2c-0.06-17.81-3.15-28.24-25.3-27.92" transform="translate(-165.37 -363.75)"/><path class="cls-1" d="M306.05,435.6c6.41-15.79,20.18-18.52,6.6-46.23-20.94,13-5.84,25.88-6.6,46.23" transform="translate(-165.37 -363.75)"/><path class="cls-1" d="M327.39,427.1c-24.62.76-18,19.49-28.81,36.72,13.44-10.46,26.72-5.94,28.81-36.72" transform="translate(-165.37 -363.75)"/><path class="cls-1" d="M321.31,467.13C299.6,455.48,296,475,278,484.53c16.88-2.34,26.12,8.21,43.32-17.4" transform="translate(-165.37 -363.75)"/><path class="cls-1" d="M295,464.93c8.85-15.47,11.39-26.05-8-36.84-3.46,16.09,11.64,21.47,8,36.84" transform="translate(-165.37 -363.75)"/><path class="cls-1" d="M285.83,446.81c-11,12.2-.66,24.4-11.53,35.87,15.4-9,22.88-16.85,11.53-35.87" transform="translate(-165.37 -363.75)"/><path class="cls-1" d="M296,498.75c-13-20.94-25.88-5.83-46.22-6.59,15.79,6.41,18.51,20.18,46.22,6.59" transform="translate(-165.37 -363.75)"/><path class="cls-1" d="M395.49,440.46c-26,0-42.19-17.46-42.19-36.9,0-18.69,17.67-39.81,42.64-39.81,10.55,0,21.71,4.26,24.07,6.07,0.78,0.66,1.93,8.79,2.15,15.77,0,0.52-1.79.42-1.93,0.07-1.93-8.76-10.23-18.5-27-18.5S363.67,379,363.67,399.4c0,24.86,16.75,37.45,32.79,37.45,11.75,0,23.32-7,24.21-18.43,0-.36,2.12-0.46,2.12.23-0.32,7-1.41,15.08-2.36,15.74-4,3-11.12,6.07-24.95,6.07" transform="translate(-165.37 -363.75)"/><path class="cls-1" d="M506,438.22a147.7,147.7,0,0,0-17.25.7c-0.85.2-.43-2.16-0.07-2.16,5.15-.56,7.84-0.42,7.84-3.48,0-3.38-2.13-8.55-4.27-14.2l-3.34-9H463.18l-3.9,9c-2.93,6.66-4.83,11.05-4.83,14.2,0,2.56,2.14,3.06,7.15,3.48,0.59,0,.79,2.36-0.06,2.16a68,68,0,0,0-10.79-.7,61.89,61.89,0,0,0-11.52.7c-0.92.2-.42-2.16-0.06-2.16,7.61-.56,10.47-5.25,16-17.88l24.44-54.38a1.26,1.26,0,0,1,2.12,0l20.79,54.38c5.22,13.62,7.35,17.32,16.7,18,0.29,0.1.78,2.17-.37,2.07a99.16,99.16,0,0,0-12.92-.7M464.55,407h23.19l-10.5-28.79Z" transform="translate(-165.37 -363.75)"/><path class="cls-1" d="M585.83,438.75c-4.19,0-11.37-.53-19.67-0.53-11.38,0-23,.1-31.19.7-1,.1-0.43-2.16-0.1-2.16,11.38-1.25,11.57-.79,11.57-17.78V385.24c0-17.06-.19-16.63-11.57-18-0.33,0-1-2.16.1-2,8.23,0.56,19.26.79,30.69,0.79,8.37,0,16-.23,22.67-0.79a19.19,19.19,0,0,0-.78,6.53c0,1.11,0,3.35.06,4.26,0.17,0.56-1.86.36-2,0-0.86-5-3.25-6.39-18-6.39H556.8c-0.46,2.78-.55,8-0.55,15v14.42h11.58c12.36,0,11.47-.88,12.16-3.8,0.07-.36,1.87,0,2.06.19a33.31,33.31,0,0,0-.61,7c0,1.27,0,3.51.12,4.39,0.23,0.59-1.92.49-2,.13-0.69-3.5-1.35-4.82-11.7-4.82H556.25v16.43c0,14.61,1.81,16,7,16h6c17.18,0,18.19-1.48,19.87-8.93,0-.23,2.17-0.23,2.07.36-0.46,2.79-1.51,8.13-2.16,10.46-0.6,2-1.22,2.33-3.16,2.33" transform="translate(-165.37 -363.75)"/><path class="cls-1" d="M611.71,432.92c-0.55-.42.23-7,0.66-14.86,0-.52,2-0.42,2-0.1,0.78,11.46,7.09,19,18.8,19,7.64,0,15-4.14,15-13.15,0-18.67-33.88-18.79-33.88-39.26,0-10.33,9.12-20.79,22.16-20.79a29.35,29.35,0,0,1,14.73,3.54c0.92,0.53,1.74,4.76,1.74,12.34,0,0.55-2.3.42-2.3,0.09-1.31-8.33-6.85-12.55-15.05-12.55-7,0-13.55,4.45-13.55,11.44,0,17.88,33.22,17.54,33.22,39a22.59,22.59,0,0,1-23,22.83,30.43,30.43,0,0,1-20.5-7.54" transform="translate(-165.37 -363.75)"/><path class="cls-1" d="M731.61,438.22a146.19,146.19,0,0,0-17.18.7c-0.92.2-.49-2.16-0.13-2.16,5.15-.56,7.91-0.42,7.91-3.48,0-3.38-2.17-8.55-4.33-14.2l-3.34-9H688.89l-4,9c-2.92,6.66-4.82,11.05-4.82,14.2,0,2.56,2.16,3.06,7.18,3.48,0.59,0,.82,2.36-0.07,2.16a67.88,67.88,0,0,0-10.82-.7,61.79,61.79,0,0,0-11.48.7c-0.85.2-.43-2.16-0.07-2.16,7.61-.56,10.43-5.25,16-17.88l24.44-54.38a1.27,1.27,0,0,1,2.13,0l20.83,54.38c5.14,13.62,7.3,17.32,16.65,18,0.3,0.1.79,2.17-.36,2.07a99.71,99.71,0,0,0-13-.7M690.23,407h23.19l-10.5-28.79Z" transform="translate(-165.37 -363.75)"/><path class="cls-1" d="M790.71,405.3a68.55,68.55,0,0,1-8.94.63,27.53,27.53,0,0,1-4.37-.2V419c0,16.2,0,17,10.5,17.78,0.28,0,.85,2.27-0.24,2.16a114.09,114.09,0,0,0-13.93-.7,135.93,135.93,0,0,0-16.56.7c-0.89.2-.46-2.16-0.13-2.16,10.12-1,10.55-.92,10.55-17.78V385.1c0-12.69-.19-16.66-6.63-16.66a30.56,30.56,0,0,0-4.25.46c-0.57.13-1.25-1.68-.23-2,4.62-1.44,15.86-1.87,28.24-1.87,16.43,0,29.91,5,29.91,17.52,0,6.3-3.89,15.55-15.74,20.36,6.07,16.2,23.77,35.69,36.37,35.69,0.33,0,.85,2.13-0.16,2.13-26.33,0-39.46-17.69-44.38-35.39m-12.53-36.92c-0.55,2.39-.78,7.55-0.78,15.74v18.67c1.58,0.09,2.36,0,4.27,0,16.88,0,22.85-6.07,22.85-15.39,0-15.35-10.09-19.22-21.31-19.22-1.74,0-3.12.07-5,.2" transform="translate(-165.37 -363.75)"/><path class="cls-1" d="M849.42,432.92c-0.55-.42.24-7,0.66-14.86,0-.52,2-0.42,2-0.1,0.76,11.46,7.12,19,18.8,19,7.65,0,15-4.14,15-13.15,0-18.67-33.85-18.79-33.85-39.26,0-10.33,9.09-20.79,22.14-20.79a29.71,29.71,0,0,1,14.76,3.54c0.89,0.53,1.67,4.76,1.67,12.34,0,0.55-2.23.42-2.23,0.09-1.38-8.33-6.89-12.55-15.12-12.55-7.05,0-13.45,4.45-13.45,11.44,0,17.88,33.18,17.54,33.18,39a22.63,22.63,0,0,1-23.09,22.83,30.44,30.44,0,0,1-20.46-7.54" transform="translate(-165.37 -363.75)"/><polygon class="cls-1" points="191.9 102.69 219.82 102.69 219.82 108.6 198.5 108.6 198.5 118.37 217.36 118.37 217.36 124.28 198.5 124.28 198.5 134.39 220.07 134.39 220.07 140.32 191.9 140.32 191.9 102.69"/><polygon class="cls-1" points="233.85 102.69 239.99 102.69 260.19 128.71 260.19 102.69 266.64 102.69 266.64 140.32 261.11 140.32 240.31 113.53 240.31 140.32 233.85 140.32 233.85 102.69"/><polygon class="cls-1" points="290.38 108.8 278.46 108.8 278.46 102.69 309.06 102.69 309.06 108.8 297.12 108.8 297.12 140.32 290.38 140.32 290.38 108.8"/><polygon class="cls-1" points="321.94 102.69 349.86 102.69 349.86 108.6 328.55 108.6 328.55 118.37 347.44 118.37 347.44 124.28 328.55 124.28 328.55 134.39 350.15 134.39 350.15 140.32 321.94 140.32 321.94 102.69"/><path class="cls-1" d="M529.33,466.44h16.75c4.74,0,8.44,1.34,10.9,3.74a11.45,11.45,0,0,1,3.08,8.14v0.07c0,6.19-3.71,9.93-9,11.44l10.16,14.24h-7.81l-9.24-13.12h-8.31v13.12h-6.55V466.44Zm16.26,18.63c4.75,0,7.74-2.5,7.74-6.3v-0.1c0-4-2.92-6.24-7.8-6.24h-9.65v12.63h9.71Z" transform="translate(-165.37 -363.75)"/><polygon class="cls-1" points="416.9 108.8 404.99 108.8 404.99 102.69 435.52 102.69 435.52 108.8 423.59 108.8 423.59 140.32 416.9 140.32 416.9 108.8"/><path class="cls-1" d="M620.14,466.15h6.14l16.56,37.92h-7L632,495H614.24l-3.87,9.05h-6.79Zm9.48,23-6.52-15-6.44,15h13Z" transform="translate(-165.37 -363.75)"/><rect class="cls-1" x="488.06" y="102.69" width="6.62" height="37.62"/><polygon class="cls-1" points="510.69 102.69 516.83 102.69 536.99 128.71 536.99 102.69 543.53 102.69 543.53 140.32 537.95 140.32 517.18 113.53 517.18 140.32 510.69 140.32 510.69 102.69"/><polygon class="cls-1" points="559.1 102.69 566.15 102.69 577.61 120.47 589.09 102.69 596.14 102.69 596.14 140.32 589.51 140.32 589.51 113.33 577.61 131.07 577.38 131.07 565.59 113.42 565.59 140.32 559.1 140.32 559.1 102.69"/><polygon class="cls-1" points="611.71 102.69 639.61 102.69 639.61 108.6 618.34 108.6 618.34 118.37 637.23 118.37 637.23 124.28 618.34 124.28 618.34 134.39 639.88 134.39 639.88 140.32 611.71 140.32 611.71 102.69"/><polygon class="cls-1" points="653.66 102.69 659.83 102.69 679.96 128.71 679.96 102.69 686.49 102.69 686.49 140.32 680.94 140.32 660.19 113.53 660.19 140.32 653.66 140.32 653.66 102.69"/><polygon class="cls-1" points="711.35 108.8 699.38 108.8 699.38 102.69 729.95 102.69 729.95 108.8 718.01 108.8 718.01 140.32 711.35 140.32 711.35 108.8"/><path class="cls-1" d="M898.79,495.19v-0.05a8.92,8.92,0,0,1,17.85-.05v0.05A8.92,8.92,0,0,1,898.79,495.19Zm16.81-.05v-0.05a7.88,7.88,0,1,0-15.77.05v0.05A7.88,7.88,0,1,0,915.6,495.14Zm-11.55-5h4.21a4,4,0,0,1,2.93,1,2.85,2.85,0,0,1,.79,2.07v0a3,3,0,0,1-2,2.94l2.32,3.4h-2.44l-2-3.05h-1.65v3.05H904v-9.49Zm4.18,4.63a1.4,1.4,0,0,0,1.63-1.36v-0.05a1.4,1.4,0,0,0-1.68-1.38h-2v2.78h2.09Z" transform="translate(-165.37 -363.75)"/></svg>