<?xml version="1.0" encoding="UTF-8"?>
<svg width="48px" height="36px" viewBox="0 0 48 36" version="1.1" xmlns="http://www.w3.org/2000/svg" xmlns:xlink="http://www.w3.org/1999/xlink">
    <!-- Generator: Sketch 43.2 (39069) - http://www.bohemiancoding.com/sketch -->
    <title>Caesar's Entertainment</title>
    <desc>Created with Sketch.</desc>
    <defs></defs>
    <g id="Page-1" stroke="none" stroke-width="1" fill="none" fill-rule="evenodd">
        <g id="logo-train-dark-bg" transform="translate(-1.000000, 0.000000)" fill-rule="nonzero">
            <g id="Group">
                <path d="M4.67,29.61 C3.75168819,29.6928246 2.83939999,29.3968976 2.1445598,28.7908006 C1.4497196,28.1847036 1.03264725,27.3210525 0.99,26.4 C1.11671055,24.4453022 2.74120393,22.9258974 4.7,22.93 C5.43225589,22.9366209 6.15229999,23.1183463 6.8,23.46 C6.93038123,23.908254 6.99439416,24.37319 6.99,24.84 L6.82,24.84 C6.53674766,23.8001794 5.54194006,23.1186304 4.47,23.23 C3.73992659,23.2143448 3.03843261,23.5136658 2.54455737,24.0515687 C2.05068212,24.5894716 1.8122081,25.3139141 1.89,26.04 C1.8182693,26.8558457 2.08320203,27.6655501 2.6233144,28.2812027 C3.16342677,28.8968553 3.93175836,29.2649276 4.75,29.3 C5.7593992,29.3745554 6.66538061,28.6832616 6.86,27.69 L7.05,27.69 C7.05214817,28.1548441 6.98128498,28.617142 6.84,29.06 C6.19426581,29.4696331 5.43186399,29.6558418 4.67,29.59 L4.67,29.61 Z M14.3,29.45 C13.7992565,29.4406142 13.298394,29.4606487 12.8,29.51 C12.73,29.51 12.8,29.32 12.8,29.32 C13.25,29.32 13.48,29.32 13.48,29.02 C13.4167776,28.5910601 13.2921675,28.1734482 13.11,27.78 L12.82,27 L10.58,27 L10.24,27.78 C10.0300524,28.1662445 9.88798808,28.5856724 9.82,29.02 C9.82,29.24 10.01,29.29 10.44,29.32 C10.49,29.32 10.51,29.52 10.44,29.51 C10.1287231,29.4653985 9.8144215,29.4453367 9.5,29.45 C9.16552296,29.4386196 8.83071669,29.458708 8.5,29.51 C8.42,29.51 8.5,29.32 8.5,29.32 C9.16,29.32 9.41,28.86 9.9,27.76 L12.03,23.02 C12.0497171,22.9862212 12.0858877,22.9654527 12.125,22.9654527 C12.1641123,22.9654527 12.2002829,22.9862212 12.22,23.02 L14.03,27.76 C14.49,28.95 14.67,29.27 15.49,29.33 C15.49,29.33 15.56,29.52 15.49,29.51 C15.1183554,29.4658193 14.7442376,29.4457773 14.37,29.45 L14.3,29.45 Z M10.76,26.73 L12.76,26.73 L11.85,24.22 L10.76,26.73 Z M21.25,29.5 L19.54,29.5 C18.54,29.5 17.54,29.5 16.82,29.56 C16.73,29.56 16.82,29.37 16.82,29.37 C17.82,29.26 17.82,29.3 17.82,27.82 L17.82,24.88 C17.82,23.39 17.82,23.43 16.82,23.31 C16.82,23.31 16.73,23.12 16.82,23.14 C17.54,23.14 18.5,23.21 19.49,23.21 C20.22,23.21 20.88,23.21 21.49,23.14 C21.434319,23.3246151 21.4106439,23.5173979 21.42,23.71 L21.42,24.08 C21.42,24.16 21.26,24.08 21.25,24.08 C21.18,23.65 20.97,23.52 19.68,23.52 L18.74,23.52 C18.7119302,23.9562156 18.7119302,24.3937844 18.74,24.83 L18.74,26.09 L19.74,26.09 C20.82,26.09 20.74,26.01 20.8,25.76 C20.8577278,25.7366479 20.9222722,25.7366479 20.98,25.76 C20.9379743,25.9605614 20.9178563,26.1650941 20.92,26.37 L20.92,26.75 C20.92,26.82 20.75,26.75 20.74,26.75 C20.68,26.44 20.62,26.33 19.74,26.33 L18.74,26.33 L18.74,27.76 C18.74,29.03 18.9,29.15 19.35,29.15 L19.87,29.15 C21.37,29.15 21.46,29.02 21.6,28.37 L21.78,28.37 C21.78,28.61 21.65,29.08 21.59,29.28 C21.5858398,29.3446107 21.5534306,29.4041086 21.5014047,29.4426463 C21.4493788,29.4811841 21.3830188,29.4948485 21.32,29.48 L21.25,29.5 Z M23.46,28.99 C23.4471037,28.5590993 23.4671621,28.1278433 23.52,27.7 L23.69,27.7 C23.6669532,28.1425119 23.8319747,28.5741576 24.1443482,28.8884358 C24.4567216,29.2027139 24.8873562,29.3703563 25.33,29.35 C25.6569732,29.3866196 25.9842539,29.283874 26.2316289,29.0669452 C26.4790038,28.8500164 26.6236079,28.5389553 26.63,28.21 C26.63,26.58 23.63,26.57 23.63,24.79 C23.6733076,23.7618585 24.5311969,22.9573094 25.56,22.98 C26.0064004,22.9699366 26.4476697,23.0768065 26.84,23.29 C26.989062,23.6291592 27.0409921,24.0030556 26.99,24.37 C26.9287275,24.4079267 26.8512725,24.4079267 26.79,24.37 C26.7266405,23.7086332 26.1418639,23.2220633 25.48,23.28 C25.1900994,23.2523302 24.9013103,23.3429079 24.6791413,23.5311867 C24.4569723,23.7194656 24.3202542,23.9894871 24.3,24.28 C24.3,25.84 27.2,25.81 27.2,27.68 C27.2,28.7845695 26.3045695,29.68 25.2,29.68 C24.5420871,29.6898551 23.904037,29.4545963 23.41,29.02 L23.46,28.99 Z M33.95,29.45 C33.4492526,29.4402411 32.9483681,29.4602765 32.45,29.51 C32.37,29.51 32.45,29.32 32.45,29.32 C32.9,29.32 33.14,29.32 33.14,29.02 C33.0738725,28.5904863 32.9458769,28.1728163 32.76,27.78 L32.46,27.01 L30.22,27.01 L29.87,27.79 C29.6600524,28.1762445 29.5179881,28.5956724 29.45,29.03 C29.45,29.25 29.64,29.3 30.08,29.33 C30.13,29.33 30.15,29.53 30.08,29.52 C29.7687231,29.4753985 29.4544215,29.4553367 29.14,29.46 C28.8055237,29.4486786 28.470723,29.4687667 28.14,29.52 C28.07,29.52 28.14,29.33 28.14,29.33 C28.8,29.33 29.05,28.87 29.54,27.77 L31.67,23.03 C31.6897171,22.9962212 31.7258877,22.9754527 31.765,22.9754527 C31.8041123,22.9754527 31.8402829,22.9962212 31.86,23.03 L33.67,27.77 C34.12,28.96 34.31,29.28 35.12,29.34 C35.12,29.34 35.19,29.53 35.12,29.52 C34.7450297,29.4755554 34.3675684,29.4555132 33.99,29.46 L33.95,29.45 Z M30.39,26.74 L32.39,26.74 L31.46,24.23 L30.39,26.74 Z M39.1,26.61 C38.8413938,26.6439183 38.5808203,26.6606217 38.32,26.66 C38.1935228,26.6697978 38.0664772,26.6697978 37.94,26.66 L37.94,27.81 C37.94,29.22 37.94,29.29 38.86,29.36 C38.86,29.36 38.93,29.56 38.86,29.55 C38.4582499,29.5055643 38.0541753,29.4855275 37.65,29.49 C37.1692314,29.4811309 36.6883643,29.501167 36.21,29.55 C36.13,29.55 36.21,29.36 36.21,29.36 C37.09,29.27 37.13,29.28 37.13,27.81 L37.13,24.81 C37.13,23.71 37.13,23.36 36.55,23.36 C36.4268244,23.3511792 36.3031756,23.3511792 36.18,23.36 C36.18,23.36 36.07,23.21 36.18,23.18 C36.9919076,23.0387539 37.8166366,22.985113 38.64,23.02 C40.07,23.02 41.25,23.46 41.25,24.55 C41.1971385,25.3642214 40.6549645,26.0646944 39.88,26.32 C40.41,27.73 41.95,29.43 43.05,29.43 C43.05,29.43 43.12,29.61 43.05,29.61 C41.1866411,29.6491599 39.5600481,28.3546104 39.18,26.53 L39.1,26.61 Z M38.09,23.31 C38.0279214,23.7638612 38.0045039,24.2221751 38.02,24.68 L38.02,26.31 L38.39,26.31 C39.86,26.31 40.39,25.78 40.39,24.97 C40.4299986,24.4810545 40.2391475,24.0015183 39.874113,23.6737723 C39.5090786,23.3460264 39.0118273,23.2077502 38.53,23.3 L38.09,23.3 L38.09,23.31 Z M44.22,28.99 C44.2071037,28.5590993 44.2271621,28.1278433 44.28,27.7 L44.46,27.7 C44.4369532,28.1425119 44.6019747,28.5741576 44.9143482,28.8884358 C45.2267216,29.2027139 45.6573562,29.3703563 46.1,29.35 C46.4269732,29.3866196 46.7542539,29.283874 47.0016289,29.0669452 C47.2490038,28.8500164 47.3936079,28.5389553 47.4,28.21 C47.4,26.58 44.45,26.57 44.45,24.79 C44.4933076,23.7618585 45.3511969,22.9573094 46.38,22.98 C46.8296219,22.9695792 47.2742083,23.0764178 47.67,23.29 C47.8146807,23.6303859 47.8664422,24.0030692 47.82,24.37 C47.7618247,24.4061482 47.6881753,24.4061482 47.63,24.37 C47.5615332,23.707138 46.9738468,23.2218514 46.31,23.28 C46.0217365,23.2551715 45.7355647,23.347045 45.5156232,23.5350292 C45.2956818,23.7230133 45.1603646,23.9913868 45.14,24.28 C45.14,25.84 48.03,25.81 48.03,27.68 C48.03,28.7845695 47.1345695,29.68 46.03,29.68 C45.3755202,29.6873696 44.7414669,29.4522712 44.25,29.02 L44.22,28.99 Z" id="Shape" fill="#CE2027"></path>
                <path d="M1.34,31.91 L3.78,31.91 L3.78,32.42 L1.92,32.42 L1.92,33.27 L3.56,33.27 L3.56,33.79 L1.92,33.79 L1.92,34.67 L3.8,34.67 L3.8,35.19 L1.34,35.19 L1.34,31.91 L1.34,31.91 Z M5,31.91 L5.53,31.91 L7.29,34.18 L7.29,31.91 L7.86,31.91 L7.86,35.19 L7.37,35.19 L5.56,32.85 L5.56,35.19 L5,35.19 L5,31.91 L5,31.91 Z M9.93,32.44 L8.89,32.44 L8.89,31.91 L11.55,31.91 L11.55,32.44 L10.51,32.44 L10.51,35.19 L9.93,35.19 L9.93,32.44 Z M12.68,31.91 L15.11,31.91 L15.11,32.42 L13.25,32.42 L13.25,33.27 L14.9,33.27 L14.9,33.79 L13.25,33.79 L13.25,34.67 L15.13,34.67 L15.13,35.19 L12.68,35.19 L12.68,31.91 L12.68,31.91 Z" id="Shape" fill="#FFFFFF"></path>
                <path d="M16.33,31.91 L17.79,31.91 C18.1378057,31.8903332 18.4792846,32.0089522 18.74,32.24 C18.9198822,32.4319418 19.0168886,32.6870327 19.01,32.95 C19.0216496,33.4266599 18.6951526,33.8452458 18.23,33.95 L19.11,35.19 L18.46,35.19 L17.65,34.05 L16.93,34.05 L16.93,35.19 L16.36,35.19 L16.36,31.91 L16.33,31.91 Z M17.75,33.53 C17.913601,33.55583 18.0804403,33.5104846 18.2084585,33.405395 C18.3364768,33.3003054 18.4134596,33.1454984 18.42,32.98 C18.4143636,32.8129502 18.3356899,32.6567926 18.204797,32.5528482 C18.0739041,32.4489038 17.9039842,32.4076489 17.74,32.44 L16.9,32.44 L16.9,33.54 L17.75,33.54 L17.75,33.53 Z" id="Shape" fill="#FFFFFF"></path>
                <polygon id="Shape" fill="#FFFFFF" points="20.95 32.44 19.91 32.44 19.91 31.91 22.57 31.91 22.57 32.44 21.53 32.44 21.53 35.19 20.95 35.19 20.95 32.44"></polygon>
                <path d="M24.24,31.89 L24.78,31.89 L26.22,35.19 L25.61,35.19 L25.27,34.4 L23.72,34.4 L23.38,35.19 L22.79,35.19 L24.24,31.89 Z M25.07,33.89 L24.46,32.61 L23.9,33.92 L25.03,33.92 L25.07,33.89 Z" id="Shape" fill="#FFFFFF"></path>
                <path d="M27.15,31.91 L27.73,31.91 L27.73,35.19 L27.15,35.19 L27.15,31.91 Z M29.12,31.91 L29.65,31.91 L31.41,34.18 L31.41,31.91 L31.98,31.91 L31.98,35.19 L31.49,35.19 L29.68,32.85 L29.68,35.19 L29.12,35.19 L29.12,31.91 L29.12,31.91 Z M33.34,31.91 L33.95,31.91 L34.95,33.46 L35.95,31.91 L36.56,31.91 L36.56,35.19 L35.98,35.19 L35.98,32.84 L34.95,34.38 L34.93,34.38 L33.9,32.84 L33.9,35.19 L33.34,35.19 L33.34,31.91 L33.34,31.91 Z M37.92,31.91 L40.35,31.91 L40.35,32.42 L38.5,32.42 L38.5,33.27 L40.14,33.27 L40.14,33.79 L38.5,33.79 L38.5,34.67 L40.37,34.67 L40.37,35.19 L37.92,35.19 L37.92,31.91 L37.92,31.91 Z M41.58,31.91 L42.11,31.91 L43.87,34.18 L43.87,31.91 L44.44,31.91 L44.44,35.19 L43.95,35.19 L42.14,32.85 L42.14,35.19 L41.58,35.19 L41.58,31.91 L41.58,31.91 Z M46.6,32.44 L45.56,32.44 L45.56,31.91 L48.22,31.91 L48.22,32.44 L47.18,32.44 L47.18,35.19 L46.6,35.19 L46.6,32.44 Z" id="Shape" fill="#FFFFFF"></path>
                <path d="M24.62,18.08 C22.04,18.08 20.53,17.62 20.62,14.42 C22.89,15.15 22.47,17.42 24.62,18.08 M22.38,5.51 C20.61,7.11 18.85,5.6 17.19,7.18 C18.49,4.95 19.63,3.87 22.38,5.51" id="Shape" fill="#FFFFFF"></path>
                <path d="M17.25,6.45 C17.59,4.01 16.06,2.67 19.77,0.18 C21.45,3.32 18.63,3.84 17.25,6.45 M20.12,7.01 C19.39,9.28 17.12,8.86 16.46,11.01 C16.46,8.43 16.91,6.92 20.12,7.01" id="Shape" fill="#FFFFFF"></path>
                <path d="M16.15,10.53 C15.22,8.25 13.23,7.85 15.15,3.84 C18.15,5.72 16,7.58 16.15,10.53 M13.06,9.3 C16.62,9.41 15.66,12.12 17.23,14.61 C15.29,13.1 13.36,13.75 13.06,9.3 M13.94,15.1 C17.08,13.41 17.6,16.24 20.21,17.62 C17.77,17.28 16.43,18.81 13.94,15.1" id="Shape" fill="#FFFFFF"></path>
                <path d="M17.76,14.78 C16.48,12.54 16.11,11.01 18.91,9.45 C19.41,11.78 17.23,12.56 17.76,14.78 M19.08,12.16 C20.68,13.93 19.17,15.69 20.75,17.35 C18.52,16.05 17.44,14.91 19.08,12.16 M17.6,19.67 C19.48,16.67 21.34,18.83 24.29,18.67 C22.01,19.6 21.61,21.59 17.6,19.67 M24.95,18.08 C27.53,18.08 29.04,17.62 28.95,14.42 C26.68,15.15 27.1,17.42 24.95,18.08 M27.19,5.51 C28.95,7.11 30.72,5.6 32.38,7.18 C31.08,4.95 29.94,3.87 27.19,5.51" id="Shape" fill="#FFFFFF"></path>
                <path d="M32.32,6.45 C31.98,4.01 33.51,2.67 29.8,0.18 C28.11,3.32 30.94,3.84 32.32,6.45 M29.46,7.01 C30.19,9.28 32.46,8.86 33.12,11.01 C33.12,8.43 32.67,6.92 29.46,7.01" id="Shape" fill="#FFFFFF"></path>
                <path d="M33.46,10.53 C34.39,8.25 36.38,7.85 34.46,3.84 C31.46,5.72 33.61,7.59 33.46,10.53 M36.46,9.3 C32.9,9.41 33.86,12.12 32.29,14.61 C34.24,13.1 36.16,13.75 36.46,9.3 M35.63,15.1 C32.49,13.41 31.97,16.24 29.36,17.62 C31.8,17.28 33.14,18.81 35.63,15.1 M31.81,14.78 C33.09,12.54 33.46,11.01 30.66,9.45 C30.16,11.78 32.34,12.56 31.81,14.78 L31.81,14.78 Z M30.46,12.16 C28.86,13.93 30.36,15.69 28.79,17.35 C31.02,16.05 32.1,14.91 30.46,12.16 L30.46,12.16 Z M31.97,19.67 C30.09,16.67 28.22,18.83 25.28,18.67 C27.56,19.6 27.96,21.59 31.97,19.67 L31.97,19.67 Z" id="Shape" fill="#FFFFFF"></path>
            </g>
        </g>
    </g>
</svg>