<svg xmlns="http://www.w3.org/2000/svg" width="33.6" height="33.624" viewBox="0 0 33.6 33.624">
  <defs>
    <style>
      .cls-1 {
        fill: #cc1c26;
        fill-rule: evenodd;
      }
    </style>
  </defs>
  <path id="fa-file-text-o" class="cls-1" d="M1050.01,715.5a0.7,0.7,0,0,0-.2-0.5l-6.98-6.98a0.784,0.784,0,0,0-.52-0.219,0.688,0.688,0,0,0-.7.7v4.2h-7.7a0.714,0.714,0,0,0-.7.7v4.2a0.714,0.714,0,0,0,.7.7h7.7v4.2a0.722,0.722,0,0,0,.7.7,0.73,0.73,0,0,0,.5-0.2l7-7A0.7,0.7,0,0,0,1050.01,715.5Zm3.5,0a11.9,11.9,0,1,1-11.9-11.9A11.916,11.916,0,0,1,1053.51,715.5Zm4.9,0a16.805,16.805,0,1,0-16.8,16.8A16.8,16.8,0,0,0,1058.41,715.5Z" transform="translate(-1024.81 -698.688)"/>
</svg>
