<!-- Generated by IcoMoon.io -->
<svg version="1.1" xmlns="http://www.w3.org/2000/svg" width="48" height="48" viewBox="0 0 48 48">
<title>lamp7</title>
<path fill="#272727" d="M15 30c-0.012 4.971 4.029 6 9 6s8.988-1.029 9-6 5.988-6.716 6-15-6.716-15-15-15c-8.284 0-14.988 6.716-15 15s6.012 10.029 6 15z"></path>
<path fill="#272727" d="M24 39c-3.702 0-6.778-0.823-7.389-4.547-0.073 0.503-0.111 1.020-0.111 1.547 0 4.971 3.358 6 7.5 6s7.5-1.029 7.5-6c0-0.528-0.038-1.045-0.111-1.547-0.611 3.724-3.687 4.547-7.389 4.547z"></path>
<path fill="#272727" d="M24 45c-2.962 0-5.422-0.823-5.911-4.547-0.058 0.503-0.089 1.020-0.089 1.547 0 4.971 2.686 6 6 6s6-1.029 6-6c0-0.528-0.031-1.045-0.089-1.547-0.489 3.724-2.949 4.547-5.911 4.547z"></path>
</svg>
