<svg id="Layer_1" data-name="Layer 1" xmlns="http://www.w3.org/2000/svg" xmlns:xlink="http://www.w3.org/1999/xlink" viewBox="0 0 450.93 36.1"><defs><style>.cls-1{fill:none;}.cls-2,.cls-5{fill:#fff;}.cls-3{fill:#ce2027;}.cls-4{clip-path:url(#clip-path);}.cls-5{fill-rule:evenodd;}</style><clipPath id="clip-path" transform="translate(-134.54 -270.39)"><path class="cls-1" d="M339.68,298.29h0Z"/></clipPath></defs><title>SG-LogoTrain-BlkBG</title><rect class="cls-2" x="71.13" y="1.08" width="0.36" height="35.02"/><path class="cls-3" d="M138.21,300a3.38,3.38,0,0,1-3.68-3.21,3.71,3.71,0,0,1,3.71-3.47,4.59,4.59,0,0,1,2.1.53,4.78,4.78,0,0,1,.19,1.38s-0.16,0-.17,0a2.2,2.2,0,0,0-2.35-1.61,2.54,2.54,0,0,0-2.58,2.81,3,3,0,0,0,2.86,3.26,2,2,0,0,0,2.11-1.61s0.19,0,.19,0a4.44,4.44,0,0,1-.21,1.37,3.49,3.49,0,0,1-2.17.53" transform="translate(-134.54 -270.39)"/><path class="cls-3" d="M147.84,299.84a12.79,12.79,0,0,0-1.5.06c-0.07,0,0-.19,0-0.19,0.45,0,.68,0,0.68-0.3a4.52,4.52,0,0,0-.37-1.24l-0.29-.78h-2.24l-0.34.78a3.84,3.84,0,0,0-.42,1.24c0,0.22.19,0.27,0.62,0.3,0.05,0,.07.2,0,0.19a6,6,0,0,0-.94-0.06,5.34,5.34,0,0,0-1,.06c-0.08,0,0-.19,0-0.19,0.66,0,.91-0.46,1.4-1.56l2.13-4.74a0.11,0.11,0,0,1,.19,0l1.81,4.74c0.46,1.19.64,1.51,1.46,1.57,0,0,.07.19,0,0.18a8.66,8.66,0,0,0-1.12-.06m-3.61-2.72h2l-0.91-2.51Z" transform="translate(-134.54 -270.39)"/><path class="cls-3" d="M154.79,299.89c-0.37,0-1,0-1.71,0-1,0-2,0-2.72.06-0.09,0,0-.19,0-0.19,1-.11,1-0.07,1-1.55v-2.94c0-1.49,0-1.45-1-1.57,0,0-.09-0.19,0-0.17,0.72,0,1.68.07,2.67,0.07,0.73,0,1.39,0,2-.07a1.69,1.69,0,0,0-.07.57c0,0.1,0,.29,0,0.37s-0.16,0-.17,0c-0.07-.43-0.28-0.56-1.57-0.56h-0.94a10.2,10.2,0,0,0,0,1.31v1.26h1c1.08,0,1-.08,1.06-0.33a0.24,0.24,0,0,1,.18,0,2.83,2.83,0,0,0-.06.61c0,0.11,0,.31,0,0.38s-0.17,0-.18,0c-0.06-.31-0.12-0.42-1-0.42h-1v1.43c0,1.27.16,1.39,0.61,1.39h0.52c1.5,0,1.59-.13,1.73-0.78,0,0,.19,0,0.18,0,0,0.24-.13.71-0.19,0.91a0.22,0.22,0,0,1-.27.2" transform="translate(-134.54 -270.39)"/><path class="cls-3" d="M157,299.38a8.46,8.46,0,0,1,.06-1.29s0.17,0,.17,0a1.57,1.57,0,0,0,1.64,1.65,1.17,1.17,0,0,0,1.3-1.14c0-1.63-3-1.64-3-3.42a1.89,1.89,0,0,1,1.93-1.81,2.56,2.56,0,0,1,1.28.31,2,2,0,0,1,.15,1.08,0.19,0.19,0,0,1-.2,0,1.21,1.21,0,0,0-1.31-1.09,1.08,1.08,0,0,0-1.18,1c0,1.56,2.9,1.53,2.9,3.4a2,2,0,0,1-2,2,2.65,2.65,0,0,1-1.79-.66" transform="translate(-134.54 -270.39)"/><path class="cls-3" d="M167.49,299.84a12.63,12.63,0,0,0-1.5.06c-0.08,0,0-.19,0-0.19,0.45,0,.69,0,0.69-0.3a4.5,4.5,0,0,0-.38-1.24L166,297.4h-2.24l-0.35.78a3.84,3.84,0,0,0-.42,1.24c0,0.22.19,0.27,0.63,0.3,0.05,0,.07.2,0,0.19a6,6,0,0,0-.94-0.06,5.35,5.35,0,0,0-1,.06c-0.07,0,0-.19,0-0.19,0.66,0,.91-0.46,1.4-1.56l2.13-4.74a0.11,0.11,0,0,1,.19,0l1.81,4.74c0.45,1.19.64,1.51,1.45,1.57,0,0,.07.19,0,0.18a8.72,8.72,0,0,0-1.13-.06m-3.6-2.72h2L165,294.62Z" transform="translate(-134.54 -270.39)"/><path class="cls-3" d="M172.64,297a5.89,5.89,0,0,1-.78.05,2.46,2.46,0,0,1-.38,0v1.15c0,1.41,0,1.48.92,1.55,0,0,.07.2,0,0.19a10,10,0,0,0-1.21-.06,12,12,0,0,0-1.44.06c-0.08,0,0-.19,0-0.19,0.88-.09.92-0.08,0.92-1.55v-3c0-1.1,0-1.45-.58-1.45a2.59,2.59,0,0,0-.37,0s-0.11-.15,0-0.18a11.51,11.51,0,0,1,2.46-.16c1.43,0,2.61.44,2.61,1.53a2,2,0,0,1-1.37,1.77c0.53,1.41,2.07,3.11,3.17,3.11,0,0,.07.18,0,0.18a3.87,3.87,0,0,1-3.87-3.08m-1.09-3.22a8.09,8.09,0,0,0-.07,1.37v1.63h0.37c1.47,0,2-.53,2-1.34a1.57,1.57,0,0,0-1.86-1.67l-0.44,0" transform="translate(-134.54 -270.39)"/><path class="cls-3" d="M177.76,299.38a8.46,8.46,0,0,1,.06-1.29s0.18,0,.18,0a1.57,1.57,0,0,0,1.64,1.65,1.17,1.17,0,0,0,1.3-1.14c0-1.63-2.95-1.64-2.95-3.42a1.89,1.89,0,0,1,1.93-1.81,2.59,2.59,0,0,1,1.29.31,2.09,2.09,0,0,1,.15,1.08,0.18,0.18,0,0,1-.19,0,1.22,1.22,0,0,0-1.32-1.09,1.08,1.08,0,0,0-1.17,1c0,1.56,2.89,1.53,2.89,3.4a2,2,0,0,1-2,2,2.65,2.65,0,0,1-1.78-.66" transform="translate(-134.54 -270.39)"/><polygon class="cls-2" points="0.34 31.91 2.78 31.91 2.78 32.42 0.92 32.42 0.92 33.27 2.56 33.27 2.56 33.79 0.92 33.79 0.92 34.67 2.8 34.67 2.8 35.19 0.34 35.19 0.34 31.91"/><polygon class="cls-2" points="4 31.91 4.53 31.91 6.29 34.18 6.29 31.91 6.86 31.91 6.86 35.19 6.37 35.19 4.56 32.85 4.56 35.19 4 35.19 4 31.91"/><polygon class="cls-2" points="8.93 32.44 7.89 32.44 7.89 31.91 10.55 31.91 10.55 32.44 9.51 32.44 9.51 35.19 8.93 35.19 8.93 32.44"/><polygon class="cls-2" points="11.68 31.91 14.11 31.91 14.11 32.42 12.25 32.42 12.25 33.27 13.9 33.27 13.9 33.79 12.25 33.79 12.25 34.67 14.13 34.67 14.13 35.19 11.68 35.19 11.68 31.91"/><path class="cls-2" d="M149.87,302.3h1.46a1.32,1.32,0,0,1,.95.33,1,1,0,0,1,.27.71h0a1,1,0,0,1-.78,1l0.88,1.24H152l-0.81-1.14h-0.72v1.14h-0.57V302.3Zm1.42,1.62a0.58,0.58,0,0,0,.67-0.55h0a0.57,0.57,0,0,0-.68-0.54h-0.84v1.1h0.85Z" transform="translate(-134.54 -270.39)"/><polygon class="cls-2" points="19.95 32.44 18.91 32.44 18.91 31.91 21.57 31.91 21.57 32.44 20.53 32.44 20.53 35.19 19.95 35.19 19.95 32.44"/><path class="cls-2" d="M157.78,302.28h0.54l1.44,3.3h-0.61l-0.34-.79h-1.55l-0.34.79h-0.59Zm0.83,2L158,303l-0.56,1.31h1.13Z" transform="translate(-134.54 -270.39)"/><rect class="cls-2" x="26.15" y="31.91" width="0.58" height="3.28"/><polygon class="cls-2" points="28.12 31.91 28.65 31.91 30.41 34.18 30.41 31.91 30.98 31.91 30.98 35.19 30.49 35.19 28.68 32.85 28.68 35.19 28.12 35.19 28.12 31.91"/><polygon class="cls-2" points="32.34 31.91 32.95 31.91 33.95 33.46 34.95 31.91 35.56 31.91 35.56 35.19 34.98 35.19 34.98 32.84 33.95 34.38 33.93 34.38 32.9 32.84 32.9 35.19 32.34 35.19 32.34 31.91"/><polygon class="cls-2" points="36.92 31.91 39.35 31.91 39.35 32.42 37.5 32.42 37.5 33.27 39.14 33.27 39.14 33.79 37.5 33.79 37.5 34.67 39.37 34.67 39.37 35.19 36.92 35.19 36.92 31.91"/><polygon class="cls-2" points="40.58 31.91 41.11 31.91 42.87 34.18 42.87 31.91 43.44 31.91 43.44 35.19 42.95 35.19 41.14 32.85 41.14 35.19 40.58 35.19 40.58 31.91"/><polygon class="cls-2" points="45.6 32.44 44.56 32.44 44.56 31.91 47.22 31.91 47.22 32.44 46.18 32.44 46.18 35.19 45.6 35.19 45.6 32.44"/><path class="cls-2" d="M158.16,288.47c-2.58,0-4.09-.46-4-3.66,2.27,0.73,1.85,3,4,3.66" transform="translate(-134.54 -270.39)"/><path class="cls-2" d="M155.92,275.9c-1.77,1.6-3.53.09-5.19,1.67,1.3-2.23,2.44-3.31,5.19-1.67" transform="translate(-134.54 -270.39)"/><path class="cls-2" d="M150.79,276.84c0.34-2.44-1.19-3.78,2.52-6.27,1.68,3.14-1.14,3.66-2.52,6.27" transform="translate(-134.54 -270.39)"/><path class="cls-2" d="M153.66,277.4c-0.73,2.27-3,1.85-3.66,4,0-2.58.45-4.09,3.66-4" transform="translate(-134.54 -270.39)"/><path class="cls-2" d="M149.69,280.92c-0.93-2.28-2.92-2.68-1-6.69,3,1.88.85,3.74,1,6.69" transform="translate(-134.54 -270.39)"/><path class="cls-2" d="M146.6,279.69c3.56,0.11,2.6,2.82,4.17,5.31-1.94-1.51-3.87-.86-4.17-5.31" transform="translate(-134.54 -270.39)"/><path class="cls-2" d="M147.48,285.49c3.14-1.69,3.66,1.14,6.27,2.52-2.44-.34-3.78,1.19-6.27-2.52" transform="translate(-134.54 -270.39)"/><path class="cls-2" d="M151.3,285.17c-1.28-2.24-1.65-3.77,1.15-5.33,0.5,2.33-1.68,3.11-1.15,5.33" transform="translate(-134.54 -270.39)"/><path class="cls-2" d="M152.62,282.55c1.6,1.77.09,3.53,1.67,5.19-2.23-1.3-3.31-2.44-1.67-5.19" transform="translate(-134.54 -270.39)"/><path class="cls-2" d="M151.14,290.06c1.88-3,3.74-.84,6.69-1-2.28.93-2.68,2.92-6.69,1" transform="translate(-134.54 -270.39)"/><path class="cls-2" d="M158.49,288.47c2.58,0,4.09-.46,4-3.66-2.27.73-1.85,3-4,3.66" transform="translate(-134.54 -270.39)"/><path class="cls-2" d="M160.73,275.9c1.76,1.6,3.53.09,5.19,1.67-1.3-2.23-2.44-3.31-5.19-1.67" transform="translate(-134.54 -270.39)"/><path class="cls-2" d="M165.86,276.84c-0.34-2.44,1.19-3.78-2.52-6.27-1.69,3.14,1.14,3.66,2.52,6.27" transform="translate(-134.54 -270.39)"/><path class="cls-2" d="M163,277.4c0.73,2.27,3,1.85,3.66,4,0-2.58-.45-4.09-3.66-4" transform="translate(-134.54 -270.39)"/><path class="cls-2" d="M167,280.92c0.93-2.28,2.92-2.68,1-6.69-3,1.88-.85,3.75-1,6.69" transform="translate(-134.54 -270.39)"/><path class="cls-2" d="M170,279.69c-3.56.11-2.6,2.82-4.17,5.31,1.95-1.51,3.87-.86,4.17-5.31" transform="translate(-134.54 -270.39)"/><path class="cls-2" d="M169.17,285.49c-3.14-1.69-3.66,1.14-6.27,2.52,2.44-.34,3.78,1.19,6.27-2.52" transform="translate(-134.54 -270.39)"/><path class="cls-2" d="M165.35,285.17c1.28-2.24,1.65-3.77-1.15-5.33-0.5,2.33,1.68,3.11,1.15,5.33" transform="translate(-134.54 -270.39)"/><path class="cls-2" d="M164,282.55c-1.6,1.77-.1,3.53-1.67,5.19,2.23-1.3,3.31-2.44,1.67-5.19" transform="translate(-134.54 -270.39)"/><path class="cls-2" d="M165.51,290.06c-1.88-3-3.75-.84-6.69-1,2.28,0.93,2.68,2.92,6.69,1" transform="translate(-134.54 -270.39)"/><path class="cls-2" d="M182.06,304.81h0a0.78,0.78,0,0,1,1.56,0h0a0.78,0.78,0,0,1-1.56,0m1.47,0h0a0.69,0.69,0,1,0-1.37,0h0a0.68,0.68,0,0,0,.68.69,0.68,0.68,0,0,0,.69-0.69m-1-.44h0.37a0.35,0.35,0,0,1,.25.09,0.25,0.25,0,0,1,.07.18h0a0.26,0.26,0,0,1-.18.26l0.2,0.3H183l-0.18-.27H182.7v0.27h-0.18v-0.83Zm0.37,0.4a0.12,0.12,0,0,0,.14-0.12h0a0.12,0.12,0,0,0-.15-0.12H182.7v0.24h0.18Z" transform="translate(-134.54 -270.39)"/><path class="cls-2" d="M580.37,301.67a0.24,0.24,0,0,1-.1-0.19,0.25,0.25,0,0,1,.25-0.26,0.23,0.23,0,0,1,.16.06,2.08,2.08,0,0,0,1.44.54,0.88,0.88,0,0,0,1-.78h0c0-.42-0.23-0.67-1.19-0.87s-1.53-.57-1.53-1.31h0a1.35,1.35,0,0,1,1.5-1.24,2.32,2.32,0,0,1,1.45.45,0.26,0.26,0,0,1,.11.21,0.25,0.25,0,0,1-.25.25,0.23,0.23,0,0,1-.15,0,1.91,1.91,0,0,0-1.18-.4,0.84,0.84,0,0,0-1,.74h0c0,0.43.23,0.67,1.24,0.88s1.48,0.59,1.48,1.29h0a1.37,1.37,0,0,1-1.56,1.29,2.66,2.66,0,0,1-1.72-.61m-3.19.07a1.76,1.76,0,0,0,1.89-1.79h0a1.77,1.77,0,0,0-1.89-1.8h-1.07v3.61h1.07Zm-1.58-3.82a0.26,0.26,0,0,1,.25-0.26h1.33a2.27,2.27,0,0,1,2.42,2.27h0a2.28,2.28,0,0,1-2.42,2.28h-1.33a0.26,0.26,0,0,1-.25-0.26v-4ZM572.76,300a1,1,0,0,0,1.17-.94h0a1,1,0,0,0-1.16-.9h-1.41V300h1.4Zm-1.91-2.07a0.26,0.26,0,0,1,.25-0.26h1.71a1.8,1.8,0,0,1,1.3.45,1.27,1.27,0,0,1,.35.9h0a1.33,1.33,0,0,1-1.22,1.32l1.13,1.46a0.29,0.29,0,0,1,.08.19,0.27,0.27,0,0,1-.26.25,0.3,0.3,0,0,1-.24-0.14l-1.28-1.67h-1.31V302a0.26,0.26,0,1,1-.51,0v-4.07Zm-2,2.62-1-2.33-1,2.33h2.1Zm-3.22,1.33,1.85-4a0.34,0.34,0,0,1,.33-0.23h0a0.33,0.33,0,0,1,.32.23l1.85,4a0.33,0.33,0,0,1,0,.13,0.25,0.25,0,0,1-.25.25,0.29,0.29,0,0,1-.26-0.19L569,301h-2.5l-0.48,1.06a0.26,0.26,0,0,1-.25.18,0.24,0.24,0,0,1-.23-0.24,0.3,0.3,0,0,1,0-.14M559,298a0.44,0.44,0,0,1,0-.12,0.27,0.27,0,0,1,.27-0.26,0.3,0.3,0,0,1,.27.22l1.26,3.62,1.19-3.63a0.26,0.26,0,0,1,.25-0.2h0a0.26,0.26,0,0,1,.25.2l1.19,3.63,1.26-3.63a0.27,0.27,0,0,1,.25-0.2,0.27,0.27,0,0,1,.26.26,0.48,0.48,0,0,1,0,.12L564,302a0.29,0.29,0,0,1-.27.22h0a0.29,0.29,0,0,1-.27-0.22l-1.19-3.5L561,302a0.29,0.29,0,0,1-.27.22h0a0.28,0.28,0,0,1-.27-0.22ZM555,302v-4a0.26,0.26,0,0,1,.25-0.26h2.83a0.23,0.23,0,0,1,0,.47h-2.57v1.56h2.28a0.23,0.23,0,1,1,0,.47h-2.28v1.59h2.61a0.24,0.24,0,0,1,0,.47h-2.87A0.26,0.26,0,0,1,555,302m-2.84-2a1,1,0,0,0,1.17-.94h0a1,1,0,0,0-1.16-.9h-1.41V300h1.4Zm-1.91-2.07a0.26,0.26,0,0,1,.25-0.26h1.71a1.8,1.8,0,0,1,1.3.45,1.26,1.26,0,0,1,.35.9h0a1.33,1.33,0,0,1-1.22,1.32l1.13,1.46a0.28,0.28,0,0,1,.09.19,0.27,0.27,0,0,1-.26.25,0.3,0.3,0,0,1-.24-0.14l-1.28-1.67h-1.31V302a0.26,0.26,0,1,1-.51,0v-4.07Z" transform="translate(-134.54 -270.39)"/><path class="cls-2" d="M584.54,298.48a0.46,0.46,0,1,1,.46.46,0.46,0.46,0,0,1-.46-0.46m0.86,0a0.39,0.39,0,1,0-.39.39,0.39,0.39,0,0,0,.39-0.39m-0.17.25h-0.09L585,298.5H584.9v0.23h-0.07v-0.51H585a0.14,0.14,0,0,1,.18.13,0.14,0.14,0,0,1-.16.14Zm-0.24-.3c0.06,0,.17,0,0.17-0.07s-0.07-.06-0.12-0.06H584.9v0.13H585Z" transform="translate(-134.54 -270.39)"/><path class="cls-2" d="M574.77,291.92a0.26,0.26,0,1,1,.52,0v3.85h2.36a0.24,0.24,0,0,1,.24.24,0.23,0.23,0,0,1-.24.24H575a0.26,0.26,0,0,1-.26-0.26v-4.07Zm-2,2.65-1-2.33-1,2.33h2.1Zm-3.22,1.33,1.85-4a0.33,0.33,0,0,1,.32-0.23h0a0.33,0.33,0,0,1,.32.23l1.85,4a0.43,0.43,0,0,1,0,.13,0.25,0.25,0,0,1-.25.25,0.28,0.28,0,0,1-.26-0.19l-0.47-1h-2.5L570,296.1a0.26,0.26,0,0,1-.25.18,0.23,0.23,0,0,1-.23-0.23,0.3,0.3,0,0,1,0-.14m-1.89-3.74H566.3a0.24,0.24,0,0,1-.24-0.23,0.25,0.25,0,0,1,.24-0.24h3.16a0.24,0.24,0,0,1,.24.24,0.24,0.24,0,0,1-.24.23h-1.32V296a0.26,0.26,0,1,1-.52,0v-3.85ZM565.35,294h0a1.81,1.81,0,0,0-1.8-1.88,1.79,1.79,0,0,0-1.78,1.87h0a1.81,1.81,0,0,0,1.8,1.88,1.79,1.79,0,0,0,1.78-1.87m-4.11,0h0a2.31,2.31,0,0,1,2.33-2.35,2.28,2.28,0,0,1,2.32,2.34h0a2.32,2.32,0,1,1-4.65,0M559,292.16h-1.32a0.24,0.24,0,0,1-.24-0.23,0.25,0.25,0,0,1,.24-0.24h3.16a0.24,0.24,0,0,1,.24.24,0.24,0.24,0,0,1-.24.23H559.5V296a0.26,0.26,0,1,1-.52,0v-3.85Z" transform="translate(-134.54 -270.39)"/><path class="cls-2" d="M400.94,294.45a1.29,1.29,0,0,1-.74,1.18,1,1,0,0,1-.61.06,1,1,0,0,1,0-.93,1.74,1.74,0,0,1,1.23-.48Z" transform="translate(-134.54 -270.39)"/><path class="cls-2" d="M398.76,295.76c-0.73.75-1.32,1.61-2,2.41a1,1,0,0,0,.4.89,0.76,0.76,0,0,0,.54-0.05,14.55,14.55,0,0,0,1.71-2.16V296a0.42,0.42,0,0,0-.62-0.28" transform="translate(-134.54 -270.39)"/><path class="cls-2" d="M403.29,295.91a0.51,0.51,0,0,1-.19.45,6.29,6.29,0,0,0-2.22,1.37,2.72,2.72,0,0,0,1.31-.15,5.74,5.74,0,0,0,2.25-1.51c-0.39-.11-0.8,0-1.15-0.17m2-.91a2.26,2.26,0,0,1,.44,1.83,6.48,6.48,0,0,1-3.11,1.82c-0.78.17-1.69,0.59-2.53,0.17a2.41,2.41,0,0,1-.58-1.4,2.58,2.58,0,0,1,1.15-1.17c0.63-.48,1.35-0.74,2-1.15a0.28,0.28,0,0,1,.2-0.18l0.31,0.59a4.29,4.29,0,0,1,1.93-.66Z" transform="translate(-134.54 -270.39)"/><path class="cls-2" d="M394.4,296.86a23.05,23.05,0,0,0-6.58,2.13,1.67,1.67,0,0,1-1.15.2,2.84,2.84,0,0,0,.52,1.25,0.88,0.88,0,0,0,.47,0,34.32,34.32,0,0,1,6.5-2.36,1.78,1.78,0,0,1,.94,0c0,0.06,0,.12,0,0.14a11.8,11.8,0,0,1-3.11,2.14,1.75,1.75,0,0,0,.18,1c0.22,0.68,1,.42,1.53.43a27.47,27.47,0,0,1,10.73-.6,4.21,4.21,0,0,1,2,.73c0.17-.52.81-1.36,0.2-1.71a21.3,21.3,0,0,0-8.71-.55c-1.33.15-2.61,0.41-3.92,0.68a6.38,6.38,0,0,0,2.14-1.61,1.85,1.85,0,0,0,0-1.29,1.64,1.64,0,0,0-1.69-.58" transform="translate(-134.54 -270.39)"/><path class="cls-2" d="M390.93,299.4c-0.71,1.13-1.61,2.1-2.4,3.21a0.76,0.76,0,0,0,.27.79,0.85,0.85,0,0,0,1.07-.26l1.24-1.79a2.78,2.78,0,0,0,.54-1.63c-0.1-.29-0.46-0.64-0.74-0.31" transform="translate(-134.54 -270.39)"/><path class="cls-2" d="M406.5,298.21c0.1,0,.18,0,0.18-0.13s-0.08-.08-0.15-0.08h-0.15v0.21h0.12Zm-0.12.43h-0.13V297.9h0.29c0.18,0,.26.05,0.26,0.2a0.19,0.19,0,0,1-.2.2l0.21,0.33H406.7l-0.2-.31h-0.12v0.31Zm0.12,0.18a0.55,0.55,0,1,0-.52-0.54,0.52,0.52,0,0,0,.52.54m-0.64-.54a0.65,0.65,0,1,1,.64.63,0.63,0.63,0,0,1-.64-0.63" transform="translate(-134.54 -270.39)"/><polygon class="cls-2" points="290.86 3.92 290.86 2.69 292.33 2.69 292.33 3.99 292.73 3.92 292.73 1.12 292.33 1.12 292.33 2.31 290.86 2.31 290.86 1.12 290.47 1.12 290.48 3.99 290.86 3.92"/><polygon class="cls-2" points="296.7 3.6 295.23 3.6 295.23 2.7 296.4 2.7 296.4 2.31 295.23 2.31 295.23 1.5 296.56 1.5 296.56 1.12 294.85 1.12 294.85 3.98 296.5 3.98 296.7 3.6"/><polygon class="cls-2" points="287.26 3.99 287.65 3.92 287.65 1.51 288.58 1.51 288.58 1.12 286.35 1.12 286.35 1.51 287.26 1.51 287.26 3.99"/><path class="cls-2" d="M413.81,277.54c0-.87-0.67-1.31-2-1.31h-0.36v4.46H412V279l1.56,1.69,0.43-.3-1.49-1.58a1.51,1.51,0,0,0,1.31-1.31m-0.52,0c0,0.56-.42.85-1.29,0.91v-1.67h0c0.21,0,1.29,0,1.29.76" transform="translate(-134.54 -270.39)"/><path class="cls-2" d="M408.14,276.64a1.73,1.73,0,0,1,1.07.38l0.12,0.09,0.37-.4-0.14-.11a2.36,2.36,0,0,0-1.45-.49,2.29,2.29,0,0,0,0,4.59,2.36,2.36,0,0,0,1.42-.49l0.14-.11-0.34-.37-0.11.08a1.81,1.81,0,0,1-1.1.37,1.77,1.77,0,0,1,0-3.55" transform="translate(-134.54 -270.39)"/><path class="cls-2" d="M417.51,276.12a2.29,2.29,0,1,0,2.3,2.29,2.3,2.3,0,0,0-2.3-2.29m1.77,2.29a1.77,1.77,0,1,1-1.77-1.77,1.78,1.78,0,0,1,1.77,1.77" transform="translate(-134.54 -270.39)"/><polygon class="cls-2" points="298.71 8.31 300.82 8.31 300.82 7.78 298.71 7.78 298.71 6.36 301.02 6.36 301.02 5.83 298.17 5.83 298.17 10.36 301 10.36 301.28 9.83 298.71 9.83 298.71 8.31"/><polygon class="cls-2" points="303.8 5.83 303.27 5.83 303.27 10.37 306.01 10.37 306.29 9.83 303.8 9.83 303.8 5.83"/><polygon class="cls-2" points="308.67 9.83 308.68 5.83 308.14 5.83 308.14 10.37 310.88 10.37 311.16 9.83 308.67 9.83"/><polygon class="cls-2" points="294.76 9.28 294.23 8.01 295.12 5.82 294.55 5.82 293.96 7.34 293.36 5.82 292.78 5.82 293.69 8.02 293.15 9.3 291.7 5.86 291.68 5.82 291.09 5.82 293.09 10.34 293.16 10.48 293.96 8.66 294.77 10.49 296.67 5.92 296.71 5.82 296.13 5.82 294.76 9.28"/><polygon class="cls-2" points="289.81 5.72 289 7.55 288.19 5.71 286.29 10.29 286.25 10.39 286.83 10.39 288.2 6.93 288.73 8.2 287.88 10.29 287.84 10.39 288.42 10.39 289 8.87 289.6 10.39 290.19 10.39 289.28 8.19 289.81 6.91 291.26 10.35 291.28 10.39 291.88 10.39 289.87 5.87 289.81 5.72"/><path class="cls-2" d="M310.63,294.06a2.4,2.4,0,0,1,0,1.7,1.58,1.58,0,0,1-1,.62h-0.11a0.46,0.46,0,0,1-.1-0.08,0.41,0.41,0,0,1-.09-0.16c0-.94,1.1-1.33,1-2.27a0.24,0.24,0,0,1,.25.2" transform="translate(-134.54 -270.39)"/><path class="cls-2" d="M314,297.8a1.68,1.68,0,0,1-.76,1.55,0.71,0.71,0,0,1-.8,0,0.33,0.33,0,0,1-.11-0.3,0.55,0.55,0,0,1,.27-0.33,2.81,2.81,0,0,0,.51,0,0.79,0.79,0,0,0,.34-0.56,1.38,1.38,0,0,0-1.24.57c-0.5.52-1.12,1.13-.82,1.88s1.13,1.39.87,2a7,7,0,0,1-1.39,1.54,5.63,5.63,0,0,1-.67.48,1.78,1.78,0,0,1-.95.24,0.73,0.73,0,0,1-.64-0.41,2.7,2.7,0,0,1,.55-1.59,0.72,0.72,0,0,1,.43,0,0.35,0.35,0,0,1,.21.21,0.8,0.8,0,0,0-.21.48,0.6,0.6,0,0,0,.07.63,2.52,2.52,0,0,0,1.46-1.31,2.38,2.38,0,0,0-.55-2,1.37,1.37,0,0,1,.09-1.38,6.07,6.07,0,0,1,1.2-1.24,4.18,4.18,0,0,1,1.55-.77,0.66,0.66,0,0,1,.6.4" transform="translate(-134.54 -270.39)"/><path class="cls-2" d="M307,298.74a0.75,0.75,0,0,1,.37.48,15.29,15.29,0,0,1-.27,1.76,0.43,0.43,0,0,0,.23.27,1.11,1.11,0,0,1,.66.16,0.32,0.32,0,0,1-.15.27,1.35,1.35,0,0,1-1.25,0,2.4,2.4,0,0,1-.15-1l0.11-1.16a0.24,0.24,0,0,0-.23-0.17c-0.38-.2-0.52.23-0.74,0.43-0.43.6-.71,1.67-1.05,2l-1.73,1.53a0.55,0.55,0,0,1-.47,0,8.88,8.88,0,0,1-.3-1.2,0.07,0.07,0,0,0-.06.08,8.3,8.3,0,0,1-.58,1.59,0.08,0.08,0,0,1,0,.05,1.06,1.06,0,0,1-.55.48,0.57,0.57,0,0,1-.24.12,0.31,0.31,0,0,1-.31-0.14,2.93,2.93,0,0,1-.27-1.65,4,4,0,0,1,1.12-3,2,2,0,0,1,.89-0.51,0.84,0.84,0,0,1,.47.44,0.72,0.72,0,0,1-.52.49l-0.08,0,0,0a0.7,0.7,0,0,0-.67.34,4.06,4.06,0,0,0-.37,2.37,0.79,0.79,0,0,1,.2.3c0.43-.63.21-1.52,0.78-2.07a1.32,1.32,0,0,1,.52-0.22,0.3,0.3,0,0,1,.32.18,3.76,3.76,0,0,0,.21,1.18,8.16,8.16,0,0,0,2.71-3.4,1.44,1.44,0,0,1,1.07-.11Z" transform="translate(-134.54 -270.39)"/><path class="cls-2" d="M309.84,299.37c0,0.35-.41.53-0.48,0.87a7.73,7.73,0,0,1-.44,1.71c-0.33,0-.21-0.36-0.33-0.54,0-.74.38-1.35,0.23-2.08a0.52,0.52,0,0,1,.37-0.38,1.08,1.08,0,0,1,.65.42" transform="translate(-134.54 -270.39)"/><path class="cls-2" d="M301.32,292.67a3.84,3.84,0,0,0-1.67.86l-0.16.12,0,0a11.06,11.06,0,0,0-1.9,2.58,8,8,0,0,0-.72,2.07,15.24,15.24,0,0,0-.18,2.12,6,6,0,0,0,.06,1l0.11,0.77a13.54,13.54,0,0,0,.72,2.84v0h0a0.69,0.69,0,0,1,.09.22,0.51,0.51,0,0,0,.51.49h0.05l0.09-.05a0.91,0.91,0,0,0,.28-0.28,0.4,0.4,0,0,0,.06-0.22,0.51,0.51,0,0,0-.08-0.26l0-.09a6.35,6.35,0,0,0-.34-0.94,9.27,9.27,0,0,1-.34-0.91s-0.13-.72-0.13-0.72a8.4,8.4,0,0,1-.19-1.38,3.36,3.36,0,0,1,0-.54,9.49,9.49,0,0,1,.64-3.54,11.92,11.92,0,0,1,1.36-2.19,4.09,4.09,0,0,1,1.55-1.17l0.18-.06c0.28-.06.41-0.1,0.49,0a0.68,0.68,0,0,1,.11.38,2.16,2.16,0,0,1-.17.74,15.89,15.89,0,0,1-1.07,2.13v0l-0.14.21c0,0.1-.12.2-0.17,0.32s-0.35.49-.35,0.49c-0.28.41-.56,0.8-0.82,1.2,0,0-.2.32-0.2,0.32a8.26,8.26,0,0,1-.62.85h0l0,0-0.18.27a1.37,1.37,0,0,0-.4.81v0h0a0.33,0.33,0,0,0,.34.27h0.06l0.06-.07a2.8,2.8,0,0,0,1-.86v0h0a10.84,10.84,0,0,1,1.24-2.17c0.25-.39.52-0.8,0.74-1.21l0-.07a18.69,18.69,0,0,0,1.2-2.5,2.14,2.14,0,0,0,0-1.47v0h0a1.14,1.14,0,0,0-1.08-.48" transform="translate(-134.54 -270.39)"/><path class="cls-2" d="M314.81,297.49a0.46,0.46,0,1,1,.46.46,0.46,0.46,0,0,1-.46-0.46m0.86,0a0.39,0.39,0,1,0-.39.39,0.39,0.39,0,0,0,.39-0.39m-0.17.25h-0.09l-0.15-.23h-0.09v0.23h-0.07v-0.51h0.22a0.14,0.14,0,0,1,.18.13,0.14,0.14,0,0,1-.16.14Zm-0.24-.3c0.06,0,.17,0,0.17-0.07s-0.07-.06-0.12-0.06h-0.14v0.13h0.09Z" transform="translate(-134.54 -270.39)"/><path class="cls-2" d="M321.89,275.78l1.31-.54a1.06,1.06,0,0,0-.18-0.15,1.64,1.64,0,0,0-.52-0.23Z" transform="translate(-134.54 -270.39)"/><path class="cls-2" d="M321.81,276h0a0.93,0.93,0,0,1,.26.82v3.93h1.56v-3.68a3.07,3.07,0,0,0-.28-1.64l0-.06Z" transform="translate(-134.54 -270.39)"/><path class="cls-2" d="M321.57,275.93a1,1,0,0,0-1,.26v4.6h-1.69v-8h1.69v2.17a5.08,5.08,0,0,1,1.69-.11Z" transform="translate(-134.54 -270.39)"/><path class="cls-2" d="M306.42,274.76a1.27,1.27,0,0,1,1.45,1.25v4.78h-2.65a2,2,0,0,1-2.08-2.18c0-1.73,1.6-1.86,2.41-1.9s0.76-.24.76-0.45-0.13-.38-0.76-0.38h-1.69v-1.12h2.57m-1.64,4.15a0.78,0.78,0,0,0,.59.85c0.13,0,.72.13,0.8-0.34v-1.69c-1.56,0-1.39.55-1.39,1.18" transform="translate(-134.54 -270.39)"/><path class="cls-2" d="M317,274.76a1.27,1.27,0,0,1,1.45,1.25v4.78h-2.65a2,2,0,0,1-2.08-2.18c0-1.73,1.6-1.86,2.41-1.9s0.76-.24.76-0.45-0.13-.38-0.76-0.38h-1.69v-1.12H317m-1.64,4.15a0.78,0.78,0,0,0,.59.85c0.13,0,.72.13,0.8-0.34v-1.69c-1.56,0-1.39.55-1.39,1.18" transform="translate(-134.54 -270.39)"/><polygon class="cls-2" points="166.5 2.36 166.5 4.37 164.85 4.37 164.85 2.36 163.16 2.36 163.16 10.4 164.85 10.4 164.85 5.71 166.5 5.71 166.5 10.4 168.19 10.4 168.19 2.36 166.5 2.36"/><path class="cls-2" d="M309.85,276.27c0-.21.13-0.38,0.76-0.38H311v-1.13h-1.23a1.27,1.27,0,0,0-1.45,1.25v4.78h1.56v-4.53" transform="translate(-134.54 -270.39)"/><path class="cls-2" d="M312.93,276.27c0-.21.13-0.38,0.76-0.38H314v-1.13h-1.23a1.27,1.27,0,0,0-1.45,1.25v4.78h1.56s0-4.5,0-4.53" transform="translate(-134.54 -270.39)"/><path class="cls-2" d="M324.06,279a3.82,3.82,0,0,0,1.59.53c0.46,0,.64-0.21.62-0.51s-0.18-.44-0.75-0.63a1.84,1.84,0,0,1,.37-3.66,2.81,2.81,0,0,1,1.38.26l-0.18,1.25A2.15,2.15,0,0,0,326,276a0.48,0.48,0,0,0-.55.49c0,0.28.21,0.41,0.83,0.62a1.8,1.8,0,0,1,1.42,1.7,1.84,1.84,0,0,1-2,2,3.31,3.31,0,0,1-1.67-.32V279Z" transform="translate(-134.54 -270.39)"/><path class="cls-2" d="M324.36,275.24l-0.08-.41,1-.4-1.15-.46-0.24-1.26-0.61.92-1.51-.61,1,1.39-1,1.45,1.56-.64,0.64,0.61a1.65,1.65,0,0,1,.38-0.59" transform="translate(-134.54 -270.39)"/><path class="cls-2" d="M328.07,280.15a0.46,0.46,0,1,1,.46.46,0.46,0.46,0,0,1-.46-0.46m0.86,0a0.39,0.39,0,1,0-.39.39,0.39,0.39,0,0,0,.39-0.39m-0.17.25h-0.09l-0.15-.23h-0.09v0.23h-0.07V279.9h0.22a0.14,0.14,0,0,1,.18.13,0.14,0.14,0,0,1-.16.14Zm-0.24-.3c0.06,0,.17,0,0.17-0.07s-0.07-.06-0.12-0.06h-0.14v0.13h0.09Z" transform="translate(-134.54 -270.39)"/><path class="cls-2" d="M228.66,299.18l0.07-.23h2.19a4.54,4.54,0,0,1,2.17,1.35,17.29,17.29,0,0,1,1.63,2.1l0.94-2.71s0.21-.37-0.35-0.43a3.93,3.93,0,0,1-.62-0.08l0.09-.21h2.3l-0.05.21a1.15,1.15,0,0,0-.67.21c-0.15.2-1.39,4.15-1.39,4.15h-1.09a11.69,11.69,0,0,0-1.29-2.31,8,8,0,0,0-1.59-1.46l-0.93,3a0.3,0.3,0,0,0,.17.41c0.09,0,.53.09,0.53,0.09l0,0.25h-2.56l0.09-.27a0.94,0.94,0,0,0,.88-0.39c0.22-.52,1.35-3.36,1.35-3.36a1.59,1.59,0,0,0-1-.32l-0.84,0" transform="translate(-134.54 -270.39)"/><path class="cls-2" d="M246.42,302.34a1.18,1.18,0,0,1-1,.87,3.86,3.86,0,0,1-1.2,0,0.31,0.31,0,0,1-.3-0.41l0.39-1.56s0.93,0,1.37,0a0.85,0.85,0,0,1,.76,1m-1.53-3.14h0.9a0.76,0.76,0,0,1,.92.91,1.37,1.37,0,0,1-1.18.85c-0.42,0-1.14,0-1.14,0Zm1.4,1.9s1.53-.34,1.53-1.13c0-1-1.2-1-1.44-1s-3.28,0-3.28,0l-0.09.23,0.6,0a0.24,0.24,0,0,1,.2.34s-0.93,3-1,3.32a0.47,0.47,0,0,1-.32.39l-0.69.05-0.09.21,2.77,0a7.11,7.11,0,0,0,1.51-.14c0.48-.09,1.63-0.53,1.63-1.24s-1.31-1.05-1.31-1.05" transform="translate(-134.54 -270.39)"/><path class="cls-2" d="M249.5,300.29a6.81,6.81,0,0,1,.38-1,0.31,0.31,0,0,1,.32-0.12h0.58l0-.21H248l-0.05.19s0.21,0,.54,0,0.24,0.38.17,0.64a16.71,16.71,0,0,0-.69,2.57c0,0.43.39,1.07,1.61,1.18a3.36,3.36,0,0,0,3.23-1.13A2,2,0,0,0,253,302l0.79-2.56a0.39,0.39,0,0,1,.43-0.25h0.54l0-.21h-2.3l-0.1.21s0.26,0,.51,0c0,0,.38,0,0.3.28-0.25.79-.45,1.58-0.72,2.35a1.78,1.78,0,0,1-1,1.13,3,3,0,0,1-1.61.2,1,1,0,0,1-1-.78,8,8,0,0,1,.51-2.08" transform="translate(-134.54 -270.39)"/><path class="cls-2" d="M257.2,298.94h2.15l0,0.17a0.63,0.63,0,0,0-.71.55L258.26,301h2l0.24-1a2,2,0,0,0,.08-0.51c0-.25-0.2-0.34-0.58-0.36l0-.17h2l0,0.17a0.53,0.53,0,0,0-.57.46l-0.68,2.87a1.82,1.82,0,0,0-.09.51c0,0.3.27,0.35,0.56,0.36l0,0.17h-2.17l0-.17a0.6,0.6,0,0,0,.71-0.46l0.35-1.49h-2a12.22,12.22,0,0,0-.34,1.6c0,0.3.28,0.35,0.58,0.36l0,0.17h-2l0-.17a0.54,0.54,0,0,0,.59-0.46l0.68-2.87a1.84,1.84,0,0,0,.09-0.51c0-.3-0.28-0.35-0.58-0.36Z" transform="translate(-134.54 -270.39)"/><path class="cls-2" d="M263.17,302.3a0.93,0.93,0,0,0,1,1c1.19,0,1.92-1.77,1.92-3.21a0.93,0.93,0,0,0-1-1.05c-1.19,0-1.92,1.77-1.92,3.21m3.76-1.68a3,3,0,0,1-2.87,3,1.63,1.63,0,0,1-1.78-1.79,3,3,0,0,1,2.87-3,1.63,1.63,0,0,1,1.78,1.79" transform="translate(-134.54 -270.39)"/><path class="cls-2" d="M267.77,303.33a0.82,0.82,0,0,0,.81-0.76l0.84-3.35h-0.47a1.32,1.32,0,0,0-1.39.91h-0.2l0.5-1.19h4.07l-0.12,1.24h-0.18a0.83,0.83,0,0,0-1-1h-0.39c-0.47,2.13-.87,3.37-0.87,3.74s0.28,0.35.65,0.36l0,0.17h-2.31Z" transform="translate(-134.54 -270.39)"/><path class="cls-2" d="M276.24,300.11c-0.06-.74-0.25-0.89-1.17-0.89-0.72,0-.8.07-0.87,0.35L273.84,301c1.24,0,1.05-.15,1.26-0.64h0.22L274.89,302h-0.18c0-.73.27-0.78-0.63-0.78h-0.31a13.22,13.22,0,0,0-.37,1.65c0,0.23.11,0.31,0.68,0.31a1.78,1.78,0,0,0,1.88-.9h0.22l-0.36,1.18h-3.91l0-.17a0.53,0.53,0,0,0,.56-0.46L273.2,300a1.79,1.79,0,0,0,.08-0.51c0-.3-0.28-0.35-0.57-0.36l0-.18h3.89l-0.19,1.17h-0.21Z" transform="translate(-134.54 -270.39)"/><path class="cls-2" d="M280.15,298.94l0,0.17a0.59,0.59,0,0,0-.72.55c-0.52,2.21-.76,2.9-0.76,3.24s0.11,0.31.68,0.31a1.79,1.79,0,0,0,1.88-.9h0.22L281,303.49h-3.92l0-.17a0.54,0.54,0,0,0,.57-0.46l0.69-2.87a2,2,0,0,0,.08-0.51c0-.3-0.28-0.35-0.55-0.36l0-.17h2.14Z" transform="translate(-134.54 -270.39)"/><path class="cls-2" d="M239.09,304.19H239a0.23,0.23,0,0,1-.06,0l-0.05,0-0.06,0h-0.09l-0.11,0,0,0-0.08,0a0.32,0.32,0,0,1-.12,0l0,0h0a1.72,1.72,0,0,0-.29-0.11,2.09,2.09,0,0,1-.32-0.14,4,4,0,0,1-.61-0.38,1.43,1.43,0,0,1-.25-0.25l-0.14-.17c-0.05-.06-0.08-0.14-0.13-0.21a1.36,1.36,0,0,1-.2-0.33,1.47,1.47,0,0,1-.08-0.38c0-.11,0-0.23,0-0.34a2.47,2.47,0,0,1,0-.36c0-.11,0-0.22,0-0.34s0-.22,0-0.33,0.07-.18.09-0.28,0.08-.17.11-0.27a2.14,2.14,0,0,1,.94-0.87h0a0.54,0.54,0,0,0-.12.16h0l0.11-.1h0a0.52,0.52,0,0,0-.06.13,0.08,0.08,0,0,1,0,0,0.16,0.16,0,0,1,0,0l-0.1.07-0.05.07a2.42,2.42,0,0,0-.21.39,1.21,1.21,0,0,0-.07.14s0,0,0,0l0,0.06h0l0,0,0-.09L237,300h0s0,0,0,0l-0.07.18s-0.05.15-.05,0.17a0.12,0.12,0,0,0,0,0,0.11,0.11,0,0,1,0,0h0a5.83,5.83,0,0,1,.61-1,0.26,0.26,0,0,0,0-.11,0.21,0.21,0,0,1,.07-0.05l0,0,0,0,0,0a3.63,3.63,0,0,1,.69-0.52,2.8,2.8,0,0,1,1.24-.29,2.68,2.68,0,0,1,2.73,2.62,2.5,2.5,0,0,1-.2,1l0,0a0.45,0.45,0,0,1,0,.11,1,1,0,0,0-.13.23c0,0.07-.08.11-0.07,0.14a0.45,0.45,0,0,1-.08.14,0.19,0.19,0,0,1,0,.06s0,0,0,0,0,0,0,.06a0.41,0.41,0,0,1,0,0,0.33,0.33,0,0,0-.1.09h0s0,0,0,0l0,0a0.11,0.11,0,0,0,0,0,1.87,1.87,0,0,1-.39.32l-0.18.13a0.33,0.33,0,0,1-.13.07l-0.15.07a1.16,1.16,0,0,1-.26.11h-0.13l-0.1,0s0,0-.07,0h0l-0.12,0h-0.15l-0.11,0h-0.14a0.06,0.06,0,0,0-.06,0h-0.05a0,0,0,0,0,0,0h0.06s0,0,0,0h-0.18l-0.18,0a0,0,0,0,0,0,0,0.22,0.22,0,0,0,.14,0h0l0.08,0,0.14,0h0l-0.13,0h-0.3l-0.09,0m-0.24-.21h-0.1v0h0v0h0v0h0a0,0,0,0,0,0,0h0m-0.28,0h0l0,0h0Zm0.91,0a0,0,0,0,0,0,0,0,0,0,0,0,0,0,0,0,0,0,0,0,0h0m-0.26,0a0,0,0,0,0,0,0h0a0,0,0,0,0,0,0h0Zm0.18,0h0s0,0,0,0h0s0,0,0,0m-0.32,0h0Zm0.53-5a2.23,2.23,0,0,0-1.54.61,2,2,0,0,0,0,2.95,2.25,2.25,0,0,0,3.08,0,2,2,0,0,0,0-2.95,2.22,2.22,0,0,0-1.54-.61m0.06,5.15h0a0,0,0,0,1,0,0h0.06l0,0h0l0,0h0.09l0.09,0H240l-0.06,0h-0.09a0.19,0.19,0,0,0-.06,0h-0.05l0,0h0m0.44-.09h0s0,0,0,0l0.09,0h0.16s0,0,0,0l-0.19.05-0.1,0m1.6-1h0l0,0h0l0,0h0Zm0.09-.1h0l0,0a0,0,0,0,0,0,0l0,0h0l0,0,0,0,0,0h0m0.1-.1v0l0,0h0v0h0Zm-0.08,0h0l0,0h0Zm0.12,0s0,0,0,0l0.06-.08h0a0.06,0.06,0,0,1,0,0l0,0.05h0m-0.07,0h0v0h0v0Zm0,0h0v0l0,0h0Zm0.24-.46h0v0h0Zm0.12-.11h0v-0.07h0a0.09,0.09,0,0,1,0,.07m0-.11h0a0.17,0.17,0,0,1,0-.06,0.18,0.18,0,0,0,0-.08,0.13,0.13,0,0,1,0-.06h0s0,0.12,0,.14l0,0.06h0" transform="translate(-134.54 -270.39)"/><polygon class="cls-2" points="122.07 8.12 122.07 8.11 120.29 6.34 121.2 5.44 120.25 4.5 119.35 5.4 118.36 6.39 120.14 8.17 118.96 9.35 119.93 10.32 122.1 8.14 122.07 8.12"/><polygon class="cls-2" points="139.95 8.11 139.95 8.11 138.17 6.34 139.07 5.44 138.13 4.5 137.23 5.4 136.24 6.39 138.01 8.17 136.84 9.35 137.81 10.32 139.98 8.14 139.95 8.11"/><polygon class="cls-2" points="104.03 9.36 102.09 7.41 104.03 5.47 103.1 4.54 100.22 7.42 101.15 8.35 101.16 8.34 103.11 10.3 104.03 9.36"/><polygon class="cls-2" points="116.21 9.36 114.78 7.94 116.12 7.94 116.12 6.89 114.79 6.89 116.2 5.47 115.27 4.54 112.4 7.42 113.32 8.35 113.33 8.34 115.28 10.3 116.21 9.36"/><path class="cls-2" d="M244.42,280.65l1.28-.51-1.87-4.84h-1.39l-1.88,4.84,1.32,0.51,0.34-.9h1.85Zm-1.78-2,0.49-1.29,0.5,1.29h-1Z" transform="translate(-134.54 -270.39)"/><path class="cls-2" d="M261.88,280.65l1.28-.51-1.88-4.84h-1.39L258,280.14l1.31,0.51,0.34-.9h1.85Zm-1.78-2,0.49-1.29,0.5,1.29h-1Z" transform="translate(-134.54 -270.39)"/><path class="cls-2" d="M268.89,279.68l-1.12,1-1.32-1.39v0.84l-1.39.55V275.3h2.1l1.47,1.37v1.09l-0.79.79ZM266.46,278l0.81-.73-0.81-.73V278Z" transform="translate(-134.54 -270.39)"/><path class="cls-2" d="M273.88,280.3a0.46,0.46,0,1,1,.46.46,0.46,0.46,0,0,1-.46-0.46m0.86,0a0.39,0.39,0,1,0-.39.39,0.39,0.39,0,0,0,.39-0.39m-0.17.25h-0.09l-0.15-.23h-0.09v0.23h-0.07V280h0.22a0.14,0.14,0,0,1,.18.13,0.14,0.14,0,0,1-.16.14Zm-0.24-.3c0.06,0,.17,0,0.17-0.07s-0.07-.06-0.12-0.06h-0.14v0.13h0.09Z" transform="translate(-134.54 -270.39)"/><rect class="cls-2" x="426.67" y="4.36" width="0.76" height="6.07"/><polygon class="cls-2" points="431.56 4.07 436.11 8.84 436.11 4.36 436.86 4.36 436.86 10.67 432.31 5.9 432.31 10.42 431.56 10.42 431.56 4.07"/><path class="cls-2" d="M581,280.82l-0.52-.48a3.14,3.14,0,1,1,1.35-2.67,3,3,0,0,1-.84,2.25l1,0.9h-1Zm-0.57-1.4a2.43,2.43,0,1,0-4.2-1.54,2.44,2.44,0,0,0,2.51,2.36,2.47,2.47,0,0,0,1.21-.4l-1.31-1.18v-0.86Z" transform="translate(-134.54 -270.39)"/><polygon class="cls-2" points="418.41 4.35 419.16 4.35 419.16 9.73 422.58 9.73 422.58 10.42 418.41 10.42 418.41 4.35"/><polygon class="cls-2" points="419.03 0.2 418.37 0.2 418.37 0 419.92 0 419.92 0.2 419.25 0.2 419.25 1.97 419.03 1.97 419.03 0.2"/><polygon class="cls-2" points="421.18 0 421.4 0 421.4 0.87 422.53 0.87 422.53 0 422.75 0 422.75 1.97 422.53 1.97 422.53 1.08 421.4 1.08 421.4 1.97 421.18 1.97 421.18 0"/><polygon class="cls-2" points="424.15 0 425.58 0 425.58 0.2 424.38 0.2 424.38 0.87 425.45 0.87 425.45 1.08 424.38 1.08 424.38 1.77 425.59 1.77 425.59 1.97 424.15 1.97 424.15 0"/><path class="cls-2" d="M581.9,275a0.46,0.46,0,1,1,.46.46,0.46,0.46,0,0,1-.46-0.46m0.86,0a0.39,0.39,0,1,0-.39.39,0.39,0.39,0,0,0,.39-0.39m-0.17.25H582.5l-0.15-.23h-0.09v0.23h-0.07v-0.51h0.22a0.14,0.14,0,0,1,.18.13,0.14,0.14,0,0,1-.16.14Zm-0.24-.3c0.06,0,.17,0,0.17-0.07s-0.07-.06-0.12-0.06h-0.13V275h0.09Z" transform="translate(-134.54 -270.39)"/><path class="cls-2" d="M515,302.15h-1.9a2.49,2.49,0,0,0-.06-0.63c-0.19-1.3-.61-4.35-0.93-6.54a5.75,5.75,0,0,0-.15-0.58h1.74a4.62,4.62,0,0,0,0,.53c0.27,2.2.7,5.79,0.7,5.79h0s0.27-3.57.44-5.74a2.72,2.72,0,0,0,0-.59h1.83s0,0.34,0,.54c0.26,2.12.7,5.68,0.7,5.68h0s0.3-3.52.48-5.67a3.51,3.51,0,0,0,0-.55h1s-0.08.37-.1,0.58l-0.89,7.17h-1.82l-0.62-5h0Z" transform="translate(-134.54 -270.39)"/><path class="cls-2" d="M525.83,295.52v5.6a0.39,0.39,0,0,0,.42.49c0.31,0,.4-0.13.4-0.48v-5.62a0.35,0.35,0,0,0-.42-0.4,0.34,0.34,0,0,0-.4.41m-1.58-.12c0-.89.52-1,2-1s2,0.14,2,1.05v5.72c0,0.91-.2,1.17-2,1.17s-2-.23-2-1.11v-5.83Z" transform="translate(-134.54 -270.39)"/><path class="cls-2" d="M523.41,301.29c0,0.89-.55,1-2,1a13.51,13.51,0,0,1-1.93-.11v-2.86h1.42v1.77a0.44,0.44,0,0,0,.51.48,0.4,0.4,0,0,0,.47-0.46V299.6c0-.55-0.67-0.71-1.14-0.9-0.74-.29-1.26-0.31-1.26-1.39v-1.92c0-.89.57-1,2.07-1,0.82,0,1.42.06,1.86,0.09v2.8H522v-1.79c0-.31-0.13-0.39-0.47-0.39s-0.49.08-.49,0.41V297c0,0.66.69,0.79,1.2,1s1.2,0.4,1.2,1v2.31Z" transform="translate(-134.54 -270.39)"/><polygon class="cls-2" points="384.23 33.06 384.63 33.81 385.02 33.06 384.63 32.31 384.23 33.06"/><path class="cls-2" d="M523.38,304.11a11.43,11.43,0,0,1-.62-1,0.32,0.32,0,0,1,.32-0.32,0.32,0.32,0,0,0,.59,0,0.32,0.32,0,0,1,.32.32c0,0.18-.43.59-0.62,1" transform="translate(-134.54 -270.39)"/><path class="cls-2" d="M521.3,303.75a0.35,0.35,0,0,0,.28.13,0.3,0.3,0,0,0,.32-0.27c0-.15-0.44-0.49-0.62-0.82-0.19.34-.62,0.68-0.62,0.82a0.3,0.3,0,0,0,.32.27,0.34,0.34,0,0,0,.27-0.12,0.37,0.37,0,0,1-.42.32h-0.1v0h1.09v0h-0.1a0.36,0.36,0,0,1-.41-0.33" transform="translate(-134.54 -270.39)"/><path class="cls-2" d="M525.55,303.66a0.06,0.06,0,0,1,.06,0h0a0.29,0.29,0,1,0,.26-0.4l-0.1,0h0a0.06,0.06,0,0,1-.06,0,0.07,0.07,0,0,1,0-.07,0.29,0.29,0,0,0,.06-0.17,0.29,0.29,0,1,0-.52.17,0.08,0.08,0,0,1,0,.07,0.06,0.06,0,0,1-.07,0h0l-0.1,0a0.29,0.29,0,0,0,0,.57,0.28,0.28,0,0,0,.26-0.18h0a0.06,0.06,0,0,1,.06,0,0,0,0,0,1,0,0,0.36,0.36,0,0,1-.42.38h-0.1v0H526v0h-0.1a0.36,0.36,0,0,1-.42-0.38,0,0,0,0,1,0,0" transform="translate(-134.54 -270.39)"/><path class="cls-2" d="M530.74,295.15v3.5h0.44a0.57,0.57,0,0,0,.4-0.65v-2.38a0.44,0.44,0,0,0-.43-0.47h-0.41Zm0,4.2v2a3.61,3.61,0,0,0,.16,1H529a4.07,4.07,0,0,0,.08-0.88V295.4a5.36,5.36,0,0,0-.13-1h2.89c1,0,1.33.27,1.33,1v2.81c0,0.89-.33,1.14-0.95,1.14h-1.52" transform="translate(-134.54 -270.39)"/><rect class="cls-2" x="377.42" y="32.86" width="6.02" height="0.4"/><rect class="cls-2" x="392.66" y="32.86" width="6.02" height="0.4"/><path class="cls-2" d="M534.07,295a0.46,0.46,0,1,1,.46.46,0.46,0.46,0,0,1-.46-0.46m0.86,0a0.39,0.39,0,1,0-.39.39,0.39,0.39,0,0,0,.39-0.39m-0.17.25h-0.09l-0.15-.23h-0.09v0.23h-0.07v-0.51h0.22a0.14,0.14,0,0,1,.18.13,0.14,0.14,0,0,1-.16.14Zm-0.24-.3c0.06,0,.17,0,0.17-0.07s-0.07-.06-0.12-0.06h-0.14v0.13h0.09Z" transform="translate(-134.54 -270.39)"/><path class="cls-2" d="M349.14,278.06a0.06,0.06,0,0,0,0,0v-0.13c0-1,0-1.13,0-1.33a0.31,0.31,0,0,0-.27-0.35,1.14,1.14,0,0,0-.24,0c-0.07,0-.11,0-0.11-0.06s0-.06.13-0.06c0.34,0,.73,0,0.9,0l0.79,0c0.08,0,.13,0,0.13.06s0,0.06-.11.06l-0.18,0c-0.17,0-.22.13-0.23,0.35s0,0.38,0,1.33V279c0,0.58,0,1.07,0,1.34a0.3,0.3,0,0,0,.25.33,2.14,2.14,0,0,0,.32,0c0.07,0,.11,0,0.11.05s-0.06.06-.13,0.06l-1,0-0.78,0c-0.09,0-.13,0-0.13-0.06s0-.05.1-0.05a0.92,0.92,0,0,0,.23,0,0.34,0.34,0,0,0,.18-0.34c0-.27,0-0.76,0-1.34v-0.55a0,0,0,0,0,0,0h-2.41a0,0,0,0,0,0,0V279a13.24,13.24,0,0,0,0,1.34,0.3,0.3,0,0,0,.24.33l0.33,0c0.07,0,.09,0,0.09.05s0,0.06-.12.06l-1,0-0.79,0c-0.08,0-.12,0-0.12-0.06s0-.05.1-0.05a0.87,0.87,0,0,0,.22,0,0.33,0.33,0,0,0,.19-0.34c0-.27,0-0.76,0-1.34v-1.1c0-1,0-1.13,0-1.33a0.3,0.3,0,0,0-.26-0.35,1.21,1.21,0,0,0-.24,0c-0.07,0-.11,0-0.11-0.06s0-.06.14-0.06c0.33,0,.73,0,0.9,0l0.79,0c0.09,0,.13,0,0.13.06s0,0.06-.11.06l-0.19,0a0.3,0.3,0,0,0-.23.35c0,0.2,0,.38,0,1.33V278a0,0,0,0,0,0,0h2.4Z" transform="translate(-134.54 -270.39)"/><path class="cls-2" d="M355.49,278.55a2,2,0,0,0-1.83-2.27c-0.72,0-1.54.4-1.54,2a2.06,2.06,0,0,0,1.93,2.33c0.43,0,1.44-.21,1.44-2m-4.23-.11a2.41,2.41,0,0,1,2.58-2.45,2.27,2.27,0,0,1,2.53,2.34,2.47,2.47,0,0,1-2.58,2.56,2.38,2.38,0,0,1-2.52-2.45" transform="translate(-134.54 -270.39)"/><path class="cls-2" d="M358.41,278.37c0,0.07,0,.1.05,0.11a1.52,1.52,0,0,0,.47.07,0.62,0.62,0,0,0,.45-0.1,1.11,1.11,0,0,0,.38-0.93,1,1,0,0,0-1-1.15,1.19,1.19,0,0,0-.33,0,0.07,0.07,0,0,0-.05.08v1.9Zm-0.74-.49c0-1,0-1.12,0-1.33a0.31,0.31,0,0,0-.27-0.35,1.16,1.16,0,0,0-.24,0c-0.06,0-.11,0-0.11-0.06s0-.06.14-0.06c0.33,0,.72,0,0.85,0l0.89,0a2,2,0,0,1,1.15.27,1.1,1.1,0,0,1,.42.86,1.76,1.76,0,0,1-.82,1.41c0.56,0.7,1,1.25,1.36,1.64a1.26,1.26,0,0,0,.7.43h0.17a0.07,0.07,0,0,1,.08.05s0,0.06-.12.06h-0.59a1.32,1.32,0,0,1-.68-0.12,3,3,0,0,1-.85-0.92c-0.26-.34-0.55-0.77-0.62-0.86a0.14,0.14,0,0,0-.11,0h-0.55a0,0,0,0,0,0,0V279c0,0.58,0,1.07,0,1.34a0.3,0.3,0,0,0,.24.34,2.11,2.11,0,0,0,.32,0,0.06,0.06,0,0,1,.07.05s0,0.06-.13.06l-0.91,0-0.76,0c-0.09,0-.13,0-0.13-0.06s0-.05.1-0.05a0.84,0.84,0,0,0,.22,0,0.33,0.33,0,0,0,.18-0.34c0-.27,0-0.76,0-1.34v-1.1Z" transform="translate(-134.54 -270.39)"/><path class="cls-2" d="M362.25,280.72a0.18,0.18,0,0,1-.12-0.22c0-.34,0-0.72,0-0.82s0-.16.08-0.16a0.09,0.09,0,0,1,.07.11,1.13,1.13,0,0,0,0,.32,0.87,0.87,0,0,0,.9.63,0.76,0.76,0,0,0,.84-0.71,1.18,1.18,0,0,0-.61-1l-0.29-.23a1.85,1.85,0,0,1-.93-1.47,1.27,1.27,0,0,1,1.44-1.19,2.93,2.93,0,0,1,.83.11,0.08,0.08,0,0,1,.09.07c0,0.09,0,.26,0,0.75,0,0.14,0,.19-0.07.19s-0.07,0-.07-0.12a0.71,0.71,0,0,0-.16-0.4,0.78,0.78,0,0,0-.68-0.32,0.66,0.66,0,0,0-.74.65,1.13,1.13,0,0,0,.66.9l0.17,0.14a1.92,1.92,0,0,1,1,1.59,1.27,1.27,0,0,1-.59,1.09,1.81,1.81,0,0,1-1,.26,2.13,2.13,0,0,1-.91-0.16" transform="translate(-134.54 -270.39)"/><path class="cls-2" d="M366.24,277.88c0-1,0-1.12,0-1.33a0.3,0.3,0,0,0-.26-0.35,1.27,1.27,0,0,0-.25,0c-0.07,0-.1,0-0.1-0.06s0-.06.14-0.06h0.5l0.39,0c0.2,0,1.45,0,1.57,0l0.27,0,0.09,0s0,0,0,0,0,0.13,0,.41c0,0.06,0,.34,0,0.41a0.07,0.07,0,0,1-.06.07s-0.06,0-.06-0.08a0.62,0.62,0,0,0,0-.23,0.41,0.41,0,0,0-.42-0.23l-0.89,0a0,0,0,0,0,0,.06V278s0,0.07,0,.07,0.86,0,1,0a0.47,0.47,0,0,0,.29-0.09,0.2,0.2,0,0,1,.11-0.09,0,0,0,0,1,0,0s0,0.14,0,.46c0,0.12,0,.37,0,0.42s0,0.12-.05.12a0.06,0.06,0,0,1-.06-0.06,1,1,0,0,0,0-.22,0.33,0.33,0,0,0-.35-0.25l-0.89,0a0.06,0.06,0,0,0,0,.06v1.47c0,0.44.12,0.53,0.75,0.53a1.49,1.49,0,0,0,.59-0.08,0.54,0.54,0,0,0,.28-0.46c0-.07,0-0.1.07-0.1s0,0,0,.11a4.39,4.39,0,0,1-.08.7c0,0.16-.1.16-0.34,0.16-0.46,0-.81,0-1.08,0l-0.65,0h-0.79c-0.08,0-.13,0-0.13-0.06s0-.05.1-0.05a0.86,0.86,0,0,0,.23,0,0.33,0.33,0,0,0,.18-0.34c0-.28,0-0.76,0-1.34v-1.1Z" transform="translate(-134.54 -270.39)"/><path class="cls-2" d="M369.84,280.72a0.18,0.18,0,0,1-.12-0.22c0-.34,0-0.72,0-0.82s0-.16.08-0.16,0.05,0.05.05,0.11a1.26,1.26,0,0,0,.06.32,0.87,0.87,0,0,0,.9.63,0.76,0.76,0,0,0,.83-0.71,1.19,1.19,0,0,0-.62-1l-0.28-.23a1.84,1.84,0,0,1-.93-1.47A1.27,1.27,0,0,1,371.3,276a2.88,2.88,0,0,1,.83.11,0.08,0.08,0,0,1,.09.07c0,0.09,0,.26,0,0.75,0,0.14,0,.19-0.08.19s-0.06,0-.06-0.12a0.75,0.75,0,0,0-.16-0.4,0.78,0.78,0,0,0-.68-0.32,0.66,0.66,0,0,0-.75.65,1.14,1.14,0,0,0,.67.9l0.17,0.14a1.91,1.91,0,0,1,1,1.59,1.27,1.27,0,0,1-.6,1.09,1.78,1.78,0,0,1-1,.26,2.14,2.14,0,0,1-.91-0.16" transform="translate(-134.54 -270.39)"/><path class="cls-2" d="M377,278.06a0.06,0.06,0,0,0,0,0v-0.13c0-1,0-1.13,0-1.33a0.32,0.32,0,0,0-.27-0.35,1.24,1.24,0,0,0-.25,0c-0.07,0-.1,0-0.1-0.06s0-.06.13-0.06c0.34,0,.74,0,0.9,0l0.79,0c0.09,0,.13,0,0.13.06s0,0.06-.11.06l-0.18,0c-0.17,0-.22.13-0.22,0.35s0,0.38,0,1.33V279c0,0.58,0,1.07,0,1.34a0.3,0.3,0,0,0,.24.33l0.32,0c0.07,0,.1,0,0.1.05s0,0.06-.12.06l-1,0-0.78,0c-0.08,0-.13,0-0.13-0.06s0-.05.1-0.05a1,1,0,0,0,.23,0,0.33,0.33,0,0,0,.18-0.34c0-.27,0-0.76,0-1.34v-0.55a0,0,0,0,0,0,0h-2.41a0,0,0,0,0,0,0V279a12.55,12.55,0,0,0,0,1.34,0.29,0.29,0,0,0,.24.33l0.32,0c0.07,0,.1,0,0.1.05s0,0.06-.13.06l-1,0-0.78,0c-0.09,0-.13,0-0.13-0.06s0-.05.1-0.05a0.94,0.94,0,0,0,.22,0,0.34,0.34,0,0,0,.18-0.34c0-.27,0-0.76,0-1.34v-1.1c0-1,0-1.13,0-1.33a0.3,0.3,0,0,0-.27-0.35,1.1,1.1,0,0,0-.24,0c-0.07,0-.1,0-0.1-0.06s0-.06.13-0.06c0.34,0,.73,0,0.91,0l0.78,0c0.09,0,.13,0,0.13.06s0,0.06-.11.06l-0.18,0a0.3,0.3,0,0,0-.24.35c0,0.2,0,.38,0,1.33V278a0.07,0.07,0,0,0,0,0H377Z" transform="translate(-134.54 -270.39)"/><path class="cls-2" d="M383.38,278.55a2,2,0,0,0-1.83-2.27c-0.72,0-1.54.4-1.54,2a2.06,2.06,0,0,0,1.92,2.33c0.44,0,1.44-.21,1.44-2m-4.23-.11a2.41,2.41,0,0,1,2.58-2.45,2.27,2.27,0,0,1,2.52,2.34,2.47,2.47,0,0,1-2.59,2.56,2.38,2.38,0,0,1-2.52-2.45" transform="translate(-134.54 -270.39)"/><path class="cls-2" d="M385.58,277.88c0-1,0-1.12,0-1.33a0.31,0.31,0,0,0-.27-0.35,1.2,1.2,0,0,0-.24,0c-0.07,0-.1,0-0.1-0.06s0-.06.13-0.06h0.51l0.39,0c0.2,0,1.45,0,1.56,0l0.27,0,0.1,0a0,0,0,0,1,0,0s0,0.13-.06.41c0,0.06,0,.34,0,0.41a0.07,0.07,0,0,1-.07.07s0,0,0-.08a0.76,0.76,0,0,0,0-.23,0.4,0.4,0,0,0-.42-0.23l-0.88,0s0,0,0,.06V278s0,0.07,0,.07,0.85,0,1,0a0.45,0.45,0,0,0,.29-0.09,0.21,0.21,0,0,1,.1-0.09,0,0,0,0,1,0,0s0,0.14,0,.46c0,0.12,0,.37,0,0.42s0,0.12-.05.12a0.05,0.05,0,0,1-.06-0.06,1,1,0,0,0,0-.22,0.33,0.33,0,0,0-.35-0.25l-0.88,0s0,0,0,.06V279c0,0.22,0,.78,0,1,0,0.44.11,0.53,0.74,0.53a1.52,1.52,0,0,0,.6-0.08,0.55,0.55,0,0,0,.28-0.46c0-.07,0-0.1.07-0.1s0.05,0,.05.11a5.38,5.38,0,0,1-.08.7c0,0.16-.1.16-0.34,0.16-0.46,0-.81,0-1.08,0l-0.65,0h-0.78c-0.08,0-.12,0-0.12-0.06s0-.05.1-0.05a0.84,0.84,0,0,0,.23,0,0.34,0.34,0,0,0,.18-0.34c0-.28,0-0.76,0-1.34v-1.1Z" transform="translate(-134.54 -270.39)"/><path class="cls-2" d="M388.62,280.47a0.46,0.46,0,1,1,.46.46,0.46,0.46,0,0,1-.46-0.46m0.86,0a0.39,0.39,0,1,0-.39.39,0.39,0.39,0,0,0,.39-0.39m-0.17.25h-0.09l-0.15-.23H389v0.23h-0.07v-0.51h0.22a0.14,0.14,0,0,1,.18.13,0.14,0.14,0,0,1-.16.14Zm-0.24-.3c0.06,0,.17,0,0.17-0.07s-0.07-.06-0.12-0.06H389v0.13h0.09Z" transform="translate(-134.54 -270.39)"/><path class="cls-2" d="M339.68,298.28h0Z" transform="translate(-134.54 -270.39)"/><path class="cls-2" d="M339.68,298.28h0Z" transform="translate(-134.54 -270.39)"/><path class="cls-2" d="M339.68,298.29h0Z" transform="translate(-134.54 -270.39)"/><g class="cls-4"><polygon class="cls-2" points="205.15 27.89 205.15 27.89 205.15 27.88 205.15 27.89"/></g><path class="cls-2" d="M339.68,298.28h0Z" transform="translate(-134.54 -270.39)"/><path class="cls-2" d="M339.68,298.28h0Z" transform="translate(-134.54 -270.39)"/><path class="cls-2" d="M339.68,298.29h0Z" transform="translate(-134.54 -270.39)"/><g class="cls-4"><polygon class="cls-2" points="205.15 27.89 205.15 27.89 205.15 27.88 205.15 27.89"/></g><path class="cls-2" d="M331.29,299.2a5,5,0,0,1,4.63-5.1h-0.19a4.86,4.86,0,0,0-2.24,9.09,5,5,0,0,1-2.2-4" transform="translate(-134.54 -270.39)"/><path class="cls-2" d="M334.62,299.84a1.11,1.11,0,1,1,0-2.22,1.11,1.11,0,0,1,0,2.22m6-3a1.48,1.48,0,0,0-1.16-.42,1.61,1.61,0,0,0-1.26.67v-3h-1.33V298a2.07,2.07,0,0,0-1.93-1.51,2,2,0,0,0-1.43.64v-0.56h-1.26v4.5a4.67,4.67,0,0,0,1.3,1.49v-2.18a1.94,1.94,0,0,0,1.38.59,2.08,2.08,0,0,0,1.95-1.55v1.48h1.32v-2.68a0.75,0.75,0,0,1,1.5.06h0v2.61h1a4.36,4.36,0,0,0,.28-0.71v-2.25a1.78,1.78,0,0,0-.36-1" transform="translate(-134.54 -270.39)"/><path class="cls-2" d="M336.35,303.49a4.71,4.71,0,0,1-4.12-2.42,4.66,4.66,0,0,1-.61-2.31,4.7,4.7,0,0,1,1.17-3.12,4.83,4.83,0,0,0,3.5,8.23,4.68,4.68,0,0,0,4.66-3.68,4.27,4.27,0,0,1-.28.71,4.85,4.85,0,0,1-4.32,2.6" transform="translate(-134.54 -270.39)"/><path class="cls-2" d="M348.28,296.09a0.84,0.84,0,1,0,.76.83,0.79,0.79,0,0,0-.76-0.83m0.11,2.38a1.24,1.24,0,0,1-.86-0.35v1.6h-0.76v-4.25h0.73v0.31a1.24,1.24,0,0,1,.9-0.38,1.54,1.54,0,0,1,0,3.07" transform="translate(-134.54 -270.39)"/><rect class="cls-2" x="215.79" y="23.76" width="0.76" height="4.25"/><path class="cls-2" d="M353.13,296.09a0.84,0.84,0,1,0,.76.85,0.81,0.81,0,0,0-.76-0.85m1.51,2.31h-0.72v-0.31a1.22,1.22,0,0,1-.9.38,1.54,1.54,0,0,1,0-3.07,1.22,1.22,0,0,1,.9.38v-0.31h0.72v2.94Z" transform="translate(-134.54 -270.39)"/><path class="cls-2" d="M358.08,298.41h-0.75v-1.72a0.52,0.52,0,0,0-.55-0.58,0.56,0.56,0,0,0-.58.58v1.72h-0.75v-2.94h0.72v0.28a1,1,0,0,1,.76-0.36,1.16,1.16,0,0,1,1.15,1.3v1.72Z" transform="translate(-134.54 -270.39)"/><path class="cls-2" d="M360.82,296.61a0.73,0.73,0,0,0-.73-0.56,0.75,0.75,0,0,0-.73.56h1.46Zm-1.47.62a0.75,0.75,0,0,0,.74.59,0.68,0.68,0,0,0,.62-0.35h0.8a1.39,1.39,0,0,1-1.42,1,1.54,1.54,0,1,1,1.48-1.25h-2.23Z" transform="translate(-134.54 -270.39)"/><path class="cls-2" d="M364.65,297.18a1.29,1.29,0,1,1-2.59,0v-2.47h0.75v0.75h1.81v0.71h-1.81v1a0.54,0.54,0,1,0,1.08,0v-0.28h0.75v0.24Z" transform="translate(-134.54 -270.39)"/><path class="cls-2" d="M344.77,303.55H344v-1.72a0.51,0.51,0,0,0-.55-0.56,0.55,0.55,0,0,0-.57.56v1.72h-0.76V299.3h0.76v1.46a1.11,1.11,0,0,1,.68-0.23,1.18,1.18,0,0,1,1.2,1.29v1.72Z" transform="translate(-134.54 -270.39)"/><path class="cls-2" d="M347.46,302.09a0.73,0.73,0,1,0-1.45,0,0.73,0.73,0,1,0,1.45,0m0.76,0a1.48,1.48,0,1,1-1.49-1.54,1.49,1.49,0,0,1,1.49,1.54" transform="translate(-134.54 -270.39)"/><rect class="cls-2" x="214.22" y="28.9" width="0.76" height="4.25"/><rect class="cls-2" x="215.81" y="28.9" width="0.75" height="4.25"/><path class="cls-2" d="M354.37,303.67a1.24,1.24,0,0,1-1.31,1.32,1.26,1.26,0,0,1-1.28-1h0.78a0.45,0.45,0,0,0,.5.33,0.52,0.52,0,0,0,.55-0.57v-0.34a1,1,0,0,1-.68.24,1.18,1.18,0,0,1-1.2-1.29V300.6h0.76v1.73a0.52,0.52,0,0,0,.55.57,0.55,0.55,0,0,0,.57-0.57V300.6h0.76v3.07Z" transform="translate(-134.54 -270.39)"/><path class="cls-2" d="M359.64,302.3a1.27,1.27,0,0,1-1.33,1.33,1.26,1.26,0,0,0-1.88,0,1.23,1.23,0,0,1-1.3-1.33v-1.7h0.75v1.73a0.52,0.52,0,0,0,.55.56,0.55,0.55,0,0,0,.58-0.56V300.6h0.75v1.73a0.52,0.52,0,0,0,.55.56,0.55,0.55,0,0,0,.57-0.56V300.6h0.75v1.7Z" transform="translate(-134.54 -270.39)"/><path class="cls-2" d="M362.34,302.09a0.74,0.74,0,1,0-1.45,0,0.73,0.73,0,1,0,1.45,0m0.76,0a1.48,1.48,0,1,1-1.49-1.54,1.49,1.49,0,0,1,1.49,1.54" transform="translate(-134.54 -270.39)"/><path class="cls-2" d="M365.54,302.09a0.74,0.74,0,1,0-1.45,0,0.73,0.73,0,1,0,1.45,0m0.76,0a1.48,1.48,0,1,1-1.49-1.54,1.5,1.5,0,0,1,1.49,1.54" transform="translate(-134.54 -270.39)"/><path class="cls-2" d="M368.61,301.33h-0.44a0.75,0.75,0,0,0-.77.76,0.77,0.77,0,0,0,.75.8,0.79,0.79,0,0,0,.76-0.82V299.3h0.76v2.77a1.51,1.51,0,1,1-3,0,1.45,1.45,0,0,1,1.44-1.49h0.53v0.73Z" transform="translate(-134.54 -270.39)"/><path class="cls-2" d="M370.48,299.92a0.46,0.46,0,1,1,.46.46,0.46,0.46,0,0,1-.46-0.46m0.86,0a0.39,0.39,0,1,0-.39.39,0.39,0.39,0,0,0,.39-0.39m-0.17.25h-0.09l-0.15-.23h-0.09v0.23h-0.07v-0.51H371a0.14,0.14,0,0,1,.18.13,0.14,0.14,0,0,1-.16.14Zm-0.24-.3c0.06,0,.17,0,0.17-0.07s-0.07-.06-0.12-0.06h-0.14v0.13h0.09Z" transform="translate(-134.54 -270.39)"/><path class="cls-2" d="M510.45,273.93a14.13,14.13,0,0,1,3.79-1.71c1.2-.34,2.62-0.51,3.31.27s0.78,2-.25,3.45c0.06,0.35,0,.35-0.26.4a20.54,20.54,0,0,1-4.73,4.75,1,1,0,0,1-.61.11c-0.22,0-.51-0.16-0.22-0.39a19.64,19.64,0,0,0,3.7-4c0.14-.21.07-0.27-0.08-0.24a15.54,15.54,0,0,1-1.81.16,0.81,0.81,0,0,1-.71-0.27c-0.18-.22-0.29-0.34,0-0.41s2.64-.51,3-0.58a0.73,0.73,0,0,0,.7-0.48,1.49,1.49,0,0,0,.14-1.44,1.66,1.66,0,0,0-1.73-.31,17.1,17.1,0,0,0-3.32,1.23,0.68,0.68,0,0,1-.77-0.09c-0.43-.2-0.49-0.24-0.19-0.45" transform="translate(-134.54 -270.39)"/><path class="cls-2" d="M520.31,278.45c0-.21-0.13-0.39-0.31-0.26a4.65,4.65,0,0,0-1,1.23c-0.1.19,0,.28,0.15,0.17a8,8,0,0,0,1.16-1.14M533,279.58a0.82,0.82,0,0,0-.17.46c0,0.17.15,0.23,0.29,0.08a0.58,0.58,0,0,0,.15-0.44c0-.14-0.12-0.26-0.27-0.1m-13.17-5.9c0.29-.23.57-0.25,0.73,0.13a0.94,0.94,0,0,1,0,.69,1.15,1.15,0,0,1-.27.65c-0.19.29-2.66,2.95-3,3.49a6.29,6.29,0,0,0-.68,1.19c-0.06.17-.06,0.38,0.27,0.17a8.1,8.1,0,0,0,1-.91,5.67,5.67,0,0,1,1.28-1.33,1.39,1.39,0,0,1,1.72-.22,0.73,0.73,0,0,1-.29,1c0.25,0.43.22,0.68,0,.79-0.1.21,0,.27,0.13,0.12a7.15,7.15,0,0,0,1.15-1.09c0.14-.16.41-0.27,0.53,0.13,0.07,0.2,0,.36.27,0.18s0.3-.46.59-0.25a0.75,0.75,0,0,1,.13.43c0,0.07,0,.16.17,0s0.32-.22.43-0.26,0.24-.2.41,0.09,0.14,0.33,0,.46a1.36,1.36,0,0,0-.33.36c-0.08.11-.17,0.35,0.08,0.21a12.41,12.41,0,0,0,1.75-1.54c0.13-.17.28-0.17,0.41,0a0.46,0.46,0,0,1,0,.59,3.29,3.29,0,0,0-.47.61c-0.09.16-.09,0.24,0.15,0.12a16.1,16.1,0,0,0,1.3-1c0.25-.23.37-0.24,0.48-0.08a1.12,1.12,0,0,1,.14.41c0,0.25.1,0.14,0.21,0.07l0.44-.32c0.19-.12.31-0.12,0.41,0s0.15,0.3,0,.44a1.74,1.74,0,0,0-.38.45c-0.08.15-.1,0.34,0.09,0.2s0.53-.39.67-0.49a2.93,2.93,0,0,1,1-1c0.58-.34,1.21-0.55,1.51-0.14a0.69,0.69,0,0,1-.06.73c-0.12.13-.36,0.43-0.66-0.2a1.94,1.94,0,0,0-.83.74c-0.12.17-.12,0.32,0.17,0.23a2.39,2.39,0,0,0,.73-0.43c0.2-.18.38-0.07,0.41,0.11s0,0.49,0,.49a1.67,1.67,0,0,1,.55-0.26c0.15-.14.41-0.42,0.78-0.73a1,1,0,0,1,.9-0.19,0.32,0.32,0,0,1,.13.43c0.72-.08,2.55-0.17,3-0.17a0.77,0.77,0,0,1,.79.37c0.22,0.31.23,0.62-.31,0.52a10.08,10.08,0,0,0-3.54.05,2.53,2.53,0,0,1-.9,1.2,0.74,0.74,0,0,1-1.17-.76c0-.19-0.15,0-0.25,0a12.09,12.09,0,0,0-2.36,3c-0.11.31-.18,0.29-0.29,0.13a1.69,1.69,0,0,1-.33-0.57,0.86,0.86,0,0,1,.17-0.74c0.18-.28,1-1.4,1.19-1.55s0-.24-0.1-0.2a0.56,0.56,0,0,1-.71-0.54,5.05,5.05,0,0,1-.89.64,0.48,0.48,0,0,1-.74-0.37c-0.06-.21-0.06-0.26-0.28,0-0.05.08-.39,0.35-0.54,0.51s-0.12.14-.27,0a1.05,1.05,0,0,1-.22-0.56,1.72,1.72,0,0,1-.72.44c-0.33.08-.59,0-0.69-0.58-0.3.22-.78,0.61-1,0.75a0.44,0.44,0,0,1-.7-0.43l-0.08-.1a1.57,1.57,0,0,0-.56.56c-0.1.12-.27,0.33-0.5,0a0.85,0.85,0,0,1-.13-0.51,1.19,1.19,0,0,0-.52.57c-0.14.23-.42,0.08-0.48-0.45a0.21,0.21,0,0,1-.15,0,4.85,4.85,0,0,1-.65.54c-0.25.15-.65,0-0.69-0.59a4,4,0,0,1-.7.43,0.65,0.65,0,0,1-.92-0.36,9,9,0,0,1-1.1.92c-0.21.15-1.22-.06-1-1.56a7.5,7.5,0,0,1,1.32-2.39,21,21,0,0,1,2.91-3.52" transform="translate(-134.54 -270.39)"/><path class="cls-2" d="M526.8,276.56a1.06,1.06,0,0,0-.46.68c0,0.32.14,0.32,0.32,0.43a0.41,0.41,0,0,0,.5,0,0.73,0.73,0,0,0,.35-0.66,0.6,0.6,0,0,0-.36-0.5,0.64,0.64,0,0,0-.34.07" transform="translate(-134.54 -270.39)"/><path class="cls-2" d="M534.4,281.17a0.46,0.46,0,1,1,.46.46,0.46,0.46,0,0,1-.46-0.46m0.86,0a0.39,0.39,0,1,0-.39.39,0.39,0.39,0,0,0,.39-0.39m-0.17.25H535l-0.15-.23h-0.09v0.23h-0.07v-0.51h0.22a0.14,0.14,0,0,1,.18.13,0.14,0.14,0,0,1-.16.14Zm-0.24-.3c0.06,0,.17,0,0.17-0.07S535,281,534.9,281h-0.14v0.13h0.09Z" transform="translate(-134.54 -270.39)"/><path class="cls-2" d="M479.92,294.25V296a0.12,0.12,0,0,0,.05.11,0.07,0.07,0,0,1,0,.06v0.06a0,0,0,0,1,0,0h-0.43a0,0,0,0,1,0,0v-0.07a0.07,0.07,0,0,1,0-.06,0.12,0.12,0,0,0,.05-0.11v-1.74h-0.06a0.11,0.11,0,0,0-.1.05,0.67,0.67,0,0,0-.06.23,0,0,0,0,1,0,0h-0.05a0,0,0,0,1,0,0v-0.4a0,0,0,0,1,0,0h0.1l0.17,0h0.68a0,0,0,0,1,0,0v0.42a0,0,0,0,1,0,0h-0.05a0,0,0,0,1,0,0l0-.09a0.46,0.46,0,0,0-.05-0.16,0.11,0.11,0,0,0-.09,0h-0.06Z" transform="translate(-134.54 -270.39)"/><path class="cls-2" d="M481.65,295.75a0.56,0.56,0,0,1-.13.39,0.42,0.42,0,0,1-.33.14,0.44,0.44,0,0,1-.34-0.14,0.51,0.51,0,0,1-.13-0.36v-1.43a0.12,0.12,0,0,0-.05-0.11,0.07,0.07,0,0,1,0-.06v-0.06a0,0,0,0,1,0,0h0.43a0,0,0,0,1,0,0v0.06a0.07,0.07,0,0,1,0,.06,0.12,0.12,0,0,0-.05.11v1.45c0,0.19.07,0.29,0.19,0.29s0.21-.11.21-0.34v-1.4a0.12,0.12,0,0,0-.05-0.11,0.07,0.07,0,0,1,0-.06v-0.06a0,0,0,0,1,0,0h0.31a0,0,0,0,1,0,0v0.06a0.07,0.07,0,0,1,0,.06,0.12,0.12,0,0,0-.05.11v1.4Z" transform="translate(-134.54 -270.39)"/><path class="cls-2" d="M482.93,295.26v-0.91a0.12,0.12,0,0,0-.05-0.11,0.07,0.07,0,0,1,0-.06v-0.06a0,0,0,0,1,0,0h0.31a0,0,0,0,1,0,0v0.06a0.07,0.07,0,0,1,0,.06,0.12,0.12,0,0,0-.05.11v1.87a0,0,0,0,1,0,0H483a0.06,0.06,0,0,1-.06,0l-0.58-1.52V296a0.12,0.12,0,0,0,.05.11,0.07,0.07,0,0,1,0,.06v0.06a0,0,0,0,1,0,0h-0.31a0,0,0,0,1,0,0v-0.07a0.07,0.07,0,0,1,0-.06,0.12,0.12,0,0,0,.05-0.11v-1.65a0.12,0.12,0,0,0-.05-0.11,0.07,0.07,0,0,1,0-.06v-0.06a0,0,0,0,1,0,0h0.34l0,0Z" transform="translate(-134.54 -270.39)"/><path class="cls-2" d="M484,296a0.12,0.12,0,0,0,.05.11,0.07,0.07,0,0,1,0,.06v0.06a0,0,0,0,1,0,0h-0.43a0,0,0,0,1,0,0v-0.07a0.07,0.07,0,0,1,0-.06,0.12,0.12,0,0,0,.05-0.11v-1.65a0.12,0.12,0,0,0-.05-0.11,0.07,0.07,0,0,1,0-.06v-0.06a0,0,0,0,1,0,0h0.43a0,0,0,0,1,0,0v0.06a0.07,0.07,0,0,1,0,.06,0.12,0.12,0,0,0-.05.11V296Z" transform="translate(-134.54 -270.39)"/><path class="cls-2" d="M485.51,295.72a0.72,0.72,0,0,1-.13.41,0.35,0.35,0,0,1-.29.15,0.47,0.47,0,0,1-.42-0.28,1.72,1.72,0,0,1-.16-0.82,1.81,1.81,0,0,1,.15-0.83,0.4,0.4,0,0,1,.61-0.22h0l0,0,0,0h0.08s0,0,0,0v0.46s0,0,0,0h-0.1a0.39,0.39,0,0,1,0-.08,0.34,0.34,0,0,0-.22-0.32,0.14,0.14,0,0,0-.13.08,1,1,0,0,0-.07.32,4.58,4.58,0,0,0,0,.47,3.67,3.67,0,0,0,.06.76,0.25,0.25,0,0,0,.21.24q0.18,0,.23-0.39Z" transform="translate(-134.54 -270.39)"/><path class="cls-2" d="M486.28,294.36v-0.15l0,0,0.24-.11h0a0,0,0,0,1,0,0l0.38,1.89a0.22,0.22,0,0,0,0,.07l0.06,0a0.05,0.05,0,0,1,0,0v0.06s0,0,0,0h-0.46a0,0,0,0,1,0,0v-0.06a0.06,0.06,0,0,1,0-.05,0.09,0.09,0,0,0,.05-0.08v0l-0.06-.29h-0.36l-0.06.28v0a0.13,0.13,0,0,0,.06.09,0.09,0.09,0,0,1,0,.06v0.06a0,0,0,0,1,0,0H485.9s0,0,0,0v-0.07a0.05,0.05,0,0,1,0,0A0.18,0.18,0,0,0,486,296Zm0.1,0.45-0.15.71h0.29Z" transform="translate(-134.54 -270.39)"/><path class="cls-2" d="M478,294.94a0.23,0.23,0,0,1,.22-0.17,0.23,0.23,0,0,1,.23.23,0.49,0.49,0,1,1-.9,0,0.23,0.23,0,0,1,.23-0.23,0.24,0.24,0,0,1,.23.17" transform="translate(-134.54 -270.39)"/><path class="cls-2" d="M476.18,294.63a1.19,1.19,0,0,0-.45.68,0.23,0.23,0,0,0,.44.08,0.68,0.68,0,0,1-.17.46h0.38a0.78,0.78,0,0,1-.18-0.46,0.23,0.23,0,0,0,.44-0.07,1.19,1.19,0,0,0-.45-0.68" transform="translate(-134.54 -270.39)"/><path class="cls-2" d="M488.86,294.94a0.27,0.27,0,0,0,0-.11,0.31,0.31,0,0,0-.62,0,0.28,0.28,0,0,0,0,.11,0.3,0.3,0,1,0,0,.6,0.32,0.32,0,0,0,.23-0.1,0.64,0.64,0,0,1-.17.43h0.38a0.74,0.74,0,0,1-.18-0.43,0.32,0.32,0,0,0,.24.11,0.3,0.3,0,0,0,0-.59" transform="translate(-134.54 -270.39)"/><polygon class="cls-5" points="355.49 24.78 355.85 24.16 356.21 24.78 355.85 25.39 355.49 24.78"/><path class="cls-2" d="M472.32,301.35a1,1,0,0,1-.08.39,0.61,0.61,0,0,1-.24.31h0l-0.15.07h0a0.76,0.76,0,0,1-.5-0.21,1.12,1.12,0,0,1-.09-0.57v-0.48a2,2,0,0,0,0-.41,0.67,0.67,0,0,0-.2-0.35h0a0.23,0.23,0,0,0-.16-0.12,1.18,1.18,0,0,0-.41,0h-0.1a0.68,0.68,0,0,1,0,.1,0.81,0.81,0,0,0,0,.1h0a1.6,1.6,0,0,1,0,.23c0,0.14,0,.24,0,0.3q0,0.58.33,0.58l0.13,0,0.06,0a0.6,0.6,0,0,0,0,.21v0.36a0.18,0.18,0,0,0,0,.12h0l0,0-0.1,0h-0.17l-0.73,0,0,0a0.14,0.14,0,0,1-.13,0h0v0h-0.19l-0.08,0v0l0-.22v-0.24a0.14,0.14,0,0,1,0-.14h0l0-.1a0,0,0,0,0,0,0,1.68,1.68,0,0,0,.32-0.1,0.32,0.32,0,0,0,.13-0.3q0-.44,0-1.79s0,0,0-.05a3.91,3.91,0,0,0,0-.56h0a0.28,0.28,0,0,0-.16-0.16h-0.23a0.07,0.07,0,0,1-.05,0q0-.17,0-0.41v-0.28l0.12-.09h0l0.81,0h0.59a0.81,0.81,0,0,1,.86.71,3,3,0,0,1,.05.76,0.88,0.88,0,0,1-.54.83v0l0.21,0.18a1.45,1.45,0,0,1,.18.23h0a1.39,1.39,0,0,1,.09.29h0a2.26,2.26,0,0,0,.08.67l0.07,0a0.24,0.24,0,0,0,.24-0.29s0-.09,0-0.16,0-.12,0-0.14l0,0h0.15l0,0h0a0.5,0.5,0,0,1,0,.2h0l0,0.16v0.3Zm-2.87.24v0h0m0,0.1h0Zm0-3.65h0m0,3.84h0Zm0.05-.49h0v0h0a0,0,0,0,1,0,0h0.05Zm0,0.36h0l0,0h0a0,0,0,0,0,0,0m0-.1h0v0h0Zm0-3.53h0v0Zm0,3.34v0h0Zm0,0.18v0h0v0h0Zm0-.28h0v0m0,0.55h0Zm0-3.71v0h0Zm0-.27,0,0h0v0h0Zm0,0.21h0m0-.36h0Zm0,3.58h0Zm0.05,0.06h0a0,0,0,0,0,0,0h0Zm0-.06h0v0h0Zm0.1-3.16h0Zm0.06,0h0Zm0,3.6,0,0h0v0h0Zm0-.08h0v0Zm0.16-3.49h0v0s0,0,0,0h0Zm0,3.28h0Zm0.17-.57h0Zm0-1.33h0Zm1-.62a0.11,0.11,0,0,1,0-.1l0-.06h0v0a0.86,0.86,0,0,0-.11-0.17l-0.14-.17-0.15-.07v0h-0.24l-0.1,0-0.1,0h0l-0.06.06a1,1,0,0,0,0,.23,0.8,0.8,0,0,1,0,.25,0.18,0.18,0,0,0,0,.1v0.23a1.13,1.13,0,0,0,0,.16,1.24,1.24,0,0,1,0,.17l0.38,0,0.08,0,0.05,0h0a0.45,0.45,0,0,1,.16,0l0.23-.29v-0.05l0,0v0Zm-0.92.9h0m0-1.55h0Zm0.34,0h0v0h0Zm0,3.17h0Zm0-1.68h0v0Zm0.08-1.78h0Zm0.2-.07h0v0h0Zm0.14,2.34h0v0h0Zm0.43-1.26h0Zm0.2,2.28h0Zm0.3-.46h0v0h0Zm0-.19h0Z" transform="translate(-134.54 -270.39)"/><path class="cls-2" d="M474.74,298.86V299a1.74,1.74,0,0,0,0,.29,0.13,0.13,0,0,0,0,.13v0h0l0,0.13s0,0,0,0l0,0.11h0s0,0,0,0h0v0.07l0,0.06h0l0,0.06v0.06l0,0h0v0.16h0s0,0,0,0l0,0v0.06a2.39,2.39,0,0,1,0,.5h0v0.09h0v0.06l0,0.13,0,0h0a1.25,1.25,0,0,0,0,.18h0l0,0.13h0v0.1l-0.07.11h0v0.05a0.44,0.44,0,0,1,0,.1h0s0,0,0,0h0l0,0h0l0,0,0,0h0l-0.08,0,0,0h0v0h0l-0.06,0v0l-0.06,0h0l0,0s0,0,0,0-0.08,0-.07,0l0,0,0,0.05v0h-0.05v0l0,0,0,0H474a0,0,0,0,1,0,0h0l0,0,0,0h0l0,0a0,0,0,0,0,0,0l0,0,0,0h0s0,0,0,0l0,0,0,0h0l0,0,0,0v0h0s0,0-.05,0h0v0l0,0h0l0,0a0.05,0.05,0,0,0,0,0,0.05,0.05,0,0,1,0,0,0.1,0.1,0,0,1-.08,0l0,0,0,0,0,0h-0.1l0,0v0a0.11,0.11,0,0,1-.08,0v0h0l0,0a0.07,0.07,0,0,0-.09,0l-0.08-.07,0-.06h0l-0.16-.25h0v0h0s0,0,0,0a0.31,0.31,0,0,1-.09-0.14,0.35,0.35,0,0,0,0-.14v-0.07h0v0l0,0,0,0h0a0.27,0.27,0,0,1,0-.21l0,0,0,0,0,0h0.05a0,0,0,0,0,0,0l0,0h0a0.17,0.17,0,0,0,0-.08,0.09,0.09,0,0,1,0,0s0,0,0,0v-0.07l0,0V300.5h0v0a0.06,0.06,0,0,1,0,0v-0.23h0a0.17,0.17,0,0,1,0-.13h0l0,0a0.29,0.29,0,0,1,0-.22h0l0,0h0a0.24,0.24,0,0,1,0-.09,0.12,0.12,0,0,0,0-.09v-0.09s0,0,0,0,0,0,0,0l0,0h-0.06a0.07,0.07,0,0,1,0,0,0,0,0,0,1,0,0,0.44,0.44,0,0,0,0-.11v-0.06l0,0,0-.07v0h0a4.19,4.19,0,0,1,0-.44l0,0,0-.07a1.22,1.22,0,0,1,.31-0.69,0.92,0.92,0,0,1,.69-0.28,0.83,0.83,0,0,1,.65.32,1.34,1.34,0,0,1,.29.68,0.1,0.1,0,0,0,0,0,1.27,1.27,0,0,1,0,.23,0.09,0.09,0,0,1,0,.05m-2,.81h0Zm0,1.37h0Zm0-1.27h0m0,1.3h0l0,0m0-1.37h0Zm0,1h0a0,0,0,0,0,0,0h0Zm0,0.14h0a0,0,0,0,0,0,0h0a0,0,0,0,0,0,0m0,0.13,0,0h0l0,0m0-1.32,0,0,0,0v0Zm0,0.43h0Zm0,0.83h0Zm0-.17h0Zm0,0.53h0Zm0-.62h0Zm0,0.43h0Zm0-1.52h0v0h0s0,0,0,0m0,0.17h0Zm0,0.36h0l0,0Zm0,0.85,0,0h0l0,0,0,0h0l0,0,0,0h0Zm0,0.37v0h0Zm0-1.28h0l0,0h0Zm0,0.33h0l0,0h0.06Zm0,0.4h0m0,0.26h0v0h0Zm0-1.61h0Zm0,0.26h0v0Zm0,1h0v0h0v0h0v0h0Zm0,0.14h0l0,0h0Zm0-.19h0Zm0,0.08h0l0,0,0,0m0-1.53h0v0h0v0Zm0,1.72v0h0a0,0,0,0,1,0,0h0Zm0-.37h0ZM473,301v0h0s0,0,0,0l0,0h0s0,0,0,.05h0v0H473Zm-0.06-.9a0,0,0,0,0,0,0h0l0,0h0Zm0,0.26h0v0Zm0,0.68h0Zm0,0.17h0v0h0l0,0m0-1.45v0h0Zm0.06,0.38h0a0,0,0,0,0,0,0,0,0,0,0,1,0,0h0s0,0,0,0v0a0.05,0.05,0,0,0,0,0,0.11,0.11,0,0,1,0,0m-0.06,1.11h0Zm0-1.42v0h0v0h0Zm0,0.67v0h0v0Zm0,1.19h0Zm0-2.09h0Zm0,1.27h0Zm0-.8h0v0h0Zm0,0v0l-0.05,0h0l0,0h0v0h0Zm0,0.72h0Zm0,0.13h0a0,0,0,0,0,0,0v0l0,0v0h0Zm0,0.11h0v0h0v0a0.11,0.11,0,0,0,0-.06h0Zm0,0.12h0Zm0-1.87h0Zm0,0.4h0v0h0Zm0,1h0a0,0,0,0,0,0,0h0Zm0-1.09h0v0h0Zm0-.39h0l0,0h0Zm0,0.12h0v0Zm0,0.35h0v0h0v0Zm0-.23h0Zm0-.07h0a0,0,0,0,1,0,0l0,0h0a0,0,0,0,0,0,0h0Zm0,0.27h0l-0.05,0,0,0h0v0h0.09m0,0.08h0l0,0m0,0.11h0v0h0Zm0,0.9h0l0,0h0v0m0-.64h0v0h0l0,0Zm0,0,0,0,0,0h0Zm0,0.09h0Zm0,0.48h0Zm0,0.16h0v0h0m0,0.13h0Zm0-1.56h0v0h0v0Zm0,0.82h0Zm0,0.55h0Zm0-.39v0h0m0.05-1v0h0l0,0h0.08m-0.06,1.68,0,0h0Zm0-1.48h0v0h0Zm0,0.65v0Zm0,0.64v0h0Zm0,0.14h0v0h0Zm0-1.46,0,0h0l0,0h0Zm0,0.55h0l0,0h0Zm0,0.54,0,0-0.06,0h0v0h0Zm-0.06-.6h0Zm0,1.63h0Zm0-2.23h0a0,0,0,0,0,0,0h0s0,0,0,0,0,0,0,0l0,0h0Zm-0.07.44v0h0Zm0,0.89h0Zm0.06-1.19h0v0h-0.06v0h0l0,0h0s0.05,0,.05,0h0Zm-0.08,1.31h0Zm0-.62h0v0h0m0,0.54h0l0,0h0v0Zm0-1h0Zm0,1.22h0v0Zm0,0v0h0s0,0,0,0m0-1v0h0Zm0-.43h0Zm0,0.74h0Zm0,1.53h0Zm0-2h0v0Zm0,0.5h0Zm0,0.49h0Zm0.06-1h0s0,0,0,0h0a0,0,0,0,0,0,0l0,0h0l0,0a0,0,0,0,1,0,0v0h0v0h0Zm-0.06.4h0Zm0-.55,0,0v0h0Zm0,0h0m0,0.47h0Zm0,0.34a0,0,0,0,1,0,0v0h0Zm0,0.19h0v0h0a0.07,0.07,0,0,0,0,.05h0Zm0,0a0.09,0.09,0,0,1,0,.06l0-.06m0-.35h0Zm1.11-.4h0l0,0h0a0.11,0.11,0,0,1,0-.09s0-.05,0-0.05h0v-0.1h0l0,0s0-.11,0-0.2l0,0h0q0-.31-0.06-0.61a0.4,0.4,0,0,0-.38-0.39,0.25,0.25,0,0,0-.15,0l0,0v0a1.26,1.26,0,0,0-.15.19h0l0,0a0.73,0.73,0,0,0-.09.31v0l0,0a0,0,0,0,0,0,0h0v0.08a0.1,0.1,0,0,0-.08,0h0l0,0v0h0l0,0.05,0,0v0l0,0v0l0,0,0,0h0l0,0v0l0,0,0,0v0h0l0.05,0h0a0,0,0,0,1,0,0h0l0,0a0.09,0.09,0,0,1,.08,0l0,0,0,0h0v0h0v0h0s0,0,0,0l0,0v0h0v0l0.07,0.06,0,0,0,0h0v0h0l0,0h0l0,0.05h0s0,0,0,0l0,0h0l0,0v0l0,0,0,0h-0.05l0,0v0h0s0,0,0,0l-0.07.06,0.06,0v0.06a0,0,0,0,1,0,0h0l0,0-0.05,0h0l0,0,0,0h0s0,0,0,0h0l0,0s0,0,0,0v0a0,0,0,0,0,0,0h0l0,0.05s0,0,0,0v0l0,0h0l0,0h0v0h0v0.07h0l0,0h0l0,0,0,0h0l0.06,0,0,0h0l0,0,0,0h0v0h0s0,0,0,0l0,0h0l0,0h0.05l0,0h0v0l0,0s0,0,0,0a0.05,0.05,0,0,1,0,0l0,0h0l0,0h0v0l0,0v0h0l0,0h0l0,0h0.07v0H473.3l0,0a0,0,0,0,0,0,0h0l0.06,0h0l0,0v0h0l0,0a0.5,0.5,0,0,0,.14.14,0.31,0.31,0,0,0,.17.08h0.08a1.17,1.17,0,0,0,.23-0.16h0l0.12-.23h0a0.07,0.07,0,0,0,0-.06,0.64,0.64,0,0,0,0-.21,0.41,0.41,0,0,1,0-.1h0a0.14,0.14,0,0,0,0-.13l0-.05,0,0v-0.22l0-.05V300h0Zm-1.11.95h0v0h0Zm0-.7,0,0h0v0h0Zm0,0.29h0a0,0,0,0,1,0,0h0l0,0m0-1h0v0a0,0,0,0,0,0,0h0Zm0,0.51h0v0h0Zm0,0.12h0s0,0,0,0h0v0h0Zm0,0.21h0v0Zm0-.61h0Zm0,0.53h0Zm0,0.6h0v0h0Zm0-1.21h0m0,0.71h0m0-.12h0Zm0,0.14h0m0-.83,0,0v0h0Zm0,1.32h0Zm0,0.87h0v0Zm0-1.88h0Zm0,0.57s0,0,0,0v0h0Zm0,0.09h0Zm0,0.42h0m0-1.37h0l0,0a0,0,0,0,1,0,0h0m0,0.06h0Zm0,0.05h0v0h0Zm0,0h0Zm0,0.41v0h0Zm0-.76h0Zm0,0.07h0v0Zm0,1.49v0h0l0,0m0,0.06h0Zm0,1h0Zm0-2.65,0,0h0l0,0h0Zm0,1.93h0Zm0-1.21h0v0h0Zm0,0.07h0a0,0,0,0,0,0,0s0,0,0,0h0m0,0.43h0v0Zm0,0.29h0Zm0,1.16,0,0v0h0.05m0-2.4h0s0,0,0,0m0,0.38h0Zm0,0.35h0m0,0.38h0Zm0,0.12h0m0,0.72h0v0h0Zm0-2.23h0Zm0,2.54v0h0Zm0-.66h0Zm0-2.08h0a0,0,0,0,0,0,0s0,0,0,0h0s0,0,0,0m0,2.93h0Zm0.15,0-0.05,0v0l0,0h0l0,0h0v0a0.07,0.07,0,0,0,.05,0h0v0h0Zm-0.05-.1h0Zm0-4h0Zm0,3.21h0v0h0Zm0,0.88h0m0,0.07h0Zm0-.21h0v0h0v0Zm0,0.06h0l0,0h0v0Zm0-.73v0h0v0Zm0,0.16h0Zm0.05,0.43h0l0,0h0l0,0m0-3.73h0v0h0Zm0,4h0Zm0.29-.32h0v0h0a0,0,0,0,1,0,0,0,0,0,0,1,0,0l0,0v0h0v0h0v0l0,0a0,0,0,0,0,0,0v0h0a0.06,0.06,0,0,0,0-.06h-0.06a0.09,0.09,0,0,1-.08,0,0,0,0,0,1,0,0h0l0,0v0h0l0,0h0a0.12,0.12,0,0,1,0,.07l0,0h0a0,0,0,0,1,0,0h0.09l0,0,0,0Zm-0.24.24-0.06,0h0l0,0,0,0v0h0Zm0-.72h0m0,0.22h0Zm0,0.32h0Zm0,0.08h0v0h0Zm0.14-.26,0,0h0l0,0h0a0.06,0.06,0,0,0,0,0v0s0,0,0,0h0v0h0a0,0,0,0,1,0,0h0l0-.06h0l0,0h0.1Zm-0.15.33h0Zm0-.13h0v0Zm0,0.1a0,0,0,0,0,0,0h0l0,0h0Zm0-.42h0Zm0-.23v0h0Zm0,0.75,0,0h0v0Zm0-.41h0Zm0-.27h0Zm0,0.73h0Zm0-.42h0Zm0,0.28a0,0,0,0,0,0,0h0v0h0m0-.2h0Zm0,0.36h0v0h0Zm0-.38h0l0,0h0Zm0,0.27,0,0h0v0h0Zm0-.55h0v0h0Zm0-.07h0Zm0,0.53h0Zm0,0.18h0Zm0-.28h0l0,0h0Zm0,0.11h0Zm0,0.06h0Zm0.06,0a0,0,0,0,0,0,0l0,0h0s0,0,0,0h0m0-.63h0Zm0-3.07h0Zm0,3.28h0Zm0,0.09h0Zm0,0.45h0v0Zm0.07,0v0h0v0h0v0h0l0,0,0,0v0h0v0Zm0-.61h0Zm0,0.56h0Zm0,0.11h0Zm0.05-.1h0Zm0-.05h0v0Zm0,0.13h0Zm0.07-.05h0Zm0,0h0Zm0-.07h0v0h0Zm0-.1h0Zm0-.56h0Zm0,0.62h0v0h0m0,0.08h0Zm0-.14h0Zm0,0h0s0,0,0,0h0Zm0-1.19h0Zm0,1.19h0v0h0v0h0Zm0-2.32h0l0,0Zm0,0h0m0,1.12h0v0h0v0Zm0-.5h0Zm0,0.28a0.09,0.09,0,0,0,0,0v0h0v0h0Zm0,0h0v0h0Zm0,0,0,0h0Zm0-1.18v0h0v0Zm0,0.67h0Zm0,0.26h0v0a0.09,0.09,0,0,1,0,.05Zm0,1.53h0Zm0,0,0,0h0Zm0-1.57v0h0v0h0v-0.06Zm0-.15h0a0,0,0,0,1,0,0v0.07h0a0.63,0.63,0,0,0,0-.12m0.08-.54h0s0,0,0,0,0,0,0,0h0l0,0,0,0a0,0,0,0,0,0,0v0Zm-0.05.38v0.05a0.25,0.25,0,0,1,0,.06h0l0,0a0.36,0.36,0,0,0,0-.12v0h0Zm0.18-.6-0.06,0h0s0,0,0,0h0l0,0h0a0.1,0.1,0,0,0,0-.07v0.06a0.07,0.07,0,0,0,0,.05l-0.06,0h0a0.06,0.06,0,0,0-.05,0,0.15,0.15,0,0,0,.12,0h0v0Zm-0.15.13h0Zm0,1.1h0m0-1h0Zm0,0.3h0V300a0.19,0.19,0,0,1,0-.08m0,1.74h0Zm0-.46h0v0Zm0-.49,0,0v0h0Zm0-.86,0,0,0,0m0-1.27h0v0h0Zm0.06,1.09v0h0l-0.05.16h0a1.26,1.26,0,0,0,.05-0.16h0ZM474.41,301h0Zm0,0.82h0Zm0-3.86h0v0h0Zm0,3.8h0Zm0-2.22h0l0,0.05Zm0,2.12h0l0,0h0Zm0-.89h0Zm0-1.27h0v0h0Zm0,0h0v0h0Zm0,1.87h0l0,0v0h0Zm0-1.23,0,0h0v0Zm0,0.94h0Zm0,0.4h0Zm0-.45h0v0Zm0-.19h0Zm0-2.49h0l0,0h0l0,0m0,0.71h0v0h0Zm0,1.12h0Zm0,1h0Zm0-.55h0m0-.75h0v0h0Z" transform="translate(-134.54 -270.39)"/><path class="cls-2" d="M478.06,302.11s-0.07.06-.21,0.06a0.72,0.72,0,0,1-.45-0.07v0s0,0,0,0l-0.16,0-0.07,0h-0.4l0,0h0s0,0,0,0l0-.05V302l0,0c0-.25-0.05-0.39-0.05-0.4a0.26,0.26,0,0,1,.29-0.28,0.15,0.15,0,0,0,.18-0.14,2.33,2.33,0,0,0,0-.23,0.93,0.93,0,0,1,0-.24s0,0,0,0l0-.07a0.74,0.74,0,0,0-.28-0.06l-0.29,0a0.25,0.25,0,0,0-.19.05l-0.1.11h0a0.73,0.73,0,0,0-.07.21,1.09,1.09,0,0,0,0,.24,0.15,0.15,0,0,0,.16.15l0.25,0a0.89,0.89,0,0,1,0,.19V302h0l0,0h0a0.12,0.12,0,0,1,0,.13l0.06,0a0,0,0,0,1,0,0s0,0,0,0v0a0.07,0.07,0,0,1-.09.08h-0.44v0h0v0h-0.48s0,0,0,0h-0.07l0,0h0l0,0-0.11,0h0a0.09,0.09,0,0,1-.06-0.06l0-.09,0.07,0v0h0l0.05,0,0,0s0,0,0,0l0,0s0,0,0,0h0l0.06,0h0l0,0a0,0,0,0,0,0,0,0,0,0,0,1,0,0v0h0s0,0,0,0,0,0,0,0h0v0h0v0h0v0h0v0h0s0,0,0,0v0s0,0,0,0l0-.05h0v0a0,0,0,0,1,0,0s0,0,0,0l0-.08h0s0,0,0,0h0v-0.06h0l0,0a0,0,0,0,1,0,0h0l0-.07,0-.09a1,1,0,0,0,.4-0.09h0a0.82,0.82,0,0,0,.12-0.29,2.73,2.73,0,0,1,.09-0.32h0a0.88,0.88,0,0,1,.07-0.24,0.42,0.42,0,0,1,.1-0.19,0.14,0.14,0,0,1,0-.07l0.11-.45h0l0.21-.76h0l0.1-.36a0.73,0.73,0,0,1,0-.21,0.94,0.94,0,0,0,0-.2,0,0,0,0,0,0,0l0.09-.05h0l-0.06-.09,0.13-.35h0.09l0.09,0a1.23,1.23,0,0,1,.08.27,2.29,2.29,0,0,1,.06.27,1.1,1.1,0,0,0,.06.29,1.12,1.12,0,0,1,.06.28,2,2,0,0,0,.06.32,1.64,1.64,0,0,1,.05.34h0v0l0,0.13h0l0,0.13h0s0,0,0,.06,0,0.09,0,.14a0.68,0.68,0,0,1,0,.09,0.17,0.17,0,0,0,0,.05s0,0,0,0l0,0.08h0l0,0.13,0,0.14c0,0.09,0,.14,0,0.16l0,0.09s0,0,0,0,0,0,0,0a0.77,0.77,0,0,0,0,.09l0,0.12h0a3.19,3.19,0,0,0,.12.36,1.09,1.09,0,0,0,.42.14v0a3.25,3.25,0,0,0,0,.37c0,0.2,0,.33,0,0.38m-2.89-.12h0Zm0,0h0Zm0,0h0Zm0-.14h0Zm0,0h0v0h0Zm0-.18h0v0h0v0Zm0,0.24h0Zm0-.12h0Zm0-.4,0,0h0v0h0Zm0,0.42v0h0Zm0-.2h0l0,0m0.06,0.28a0,0,0,0,1,0,0h0l0,0h0v0l0,0h0m0,0.06h0m0.18-.11h0Zm1.31-1.75a2.23,2.23,0,0,1,0-.31,0.05,0.05,0,0,1,0-.05l0,0a0.08,0.08,0,0,1,0-.08h0v-0.06a0.06,0.06,0,0,1,0,0,0.17,0.17,0,0,0,0-.1v0s0,0,0,0a0.11,0.11,0,0,1,0,0l0,0h0a0.56,0.56,0,0,1-.05-0.14,0.07,0.07,0,0,1,0,0,0.23,0.23,0,0,1,0-.07v0h0v0l0,0,0,0a0.15,0.15,0,0,0,0,.07,0.25,0.25,0,0,1-.07.12v0s0,0,0,0h0a0.74,0.74,0,0,0,0,.11l0,0a0.39,0.39,0,0,1,0,.13s0,0,0,0l0,0a0,0,0,0,0,0,0h0a0.14,0.14,0,0,1,0,.06,0.07,0.07,0,0,0,0,.06,0.2,0.2,0,0,1,0,.13h0a0.65,0.65,0,0,0,0,.13h0a0.06,0.06,0,0,1,0,0h0.2l0.38,0m-0.54-1.19v0h0v0Zm0-.43h0Zm0.3,3.19h0Zm0.08-2.7h0v0Zm0.1,3.15h0Zm0-4.31h0v0h0Zm0.22,4.31v0h0Zm0-3,0,0a0,0,0,0,0,0,0h0Zm0,0.41h0l0,0h0Zm0,0.45h0Zm0-.43h0l0,0h0Zm0,0.83h0v0h0v0Zm0-.94h0v0h0m0,0.12h0Zm0,0.1h0Zm0.05,1.92h0v0h0v0Zm0-1.57h0Zm0.12,0.53h0l0,0v0Zm0.38,0.83h0v0Zm0.2,0.56h0a0,0,0,0,0,0,0h0Z" transform="translate(-134.54 -270.39)"/><path class="cls-2" d="M481,301s0,0,0,.05a1.62,1.62,0,0,1-.1.57,0.71,0.71,0,0,1-.36.43v-0.15h0l0,0.07v0l0,0.1-0.13.05v0l-0.18,0-0.23,0H479s0,0-.12,0h-0.06l0,0h0v0h-0.19l-0.07,0v0a1.37,1.37,0,0,0,0-.45h0v0a0.14,0.14,0,0,1,0-.14h0l0-.1a0,0,0,0,0,0,0l0.26-.07a0.33,0.33,0,0,0,.17-0.2h0l0,0h0l0-.07,0.11,0,0-.06,0,0h-0.06a0,0,0,0,1,0,0,0.35,0.35,0,0,1,0-.09v-0.08h0a1.11,1.11,0,0,1,0-.18v-0.08l0.09,0,0.05,0.08v-0.07h0a0,0,0,0,0,0,0v0a0.28,0.28,0,0,1,0-.09v-0.06h0a0.19,0.19,0,0,1-.09,0l-0.08,0h0.09l0,0h0l0.06,0.06,0-.05v0l0,0.11v0.06h0.07v0l0,0,0,0v-0.07h0a0.74,0.74,0,0,0,0-.19l0,0.07,0-.07-0.11,0h0l0.09,0h0a0,0,0,0,1,0,0s0,0,0,0h0v0a0.21,0.21,0,0,0-.15,0l0.09,0,0,0v0h-0.06a0.07,0.07,0,0,0,.05,0l0-.07s0,0,0,0l0,0.13H479c0-.13,0-0.3,0-0.52h0s0,0,0-.06l0-.09v-0.26s0,0,0,0v-0.09h0l0.06,0v0.05h0a0,0,0,0,0,0,0v0l-0.12-.07s0,0,0,0h0l0.09,0.05h0l-0.07-.09,0,0s0,0,0,0l0,0a0.55,0.55,0,0,1,0-.21,1.15,1.15,0,0,0,0-.22h0a0.28,0.28,0,0,0-.2-0.17h0l-0.15-.05h0l-0.05,0-0.06,0h0s0,0,0,0l-0.05-.05c0-.09,0-0.21,0-0.36v-0.28l0.12-.09h0l0.81,0h0.59a0.83,0.83,0,0,1,.51.14,1.35,1.35,0,0,1,.32.43l0,0.08,0,0a0.15,0.15,0,0,0,0,.09l0.08,0,0,0.15a0.07,0.07,0,0,0-.06,0v0l0,0a0,0,0,0,0,0,.06V298.5s0,0.09,0,.18,0,0.13,0,.17V301Zm-2.39-2.65h0s0,0,0,0v0h0Zm0,3.27v0h0m0,0.1h0Zm0-3.65h0m0,3.84h0Zm0.05-.49h0v0h0a0,0,0,0,1,0,0h0.05Zm0,0.36h0l0,0h0a0,0,0,0,0,0,0m0-.1h0v0h0Zm0-3.52h0v0Zm0,3.34v0h0Zm0,0.18v0h0v0h0Zm0-.28h0v0m0,0.55h0Zm0-3.71v0h0Zm0-.27,0,0h0v0h0Zm0,0.21h0m0-.36h0Zm0,3.58h0Zm0.05,0.06h0a0,0,0,0,0,0,0h0Zm0-.06h0v0h0Zm0.1-3.16h0Zm0.06,0h0Zm0,3.6,0,0h0v0h0Zm0,0.28,0,0h0v0Zm0.06-1.94h0l0,0v0h0v0Zm0-.83h0Zm0,2.4h0v0Zm0-1.2h0v0h0v0Zm0-.32h0Zm0,0.54h0a0,0,0,0,0,0,0s0,0,0,0h0Zm0,1.2v0h0Zm0-.72v0h0l0,0v0.06h0.06Zm0,0.48v0h0l-0.05.18,0,0a0.05,0.05,0,0,0,0,0,0.19,0.19,0,0,1,0-.06,0.19,0.19,0,0,0,0-.07v0m0-1,0,0h0l0,0h0Zm0-.38h0l0,0h0a0,0,0,0,1,0,0m0.07-.27,0,0h0a0,0,0,0,1,0,0h0v0a0,0,0,0,0,0,0,0.06,0.06,0,0,0,0-.06l0,0v-0.09Zm0.27,1.45a0.9,0.9,0,0,0-.15-0.31l-0.21-.28,0.11,0.17a0.61,0.61,0,0,1,.13.19,0.88,0.88,0,0,1,.08.23h0Zm-0.34-.88h0v0h0Zm0-2.4h0v0s0,0,0,0h0Zm0,3.28h0Zm0-.94v0h0Zm0,0.06h0Zm0-.76h0Zm0.14,0.76h-0.12v0h0.12Zm-0.1-.55h0v0Zm0.06,0.45s0-.07-0.05-0.06h0v0l0,0v0s0,0,0,0v0.05Zm0,0.16h0a0,0,0,0,1,0,0h0v0l0.06,0,0,0v0Zm-0.06-.63v0Zm0,0.88h0Zm0-1.33h0Zm0,0.71h0v0.09a0,0,0,0,0,0,0s0-.07,0-0.12m0-.22h0v0h0v0Zm0,0.48v-0.05h0v0m1,0a2.83,2.83,0,0,1,0-.52h0a7.58,7.58,0,0,1,0-1.11s0,0,0,0l0-.1h0l0-.06a0.32,0.32,0,0,1-.08-0.12,0.32,0.32,0,0,0-.08-0.11l0.06,0v-0.1a0.11,0.11,0,0,1-.09,0h0a1.07,1.07,0,0,0,.08-0.26,0.06,0.06,0,0,0-.05-0.06h-0.11l0.09,0,0.06,0v0a0.33,0.33,0,0,1-.08.19l-0.09-.1a0.17,0.17,0,0,1,0-.11l0,0h0a0.32,0.32,0,0,1,.06.15l0,0,0,0-0.08.07,0-.06-0.45.1,0,0a0.11,0.11,0,0,0-.05.12,0.47,0.47,0,0,1,0,.14v0.64q0,0.33,0,1t0,1H480l0.05,0a0.21,0.21,0,0,1,.12-0.09,0.63,0.63,0,0,0,.18-0.18,0.8,0.8,0,0,0,.13-0.22h0a0.21,0.21,0,0,0,0-.12v-0.12Zm-0.93,1v0h0v0Zm0-3.23h0Zm0,3.12h0v0h0v0Zm0.32-3.14h0v0h0Zm0.13,3.31h0s0,0,0,0h0v0Zm0-3.6h0Zm0,0.24v0h0Zm0,0,0,0h0v0m0,0.05,0,0h0v0Zm0-.05h0Zm0.1,0.08,0,0.05-0.07,0,0.06-.07Zm0,0.06v0s0,0,0,0h0Zm0,3.26h0m0-3.74h0v0h0Zm0,0.48,0,0v-0.06h0Zm0.05,0,0,0v0h0v0Zm0,3.6h0v0h0v0.05Zm0-3.51v0h0v0h0m0.07,0h0v0h0l0,0Zm0.06,2.48s0,0,0,0h0v0h0Zm0-2.33v0h0s0,0,0,0m0,0a0,0,0,0,0,0,0h0Zm0,1.39v0h0V300h0V300h0Zm0.08-2.12h0s0,0,0,0,0,0,0,0l0,0.06a1.09,1.09,0,0,0,0,.24,1.52,1.52,0,0,0,.07-0.34m0.12,0.18h0a0.23,0.23,0,0,0-.06.11,0.21,0.21,0,0,1-.06.11,0.07,0.07,0,0,1,0-.05V298.2l0,0.08h0l0,0v0.31h0.07v-0.12h0v0a0.3,0.3,0,0,1,0-.08,0.36,0.36,0,0,0,0-.08s0,0,0,0l0,0a0.15,0.15,0,0,0,0-.11V298.1Zm-0.12,3.55a0.13,0.13,0,0,0,0,.11,0.2,0.2,0,0,0,0,.08,0,0,0,0,0,0,0v0l0-.05a0.46,0.46,0,0,0,0-.13m0-1.31v0h0Zm0,0s0,0,0,0h0v0l0,0h0l0,0h0Zm0-.09s0,0,0,0a0,0,0,0,0,0,0l0,0v0h0Zm0-2.07h0a1.23,1.23,0,0,0,0,.13h0a0.25,0.25,0,0,0,0-.13m0,2.11h0Zm0-.09h0v0h0v0Zm0,1.44v0Zm0.05-3.62,0,0.14h0a0.19,0.19,0,0,0,0-.11v0Zm0,2.26h0v0Zm0-1.78h0v0h0v0Zm0,2.85,0,0.07h0l0,0v0h0v0Zm0-2.69v-0.33a0.21,0.21,0,0,0,0,.11v0h0a0.1,0.1,0,0,0,0,.08v0.09h0Zm0-.71,0,0.16h0a0.09,0.09,0,0,0,0-.06v0a0.71,0.71,0,0,0,0-.08m0,3.05h0Zm0-1.36v0l0,0v0h0s0,0,0,0h0Zm0,0.31v-0.16h0V300Zm0.1,0.28v0a0.1,0.1,0,0,0,0,0,0,0,0,0,0,0,0V300c0-.12,0-0.17-0.05-0.17h0v0.14h0v0a0.27,0.27,0,0,1,0,.08,0.17,0.17,0,0,0,0,.1h0v0a0.15,0.15,0,0,0,0,.1,0.5,0.5,0,0,0,0,.06v0.06a1,1,0,0,1,.1-0.21,0.18,0.18,0,0,1,0,.1m-0.13.17v0.08l0-.14a0.07,0.07,0,0,0,0,.06m0-.76v0Zm0,0.35h0v0.13a0.14,0.14,0,0,0,0-.07V300Zm0-1.44v-0.07l0,0,0,0v0h0v0Zm0,1.11v0h0v0Zm0-.06h0v0Zm0,0.71a0.2,0.2,0,0,0,0,.12,0.61,0.61,0,0,0,0-.12m0-2.07v0l0,0v0Zm0,0.38v0Zm0.1,1.07a0,0,0,0,0,0,0l0,0,0,0h0l0,0,0,0v0l0,0.06h0s0,0,0,0m-0.09-1.33h0Zm0,1.81,0,0.11h0c0-.08,0-0.11,0-0.08a0.06,0.06,0,0,0,0,0m0.06,0a1.48,1.48,0,0,0-.06.31h0l0,0,0,0v0a0.78,0.78,0,0,1,0-.1l0-.09m0-2h0a0,0,0,0,1,0,0l0,0v0Zm0-.08h0v0Zm0,0.15v0h0v0Zm0,1.37v0h0Z" transform="translate(-134.54 -270.39)"/><path class="cls-2" d="M484.78,302.1l-0.1.05H484.5s-0.05,0,0,0h-0.23l-0.39,0,0,0a0.34,0.34,0,0,0-.15,0l0,0,0,0-0.14,0,0,0h0l0,0h0v0a0.08,0.08,0,0,1,0-.05h0s0,0,0,0h0l0,0V302l0,0h0l0-.12,0,0,0-.1v-0.06h0a1.31,1.31,0,0,1,0-.28v-0.06l0.2,0,0.12-.1h0a0,0,0,0,0,0-.06l0-.07h0v0h0v0s0,0,0,0v-0.12s0,0,0,0l0-.09h0l0-.11a0.77,0.77,0,0,1,0-.13v0l0,0h0a0.08,0.08,0,0,0,0,0l0-.12h0l0,0v-0.12a0.09,0.09,0,0,0-.09-0.09h-0.19l0,0v0h0a0.65,0.65,0,0,1-.42,0l-0.06,0h0l-0.18.09,0,0.07v0.06h0s0,0,0,0,0,0,0,0l0,0h0l0,0,0,0.06,0,0.06h0s0,0.07,0,.11,0,0.08,0,.1v0.08h0l0,0.06h0s0,0,0,.06l-0.05,0h0l0,0,0,0h0a0.08,0.08,0,0,0,0,.06v0l0,0a0,0,0,0,1,0,0s0,0,0,0h0l0,0h0l0,0.16h0v0a0.33,0.33,0,0,0,.21.11h0.17l0.07,0a0.72,0.72,0,0,1,0,.11,1.07,1.07,0,0,1,0,.48h0l0,0,0,0.07,0,0s0,0,0,0,0,0,0,0l-0.06,0h0l-0.06,0a0.17,0.17,0,0,0-.08,0H482.6a0.52,0.52,0,0,1-.22,0s0,0,0,0l0,0s0,0,0,0H482.1v0h0l-0.08,0h-0.2a0.35,0.35,0,0,1-.05-0.29l0-.1h0l0,0v0a0.22,0.22,0,0,1,.08-0.16v0l0-.13h0l0-.08v0l0.2-.07,0.06-.09v0s0-.07,0-0.14a1.26,1.26,0,0,0,0-.15s0-.06,0-0.06a0.31,0.31,0,0,0,0-.1s0,0,0-.09,0-.09,0-0.13l0,0V300.4a0.06,0.06,0,0,1,0-.06l0-.09,0,0,0,0h-0.06v-0.06a0.05,0.05,0,0,0,0-.06l0-.07v-0.16l0,0,0,0,0,0v-0.24a0,0,0,0,1,0,0v-0.08h0l0,0a0.11,0.11,0,0,1,0,0,0,0,0,0,1,0,0l0,0a0,0,0,0,1,0,0l0,0,0,0,0-.06,0,0a0.06,0.06,0,0,1,0,0,0.51,0.51,0,0,0,0-.17c0-.06,0-0.12,0-0.18l0-.07,0-.06a0.69,0.69,0,0,0-.2-0.12h-0.33a2.61,2.61,0,0,1,0-.48s0-.09,0-0.17,0-.14,0-0.18a0.7,0.7,0,0,1,.35,0h0.58a2.4,2.4,0,0,1,.42,0,2.37,2.37,0,0,1,0,.61,0.48,0.48,0,0,1,0,.14,0.15,0.15,0,0,0-.09.1,1.38,1.38,0,0,0-.14,0,0.21,0.21,0,0,0-.15.12,0.1,0.1,0,0,0,0,0l0,0.11a0.18,0.18,0,0,0,0,.15s0,0,0,0,0,0,0,.06a0.29,0.29,0,0,1-.06.11l0,0a0,0,0,0,0,0,0h0v0.1h0a0.43,0.43,0,0,0,0,.2h0l0,0,0,0,0,0.16,0.06,0,0,0H483l0,0h0.06s0,0,.1,0v0l0.08,0,0,0h0l0.08,0,0,0,0.27,0h0a0.08,0.08,0,0,0,.07-0.06,0.22,0.22,0,0,0,0-.05h0v-0.2l0,0,0-.08h0c0-.22,0-0.37,0-0.47a0.58,0.58,0,0,1,0-.2,0.27,0.27,0,0,0-.08-0.2h0a0.41,0.41,0,0,0-.29,0,0.76,0.76,0,0,1,0-.27v-0.3h0v-0.28l0,0h0.07l0.2,0h0l0,0.08h0.07s0,0,.1,0v0h0v0l0.06,0-0.06-.08H484l0.39,0a0.32,0.32,0,0,1,.36.35s0,0.11,0,.21,0,0.17,0,.23a0.14,0.14,0,0,1,0,.1l-0.33,0a0.2,0.2,0,0,0-.16.22,0.55,0.55,0,0,0,0,.08l0,0q0,0.28,0,.85l0,0.24h0V300l0,0v0.16h0l0,0,0,0.09v0h0a0.42,0.42,0,0,1,0,.17l0,0.09h0v0h0a0.16,0.16,0,0,1,0,.09,0.38,0.38,0,0,0,0,.07,0.14,0.14,0,0,0,0,.1l0,0h0V301l0,0h0a0.37,0.37,0,0,1,0,.11l0,0h0l0,0.16a0.62,0.62,0,0,0,.38.06v0h0.09l0,0.05v0.73h0v0Zm-3,0h0m0-.23h0v0h0v0Zm0,0h0v0h0Zm0,0.24h0Zm0.07-.24v0h0Zm0.11-.06h0v0h0Zm0.17,0.26h0Zm0-.21h0v0h0v0Zm0,0.2h0v0h0Zm0.06-4.05h0l0,0,0,0a0,0,0,0,0,0,0h0Zm0,4.07h0l0,0m0-3h0Zm0,0.18h0m0,1h0Zm0-1.33h0v0h0Zm0,1.18h0Zm0,0.76h0v0l-0.05,0v0l0,0,0,0m0-2.35v0h0Zm0,1.55h0Zm0,0.72h0Zm0-.32h0s0,0,0,0h0m0,0.31h0Zm0-2.16h0v0Zm0,0.7h0v0h0Zm0,0.31h0Zm0,0.69v0h0m0-1.82h0v0a0.06,0.06,0,0,0,0,0v0m0,2.16h0l0,0Zm0-.75h0m0,0.34h0Zm0,1.75,0,0v0h0Zm0-2.18h0v0h0v0Zm0,0.77h0v0Zm0.06,0.26,0,0s-0.05,0-.05,0h0.08Zm-0.05-.34v0h0Zm0-.28h0m0,1.81h0Zm0-1.9h0Zm0,0.19h0s0,0,0,0h0Zm0,0.07h0v0h0Zm0,0h0Zm0-1.14s0,0,0,0h0a0,0,0,0,1,0,0v0a0.06,0.06,0,0,0,0,0h0Zm0,1.78h0Zm0,0.81,0,0h0v0Zm0-2.78h0Zm0,0.11h0Zm0,1.05h0v0h0Zm0,1.69h0a0,0,0,0,1,0,0v0h0l0,0h0l0,0.05v0Zm0-1.14h0Zm0,0.85h0l0,0h0l0,0m0-1.5v0h0Zm0,0.89h0m0-.34,0,0,0,0h0Zm0-1.3h0Zm0,1.53v0h0v0m0-.78h0Zm0,0.82h0Zm0,1.11h0m0-1.47,0,0v0h0Zm0-1.27h0Zm0,1.19h0Zm0,0.14h0Zm0,0h0v0h0Zm0,0.21h0l0,0h0Zm0,1.13a0.05,0.05,0,0,1,0,0v0h0l0,0v0h0v0Zm0,0.06h0v0h0v0Zm0-3h0Zm0,2.78h0v0Zm0-1.19h0Zm0.08-1.39h0l0-.05v0h0a0.08,0.08,0,0,0,0,.07l0,0h0v0h0Zm-0.05,1.59h0v0Zm0,0.45h0Zm0-1.19h0v0h0Zm0,0.71h0Zm0-.27h0a0,0,0,0,1,0,0,0.05,0.05,0,0,1,0,0,0,0,0,0,1,0,0,0,0,0,0,1,0,0m0,1.49h0Zm0-1.81h0m0,0.85h0Zm0-2.49h0Zm0,2.12,0,0h0v0h0s0,0,0,0h0m0,0.25h0Zm0,1h0Zm0-1h0v0h0Zm0,1.08v0h0Zm0-1.86h0Zm0-.77h0Zm0,0.75h0Zm0-2.55h0l0,0h0Zm0,1.7h0Zm0,1.48h0Zm0.1-.72v0h0l-0.06,0a0.06,0.06,0,0,0,0,.07s0,0,0,0h0.06Zm-0.09-.68h0v0h0Zm0,1.28h0a0,0,0,0,0,0,0h0m0,0.1v0h0Zm0,0.21h0a0,0,0,0,0,0,0h0Zm0-.16h0l0,0v0Zm0-.17v0h0m0-1.67h0Zm0,1.67,0,0h0l0,0h0Zm0-1.13h0Zm0,1.3h0v0h0Zm0,1.19,0,0h0v0h0Zm0-1.23h0m0-1.06h0v0h0Zm0,1.83h0v0h0v0Zm0,0.27,0,0,0,0m0,0.33h0m0-2.33h0l0,0h0Zm0,0h0Zm0,2.14h0Zm0-.45h0Zm0,0.59h0v0l0,0h0Zm0-.13h0v0h0Zm0.07-2.05h0Zm0,1.78h0s0,0,0,0l0,0h0l0,0h0Zm0,0.41h0Zm0-.21h0Zm0.05-2.08h0Zm0,2.31h0Zm0.23-2.28h0Zm0.1-1.7h0Zm0,0h0Zm0.14,0v0l0,0v0h-0.1v0h0a0,0,0,0,0,0,0h0.09a0,0,0,0,0,0,0m-0.11,3.62v0Zm0.11-3.67h0Zm0,1.64h0Zm0,2.19,0,0h0a0,0,0,0,0,0,0m0,0.16h0l0,0h0Zm0.05,0h0Zm0.1,0h0Zm0.07-.65h0Zm0,0.56v0h0v0Zm0-2.8h0Zm0,1.73h0m0-1h0Zm0,0.66h0Zm0,1.48h0Zm0-3.73v0h0l0,0h0Zm0,0.93h0Zm0,1.33h0Zm0,0.36h0v0h0Zm0-1.58h0Zm0,0.08h0Zm0,1.29,0,0h0a0,0,0,0,0,0,0m0,1.23h0v0h0v0Zm0-1.33v0h0Zm0,0.05h0Zm0,0.28h0Zm0,0h0m0-.18h0l0,0h0m0,0.41,0,0h0m0-.46a0,0,0,0,0,0,0h0l0,0a0,0,0,0,1,0,0h0Zm0-.21h0Zm0,0.37h0v0h0v0Zm0-.27,0,0a0,0,0,0,0,0,0h0Zm0-1.08s0,0,0,0h0l0,0m0,0.29h0m0-.72h0v0Zm0,1.39h0Zm0,0.39h0m0-1.69h0Zm0,0.65,0,0h0Zm0,0.53v0h0Zm0-.77h0Zm0,1.11h0m0,0h0Zm0-.9h0v0m0,0.77,0,0h0v0Zm0-.43h0Zm0.5,1.13h0v0Zm0-3.72h0Z" transform="translate(-134.54 -270.39)"/><path class="cls-2" d="M487.51,298.86V299a1.64,1.64,0,0,0,0,.29,0.13,0.13,0,0,0,0,.13v0h0l0,0.13s0,0,0,0l0,0.11h0s0,0,0,0h0v0.07l0,0.06h0l0,0.06v0.06l0,0h0v0.16h0s0,0,0,0l0,0v0.06a2.39,2.39,0,0,1,0,.5h0v0.09h0v0.06l0,0.13,0,0h0a1.26,1.26,0,0,0,0,.18h0l0,0.13h0v0.1l-0.07.11h0v0.05a0.44,0.44,0,0,1,0,.1h0s0,0,0,0h0l0,0h0l0,0,0,0h0l-0.08,0,0,0h0v0h0l-0.06,0v0L487,302h0l0,0s0,0,0,0-0.08,0-.08,0l0,0,0,0.05v0h-0.05v0l0,0,0,0h-0.05a0,0,0,0,1,0,0h0l0,0,0,0h0l0,0a0,0,0,0,0,0,0l0,0,0,0h0s0,0,0,0l0,0,0,0h0l0,0,0,0v0h0s0,0-.05,0h0v0l0,0h0l0,0a0.05,0.05,0,0,0,0,0,0.05,0.05,0,0,1,0,0,0.1,0.1,0,0,1-.08,0l0,0,0,0,0,0h-0.1l0,0v0a0.11,0.11,0,0,1-.08,0v0h0l0,0a0.07,0.07,0,0,0-.09,0l-0.07-.07,0-.06h0l-0.16-.25h0v0h0s0,0,0,0a0.3,0.3,0,0,1-.09-0.14,0.39,0.39,0,0,0,0-.14v-0.07h0v0l0,0,0,0h0a0.28,0.28,0,0,1,0-.21l0,0,0,0,0,0h0.05a0,0,0,0,0,0,0l0,0h0a0.16,0.16,0,0,0,0-.08,0.09,0.09,0,0,1,0,0s0,0,0,0v-0.07l0,0V300.5h0v0a0.05,0.05,0,0,1,0,0v-0.23h0a0.17,0.17,0,0,1,0-.13h0l0,0a0.29,0.29,0,0,1,0-.22h0l0,0h0a0.27,0.27,0,0,1,0-.09,0.11,0.11,0,0,0,0-.09v-0.09s0,0,0,0,0,0,0,0l0,0h-0.07a0.09,0.09,0,0,1,0,0,0,0,0,0,1,0,0,0.4,0.4,0,0,0,0-.11v-0.06l0,0,0-.07v0h0a4.4,4.4,0,0,1,0-.44l0,0,0-.07a1.22,1.22,0,0,1,.31-0.69,0.91,0.91,0,0,1,.69-0.28,0.83,0.83,0,0,1,.65.32,1.35,1.35,0,0,1,.29.68,0.08,0.08,0,0,0,0,0,1.42,1.42,0,0,1,0,.23,0.12,0.12,0,0,1,0,.05m-2,.81h0Zm0,1.37h0Zm0-1.27h0m0,1.3h0l0,0m0-1.37h0Zm0,1h0a0,0,0,0,0,0,0h0Zm0,0.14h0s0,0,0,0h0a0,0,0,0,0,0,0m0,0.13,0,0h0l0,0m0-1.32,0,0,0,0v0Zm0,0.43h0Zm0,0.83h0Zm0-.17h0Zm0,0.53h0Zm0-.62h0Zm0,0.43h0Zm0-1.52h0v0h0s0,0,0,0m0,0.17h0Zm0,0.36h0l0,0Zm0,0.85,0,0h0l0,0,0,0h0l0,0,0,0h0Zm0,0.37v0h0Zm0-1.28h0l0,0h0Zm0,0.33h0l0,0h0.06Zm0,0.4h0m0,0.26h0v0h0Zm0-1.61h0Zm0,0.26h0v0Zm0,1h0v0h0v0h0v0h0Zm0,0.14h0l0,0h0Zm0-.19h0Zm0,0.08h0l0,0,0,0m0-1.53h0v0h0v0Zm0,1.72v0h0s0,0,0,0a0,0,0,0,1,0,0h0Zm0-.37h0Zm0.06,0.41v0h0s0,0,0,0l0,0h0s0,0,0,.05h0v0h0.05Zm-0.06-.9a0,0,0,0,0,0,0h0l0,0h0Zm0,0.26h0v0Zm0,0.68h0Zm0,0.17h0v0h0l0,0m0-1.45v0h0Zm0.06,0.38h0a0,0,0,0,0,0,0,0,0,0,0,1,0,0h0s0,0,0,0v0a0,0,0,0,0,0,0,0.11,0.11,0,0,1,0,0m-0.06,1.11h0Zm0-1.42v0h0v0h0Zm0,0.67v0h0v0Zm0,1.19h0Zm0-2.09h0Zm0,1.27h0Zm0-.8h0v0h0Zm0,0v0l-0.05,0h0l0,0h0v0h0Zm0,0.72h0Zm0,0.13h0a0,0,0,0,0,0,0v0l0,0v0h0Zm0,0.11h0v0h0v0a0.11,0.11,0,0,0,0-.06h0Zm0,0.12h0Zm0-1.87h0Zm0,0.4h0v0h0Zm0,1h0a0,0,0,0,0,0,0h0Zm0-1.09h0v0h0Zm0-.39h0l0,0h0Zm0,0.12h0v0Zm0,0.35h0v0h0v0Zm0-.23h0Zm0-.07h0s0,0,0,0l0,0h0a0,0,0,0,0,0,0h0Zm0,0.27h0l-0.05,0,0,0h0v0h0.09m0,0.08h0l0,0m0,0.11h0v0h0Zm0,0.9h0l0,0h0v0m0-.64h0v0h0l0,0Zm0,0,0,0,0,0h0Zm0,0.09h0Zm0,0.48h0Zm0,0.16h0v0h0m0,0.13h0Zm0-1.56h0v0h0v0Zm0,0.82h0Zm0,0.55h0Zm0-.39v0h0m0.05-1v0h0l0,0h0.08m-0.06,1.68,0,0h0Zm0-1.48h0v0h0Zm0,0.65v0Zm0,0.64v0h0Zm0,0.14h0v0h0Zm0-1.46,0,0h0l0,0h0Zm0,0.55h0l0,0h0Zm0,0.54,0,0-0.06,0h0s0,0,0,0h0Zm-0.06-.6h0Zm0,1.63h0Zm0-2.23h0a0,0,0,0,0,0,0h0s0,0,0,0,0,0,0,0l0,0h0Zm-0.07.44v0h0Zm0,0.89h0Zm0.06-1.19h0v0h-0.06v0h0l0,0h0s0.05,0,.05,0h0Zm-0.08,1.31h0Zm0-.62h0v0h0m0,0.54h0l0,0h0v0Zm0-1h0Zm0,1.22h0v0Zm0,0v0h0a0,0,0,0,1,0,0m0-1v0h0Zm0-.43h0Zm0,0.74h0Zm0,1.53h0Zm0-2h0v0Zm0,0.5h0Zm0,0.49h0Zm0.06-1h0s0,0,0,0h0a0,0,0,0,0,0,0l0,0h0l0,0a0,0,0,0,1,0,0v0h0v0h0Zm-0.06.4h0Zm0-.55,0,0v0h0Zm0,0h0m0,0.47h0Zm0,0.34a0,0,0,0,1,0,0v0h0Zm0,0.19h0v0h0a0.07,0.07,0,0,0,0,.05h0Zm0,0a0.09,0.09,0,0,1,0,.06l0-.06m0-.35h0ZM487,300h0l0,0h0a0.1,0.1,0,0,1,0-.09s0-.05,0-0.05h0v-0.1h0l0,0s0-.11,0-0.2l0,0h0q0-.31-0.06-0.61a0.4,0.4,0,0,0-.38-0.39,0.24,0.24,0,0,0-.14,0l0,0v0a1.27,1.27,0,0,0-.14.19h0l0,0a0.71,0.71,0,0,0-.09.31v0l0,0a0,0,0,0,0,0,0h0v0.08a0.1,0.1,0,0,0-.08,0h0l0,0v0h0l0,0.05,0,0v0l0,0v0l0,0,0,0h0l0,0v0l0,0,0,0v0h0l0.05,0h0a0.05,0.05,0,0,1,0,0h0l0,0a0.09,0.09,0,0,1,.08,0l0,0,0,0h0v0h0v0h0s0,0,0,0l0,0v0h0v0l0.07,0.06,0,0,0,0h0v0h0l0,0h0l0,0.05h0s0,0,0,0l0,0h0l0,0v0l0,0,0,0H485.9l0,0v0h0s0,0,0,0l-0.07.06,0.06,0v0.06a0,0,0,0,1,0,0h0l0,0-0.05,0h0l0,0,0,0h0s0,0,0,0h0l0,0s0,0,0,0v0a0,0,0,0,0,0,0h0l0,0.05s0,0,0,0v0l0,0h0l0,0h0v0h0v0.07h0l0,0h0l0,0,0,0h0l0.06,0a0,0,0,0,0,0,0h0l0,0,0,0h0v0h0s0,0,0,0l0,0h0l0,0H486l0,0h0v0l0,0s0,0,0,0a0.05,0.05,0,0,1,0,0l0,0h0l0,0h0v0l0,0v0h0l0,0h0l0,0h0.07v0h-0.06l0,0a0,0,0,0,0,0,0h0l0.06,0h0l0,0v0h0l0,0a0.5,0.5,0,0,0,.14.14,0.31,0.31,0,0,0,.17.08h0.08a1.17,1.17,0,0,0,.23-0.16h0l0.12-.23h0a0.07,0.07,0,0,0,0-.06,0.66,0.66,0,0,0,0-.21,0.46,0.46,0,0,1,0-.1h0a0.14,0.14,0,0,0,0-.13l0-.05,0,0v-0.22l0-.05V300h0Zm-1.11.95h0v0h0Zm0-.7,0,0h0v0h0Zm0,0.29h0a0,0,0,0,1,0,0h0l0,0m0-1h0v0a0,0,0,0,0,0,0h0Zm0,0.51h0v0h0Zm0,0.12h0s0,0,0,0h0v0h0Zm0,0.21h0v0Zm0-.61h0Zm0,0.53h0Zm0,0.6h0v0h0Zm0-1.21h0m0,0.71h0m0-.12h0Zm0,0.14h0m0-.83,0,0v0h0Zm0,1.32h0Zm0,0.87h0v0Zm0-1.88h0Zm0,0.57s0,0,0,0v0h0Zm0,0.09h0Zm0,0.42h0m0-1.37h0l0,0a0,0,0,0,1,0,0h0m0,0.06h0Zm0,0.05h0v0h0Zm0,0h0Zm0,0.41v0h0Zm0-.76h0Zm0,0.07h0v0Zm0,1.49v0h0l0,0m0,0.06h0Zm0,1h0Zm0-2.65,0,0h0l0,0h0Zm0,1.93h0Zm0-1.21h0v0h0Zm0,0.07h0a0,0,0,0,0,0,0s0,0,0,0h0m0,0.43h0v0Zm0,0.29h0Zm0,1.16,0,0v0h0.05m0-2.4h0s0,0,0,0m0,0.38h0Zm0,0.35h0m0,0.38h0Zm0,0.12h0m0,0.72h0v0h0Zm0-2.23h0Zm0,2.54v0h0Zm0-.66h0Zm0-2.08h0a0,0,0,0,0,0,0s0,0,0,0h0s0,0,0,0m0,2.93h0Zm0.14,0-0.05,0v0l0,0h0l0,0h0v0a0.07,0.07,0,0,0,.05,0h0v0h0Zm-0.05-.1h0Zm0-4h0Zm0,3.21h0v0h0Zm0,0.88h0m0,0.07h0Zm0-.21h0v0h0v0Zm0,0.06h0l0,0h0v0Zm0-.73v0h0v0Zm0,0.16h0Zm0.05,0.43h0l0,0h0l0,0m0-3.73h0v0h0Zm0,4h0Zm0.29-.32h0v0h0a0,0,0,0,1,0,0,0,0,0,0,1,0,0l0,0v0h0v0h0v0l0,0a0,0,0,0,0,0,0v0h0a0.06,0.06,0,0,0,0-.06h-0.06a0.09,0.09,0,0,1-.08,0,0,0,0,0,1,0,0h0l0,0v0h0l0,0h0a0.12,0.12,0,0,1,0,.07l0,0h0a0,0,0,0,1,0,0h0.09l0,0,0,0Zm-0.24.24-0.06,0h0l0,0,0,0v0h0Zm0-.72h0m0,0.22h0Zm0,0.32h0Zm0,0.08h0v0h0Zm0.15-.26,0,0h0l0,0h0a0.06,0.06,0,0,0,0,0v0s0,0,0,0h0v0h0a0,0,0,0,1,0,0h0l0-.06h0l0,0h0.1Zm-0.15.33h0Zm0-.13h0v0Zm0,0.1a0,0,0,0,0,0,0h0l0,0h0Zm0-.42h0Zm0-.23v0h0Zm0,0.75,0,0h0v0Zm0-.41h0Zm0-.27h0Zm0,0.73h0Zm0-.42h0Zm0,0.28a0,0,0,0,0,0,0h0v0h0m0-.2h0Zm0,0.36h0v0h0Zm0-.38h0l0,0h0Zm0,0.27,0,0h0v0h0Zm0-.55h0v0h0Zm0-.07h0Zm0,0.53h0Zm0,0.18h0Zm0-.28h0l0,0h0Zm0,0.11h0Zm0,0.06h0Zm0.06,0s0,0,0,0l0,0h0s0,0,0,0h0m0-.63h0Zm0-3.07h0Zm0,3.28h0Zm0,0.09h0Zm0,0.45h0v0Zm0.07,0v0h0v0h0v0h0l0,0,0,0v0h0v0Zm0-.61h0Zm0,0.56h0Zm0,0.11h0Zm0.05-.1h0Zm0-.05h0v0Zm0,0.13h0Zm0.07-.05h0Zm0,0h0Zm0-.07h0v0h0Zm0-.1h0Zm0-.56h0Zm0,0.62h0v0h0m0,0.08h0Zm0-.14h0Zm0,0h0s0,0,0,0h0Zm0-1.19h0Zm0,1.19h0v0h0v0h0Zm0-2.32h0l0,0Zm0,0h0m0,1.12h0v0h0v0Zm0-.5h0Zm0,0.28a0.11,0.11,0,0,0,0,0v0h0v0h0Zm0,0h0v0h0Zm0,0,0,0h0Zm0-1.18v0h0v0Zm0,0.67h0Zm0,0.26h0v0a0.08,0.08,0,0,1,0,.05Zm0,1.53h0Zm0,0,0,0h0Zm0-1.57v0h0v0h0v-0.06Zm0-.15h0a0,0,0,0,1,0,0v0.07h0a0.74,0.74,0,0,0,0-.12m0.08-.54h0s0,0,0,0,0,0,0,0h0l0,0,0,0a0,0,0,0,0,0,0v0Zm-0.05.38v0.05a0.24,0.24,0,0,1,0,.06h0l0,0a0.36,0.36,0,0,0,0-.12v0h0Zm0.18-.6-0.06,0h0s0,0,0,0h0l0,0h0a0.1,0.1,0,0,0,0-.07v0.06a0.07,0.07,0,0,0,0,.05l-0.06,0h0a0.06,0.06,0,0,0-.05,0,0.15,0.15,0,0,0,.12,0h0v0Zm-0.15.13h0Zm0,1.1h0m0-1h0Zm0,0.3h0V300a0,0,0,0,0,0,0,0.18,0.18,0,0,1,0-.08m0,1.74h0Zm0-.46h0v0Zm0-.49,0,0v0h0Zm0-.86,0,0,0,0m0-1.27h0v0h0Zm0.06,1.09v0h0l-0.05.16h0l0.05-.16h0ZM487.18,301h0Zm0,0.82h0Zm0-3.86h0v0h0Zm0,3.8h0Zm0-2.22h0l0,0.05Zm0,2.12h0l0,0h0Zm0-.89h0Zm0-1.27h0v0h0Zm0,0h0v0h0Zm0,1.87h0l0,0v0h0Zm0-1.23,0,0h0v0Zm0,0.94h0Zm0,0.4h0Zm0-.45h0v0Zm0-.19h0Zm0-2.49h0l0,0h0l0,0m0,0.71h0v0h0Zm0,1.12h0Zm0,1h0Zm0-.55h0m0-.75h0v0h0Z" transform="translate(-134.54 -270.39)"/><path class="cls-2" d="M491,298.45a0.51,0.51,0,0,0-.38.18,0.69,0.69,0,0,0-.09.38c0,0.07,0,.19,0,0.38s0,0.33,0,.43c0,0.29,0,.53,0,0.73t0,0v0.09h0q0,0.48,0,.42a1.37,1.37,0,0,1-.21.9h0a0.16,0.16,0,0,1-.13.1l-0.09,0v0l-0.08,0s-0.05,0-.05,0-0.08,0-.08,0h0v0l-0.05,0a0,0,0,0,1-.06,0h0s-0.06,0-.06,0h0l0,0v0.05h0l-0.08,0-0.12,0h-0.06v0h-0.06s0,0,0,0,0,0,0,0H489.1v0h0l-0.06,0H489a0.35,0.35,0,0,1-.12-0.1,0.31,0.31,0,0,1-.1-0.12,0.6,0.6,0,0,1-.14-0.3h0a0.64,0.64,0,0,0,0-.1,0.35,0.35,0,0,1,0-.12,0.78,0.78,0,0,0,0-.16,0,0,0,0,0,0,0l0,0a0.65,0.65,0,0,1,0-.18l0,0,0-.06a0.08,0.08,0,0,1,0-.08l0-.22,0,0h0v-0.13a0.52,0.52,0,0,1,0-.15l0,0c0-.18,0-0.4,0-0.65l0.06-.09h0l0,0a3.12,3.12,0,0,0-.08-1v0a1.15,1.15,0,0,0-.32,0l0-.11a0.23,0.23,0,0,1,.08-0.23h0l-0.08-.05a1.17,1.17,0,0,0,0-.17q0-.12,0-0.16c0-.11.07-0.17,0.22-0.17l1.15,0,0,0.06c0,0.08,0,.22,0,0.39s0,0.31,0,.4a1.8,1.8,0,0,0-.32.07,1.89,1.89,0,0,0-.1.9c0,0.36,0,.71,0,1.07h0a0.68,0.68,0,0,0,0,.16,1.94,1.94,0,0,0,0,.23v0h0l0,0.1a0.06,0.06,0,0,0,0,0,0,0,0,0,1,0,0,1,1,0,0,0,.16.19,0.45,0.45,0,0,0,.22,0,0.65,0.65,0,0,0,.57-0.15,4,4,0,0,0,.09-1.05V299a1.71,1.71,0,0,0,0-.31,0.36,0.36,0,0,0-.2-0.21h-0.16l0,0q0-.41,0-0.86h0.9a1.3,1.3,0,0,1,.35,0v0.81Zm-2.28,3.18h0Zm0.66,0.52h0v0h0Zm0.21-.15,0,0,0,0m0.22,0.08,0,0v0h0Zm0.28-.41h0v0h0Zm0,0.42h0m0.28-.37h0v0h0v0Z" transform="translate(-134.54 -270.39)"/><path class="cls-2" d="M493.51,301.31a0.12,0.12,0,0,1,0,0v0.07a0.16,0.16,0,0,1,0,.1l0,0.1h0a0.67,0.67,0,0,1-.38.46v0l0,0h0s0,0,0,0h-0.05l0,0a0.19,0.19,0,0,0,0-.06,0.12,0.12,0,0,1,0-.06,0.16,0.16,0,0,1-.05.13l0,0,0,0-0.06,0,0,0a0,0,0,0,1,0,0s0,0,0,0a0,0,0,0,0,0,0v0s-0.06,0,0,0,0,0,0,0a0,0,0,0,1,0,0l0,0s0,0,0,0l0,0,0,0v0h0l0,0v0l0,0h0v0h0l0,0s0,0,0,0l-0.05,0h0l-0.08,0h0l-0.05,0v0h0a0.23,0.23,0,0,0-.11.16h0a0,0,0,0,0,0,0l-0.08,0s-0.05,0-.06,0v0a0,0,0,0,1,0,0h0a0.05,0.05,0,0,0,0,0V302h0l0,0V301.9h0a0.14,0.14,0,0,0,0-.1v-0.17h0a1.44,1.44,0,0,1,0-.42,3.43,3.43,0,0,0,0-.42v0h0a2.8,2.8,0,0,1,0-.54h0.1l0.19,0,0,0.16,0,0.07h0a0.34,0.34,0,0,1,.05.12,0.37,0.37,0,0,1,0,.11,1,1,0,0,1,.07.23,1.26,1.26,0,0,1,.14.21h0a0.75,0.75,0,0,0,.19.17h0l0,0v0a0.28,0.28,0,0,0,.13,0h0.12l0.06,0a0,0,0,0,0,0,0h0l-0.07,0,0,0v0l0.09-.09,0.09-.12v0h0v0l0,0,0,0,0,0s0,0,0,0l0,0,0,0v0h0s0,0,0,0,0,0,0,0a0.05,0.05,0,0,1,.06-0.06v0h0l0,0,0,0,0,0-0.05,0,0,0,0,0s0,0,0,0h0v0c0.06,0,.08,0,0.08,0l0,0h0s0,0,0,0l0,0,0,0s0,0,0,0,0,0,0,0h0l0,0,0,0v0l0-.08h0l0,0,0-.05h0s0,0,0,0h-0.08l0,0c0-.05,0-0.08,0-0.08a0,0,0,0,0,0,0s0,0,0,0a0.05,0.05,0,0,1-.06-0.05,0.33,0.33,0,0,0,0-.09,0.36,0.36,0,0,1,0-.09,0.09,0.09,0,0,1,0-.07l0-.08,0,0a0,0,0,0,1,0,0,0.28,0.28,0,0,1,0,.11s0,0.06-.05.06h0l0,0v0s0,0,0,0h0l0,0v0.05h0v0h0v0l0,0,0-.05v0h0l-0.05,0s0,0,0,0h0l0,0H492.6l0,0h0a0,0,0,0,1,0,0l0,0h-0.08l0,0h-0.06l0-.08h0l-0.05,0c0-.05,0-0.08,0-0.08s0,0,0,.06a0.15,0.15,0,0,1-.09-0.09h0a0.47,0.47,0,0,1-.25-0.21h0a0.28,0.28,0,0,1-.13-0.13h0l0-.05h0a1.59,1.59,0,0,1-.09-1.66,0.72,0.72,0,0,1,.65-0.37,0.7,0.7,0,0,1,.35.1,0.71,0.71,0,0,0,.23.1h0a0.31,0.31,0,0,0,.05-0.13,0.08,0.08,0,0,1,.09-0.08q0.24,0,.24.08c0,0.2,0,.47,0,0.82s0,0.65,0,.82l0,0.09h0a0.07,0.07,0,0,0,0,.06h0l-0.05,0h0l-0.1,0s0,0,0,0,0,0,0,0,0,0,0,0v0h0a3.5,3.5,0,0,1-.05-0.38,0.48,0.48,0,0,0,0-.09,0.29,0.29,0,0,1,0-.1l-0.12-.23a0.29,0.29,0,0,0-.15-0.17,0.3,0.3,0,0,0-.24-0.11,0.41,0.41,0,0,0-.29.12,0.4,0.4,0,0,0-.12.3,0.49,0.49,0,0,0,.07.23l0.12,0.21,0.07,0.09a0.27,0.27,0,0,0,.08.08,0.38,0.38,0,0,0,.15.16v0h0l0,0,0,0s0,0,0,0l0,0.05,0,0,0,0v0l0,0.05h0v-0.05a0.26,0.26,0,0,0,.12.12v0h0l0,0.05h0a0.2,0.2,0,0,1,.09.13h0l0,0s0,0,0,0l0,0h0l0,0.08,0,0h0l0,0v0l0,0v0l0,0.05,0,0.07h0l0,0s0,0,0,0,0,0.09,0,.09v0h0v0h0c0,0.08,0,.11,0,0.1l0.05,0.07,0,0s0,0.06,0,.06a0,0,0,0,0,0,0s0,0,0,0v0a0.51,0.51,0,0,1,0,.23m-1.86-.66,0,0h0Zm0,1.23v0h0Zm0-3.15,0,0h0v0Zm0,2.19,0,0v0h0Zm0,1,0,0h0Zm0-1.05,0,0Zm0.08,0.85h0v0l0,0m0,0.09v0s0,0,0,0h0Zm0-1h0Zm0,1.35h0Zm0-3.79h0Zm0,2.42h0v0Zm0-2.39h0Zm0,2.22h0v0h0Zm0,1.49h0Zm0-.31v0h0Zm0-1.12v0Zm0,1.35h0Zm0-1.31h0v0Zm0,0.31v0h0s0,0,0,0h0Zm0-2.29,0,0h0a0,0,0,0,0,0,0h0Zm0,0.61h0Zm0.11,0h0Zm0,2.41,0,0Zm0-2h0Zm0.06,0.13-0.05,0v0l0.06,0m0,1.37v0h0Zm0-1.34h0v0Zm0-.09v0l0,0h0Zm0.13,2.28h0v0h0Zm0.23-2.25,0,0v0h0l0,0,0,0v0h0a0,0,0,0,1,0-.05v-0.11h0v0.06a0.22,0.22,0,0,0,0,0,0.12,0.12,0,0,0,.15.12,0.09,0.09,0,0,0,.07-0.09m-0.16-.06h0Zm0,2.32h0Zm0,0.08v0l0,0h0Zm0-.07v0h0v0Zm0.05-2.33h0Zm0,2.34v0h0Zm0-2h0Zm0.08-.33h0v0h0l0,0a0.09,0.09,0,0,1,0,.06v0Zm0,0h0Zm0,2.37v0h0v0Zm0-2.26h0Zm0-.21h0v0Zm0,0.56h0v0Zm0.1-.19h0m0,0.28h0l0,0h0Zm0.05,0h0s0,0,0,0h0v0Zm0-.17h0Zm0,1.86h0Zm0-1.82h0Zm0,0.08h0Zm0,0v0h0Zm0.05-.24h0Zm0,0h0m0,0v0h0s0,0,0,0h0Zm0,0.45h0Zm0,1.65a0,0,0,0,0,0,0h0Zm0-1.58h0v0s0,0,0,0h0m0-.31h0v0h0v0Zm0,0.13h0v0Zm0-.06h0Zm0,0.19h0l0,0v0h0.05Zm0-.07v0h0v0h0v0h0l0,0m0,0.16h0v0h0Zm0.07,1.1h0s0,0,0,0,0,0,0,0h0v0.05h0s0,0,0,0h0Zm0-1.42h0s0,0,0,0h0Zm0.06,0.17h0v0h0v0m0,0.1v0h0Zm0,0.08v0h0l0,0,0,0h0m0-.37v0h0v0Zm0-2.07h0v0h0Zm0,2.1h0Zm0-.08v0h0v0Zm0,0.5h0Zm0,0.71s0,0,0,0h0v0h0Zm0-.67h0Zm0,0.38,0,0h0s0,0,0,0h0Zm0-.63h0Zm0,0.31h0Zm0-.27h0v0h0Zm0,0,0,0v0h0Zm0,0.29h0v0h0v0Zm0,0.35h0m0-.52h0Zm0,0.12h0m0,0.29h0l0,0h0v0m0-.61h0Zm0,0.17h0v0h0Zm0,0h0Zm0,0.59h0Zm0,0h0Zm0-.37h0v0h0l0,0h0Zm0,0.1h0v0h0Zm0-.29v0h0Zm0,0.08h0Zm0.11,0.23h0l0,0h0l0,0v0h0v0h0l0,0h0.05m-0.08-.09v0h0v0h0a0,0,0,0,1,0,0m0-1.34h0Zm0,1.47h0Zm0-.61v0h0Zm0.05,0.41v0h-0.06l0.06,0m0-.12h0v0l0,0v-0.06Zm0-1.13h0Zm0,1h0v0h0Zm0,0h0a0,0,0,0,0,0,0v0h0Zm0,0.19h0Zm0,0.06h0v0h0a0,0,0,0,0,0,0m0-.37h0Zm0-.14h0m0-.76h0l0,0h0l0,0m0,1.42h0m0-1.63,0,0,0,0h0Zm0,1.3,0,0v0h0m0-1.34a0,0,0,0,0,0,0h0v0h0Zm0,1.24h0Zm0-1h0v0h0Zm0,0h0Zm0,1,0,0h0l0,0h0Zm0,1h0m0-.49h0v0Zm0-.12h0a0,0,0,0,0,0,0h0Zm0-.2h0Zm0,0.2h0l0,0h0Zm0,0.11h0Zm0-.21h0" transform="translate(-134.54 -270.39)"/><path class="cls-2" d="M494.18,297.82h0m0,0v0h0Zm2.49,0s0,0.18,0,.4,0,0.3,0,.4l0,0,0,0-0.09.1a0.11,0.11,0,0,0,.06.09v0h0l0,0,0,0v0.06h0v0.18l0,0,0,0.07,0,0.06h0l0,0v0a0.17,0.17,0,0,1-.13,0h-0.16a0.27,0.27,0,0,1,0-.19,0.93,0.93,0,0,1,0-.21,0.64,0.64,0,0,0-.43-0.75h0a1.75,1.75,0,0,1-.51,0,0.44,0.44,0,0,0-.22.33s0,0.08,0,.16,0,0.35,0,.41,0,0.06,0,.11,0,0.1,0,.12a0.2,0.2,0,0,1-.1-0.09h0v0h0a0.15,0.15,0,0,1-.06-0.14h0a0.07,0.07,0,0,0-.05,0,0.05,0.05,0,0,1,0,0,0.19,0.19,0,0,1-.09.06h0v0h0l-0.06.06s0,0,0,0,0,0,0,0,0-.3,0-0.4,0-.19,0-0.23c0-.25-0.09-0.37-0.28-0.37a0.64,0.64,0,0,1-.24,0,0.5,0.5,0,0,1,0-.27,0,0,0,0,1,0-.05h0a0.19,0.19,0,0,0,0-.11l0,0,0,0a0.21,0.21,0,0,0,0-.18l0-.06a0,0,0,0,1,0,0,0,0,0,0,0,0,0l0.05-.05h2.14a0.14,0.14,0,0,1,.16.07,1,1,0,0,1,0,.2m-2.48,0h0Zm2.51,2.49q0,0.5,0,1.74c0,0.05-.09.07-0.26,0.07h-0.68l-0.07-.07a2.21,2.21,0,0,1-.91.09,1.22,1.22,0,0,1-.56-0.06v-0.76a0.05,0.05,0,0,1,.05-0.05h0.19c0.16,0,.24-0.12.24-0.36,0,0,0-.08,0-0.14s0-.6,0-0.62V300l0.08,0.09h0.06a0.41,0.41,0,0,1,.13-0.1v0.1l0,0v0h0l0,0h0l0,0s0,0,0,0l0,0a0.14,0.14,0,0,1,.1-0.09l0-.06,0.05,0s0,0,0,0a0.49,0.49,0,0,1,.06-0.12v0c0,0.05,0,.15,0,0.29v0.79a1.53,1.53,0,0,1,0,.29h0l0,0.06h0a0.23,0.23,0,0,0,.23.18h0.34a0.82,0.82,0,0,0,.39-0.09,0.34,0.34,0,0,0,.19-0.31c0-.07,0-0.17,0-0.31a2.93,2.93,0,0,0,0-.32,0.63,0.63,0,0,1,0-.13h0.08v0h0.06l0,0,0.06,0v0.06l0-.06a0.26,0.26,0,0,1,0,.12m-2-.79a0.19,0.19,0,0,0,0-.09,0.1,0.1,0,0,1,0,.06v0m0.07,0.59h0l0,0,0,0h0v0h0Zm0-.08h0v0h0Zm0-.64h0v0Zm0.2,0.68,0,0h0v0m0.18-1.07h0Zm0.8,1.38h0v0.06a0,0,0,0,1,0,0l-0.16,0h-0.07s0-.09,0-0.16v0a1.52,1.52,0,0,1-.05-0.14,0.21,0.21,0,0,0-.23-0.16,0.28,0.28,0,0,0-.13,0l0,0a0.38,0.38,0,0,0-.09,0,0.15,0.15,0,0,0,0-.11h0s0.16,0,.2,0h0v0h0l0,0h0v0h0s0,0,.05,0h0l0.05,0v0h0s0,0.13,0,.17v0h0a0,0,0,0,0,0,0v0l0,0v0.05l0,0v0l0,0a0,0,0,0,1,0,0l0.07,0v0a0,0,0,0,0,0,0v0h0a0,0,0,0,0,0,0l0,0,0,0,0,0h0s0.06,0,.05,0h0v0a0.33,0.33,0,0,1,.15-0.06v0.16Zm-0.8-.6h0Zm0.22-1.82h0l0,0m0.06-.21,0-.06h-0.05a0.11,0.11,0,0,0,.08.07h0Zm0,0.16h0l0,0h0Zm0-.07a0,0,0,0,0,0,0h0v0l0,0v0h0Zm0,0h0v0h0v0Zm0,0.2h0Zm0,0.07,0,0h0l0,0h0Zm0-.27h0Zm0,0.32h0v0Zm0.2,1.78h0Zm0.06-.36h0a0.09,0.09,0,0,1,0,.06h0a0.1,0.1,0,0,1,0-.06m0.28,0.13h0v0.08a0,0,0,0,1,0,0v0a0,0,0,0,0,0,0v0a0.1,0.1,0,0,1-.06-0.06,0.08,0.08,0,0,0-.06-0.05l-0.05,0,0,0q0-.29,0-0.24a0.15,0.15,0,0,1,.15-0.19,0.14,0.14,0,0,1,.1,0l0,0a0.13,0.13,0,0,1,.05.14s0,0.09,0,.16,0,0.11,0,.14m-0.12.49,0,0a0,0,0,0,1,0,0h0Zm0.64,0.29h0Zm0-.36h0m0,0h0Zm0,0.73h0Zm0.09-.65h0v0Z" transform="translate(-134.54 -270.39)"/><path class="cls-2" d="M486.3,274.79a1,1,0,0,1-.81.64,1,1,0,0,0,.07-0.62l-0.22-.36,0.07,0a7.09,7.09,0,0,0,.86-0.13c0.19,0.1,0,.34,0,0.51" transform="translate(-134.54 -270.39)"/><path class="cls-2" d="M465.89,277.31a1.08,1.08,0,0,0,1.26-.92,0.87,0.87,0,0,0-1-.89l-0.54.07v1.73h0.26Zm0.43,2.87a1.11,1.11,0,0,0,1.33-1.13,1.23,1.23,0,0,0-1.45-1.18l-0.57,0v2.2Zm-1.5-4a1.31,1.31,0,0,0-.36-1.22v0h1.88c1.08,0,1.7.49,1.7,1.3a1.24,1.24,0,0,1-.82,1.15,1.58,1.58,0,0,1,1.31,1.58,1.79,1.79,0,0,1-1,1.55,3.75,3.75,0,0,1-1.8.28h-1.32a1.31,1.31,0,0,0,.36-1.24V276.2Z" transform="translate(-134.54 -270.39)"/><path class="cls-2" d="M470.92,275.72l-0.8,2.23h1.59Zm-1,2.9-0.4,1.26c-0.18.49-.23,0.75,0.15,0.92v0h-1.48v0a2.09,2.09,0,0,0,.78-1.28l1.33-3.7c0.12-.32.27-0.69-0.12-0.83v0h1.27l1.66,4.55a2.16,2.16,0,0,0,.79,1.28v0h-1.65v0c0.39-.21.32-0.31,0.11-0.92l-0.43-1.26h-2Z" transform="translate(-134.54 -270.39)"/><path class="cls-2" d="M476.28,280.18a1.91,1.91,0,0,0,1.41-.55h0l-0.42,1.18H474v0a1.24,1.24,0,0,0,.37-1.22V276.2A1.26,1.26,0,0,0,474,275v0h1.54v0a1.3,1.3,0,0,0-.36,1.22v3.89Z" transform="translate(-134.54 -270.39)"/><path class="cls-2" d="M480,280.18a1.93,1.93,0,0,0,1.41-.55h0l-0.41,1.18h-3.28v0a1.28,1.28,0,0,0,.35-1.22V276.2a1.3,1.3,0,0,0-.35-1.22v0h1.52v0a1.28,1.28,0,0,0-.35,1.22v3.89Z" transform="translate(-134.54 -270.39)"/><path class="cls-2" d="M483.28,279.66a1.15,1.15,0,0,0,.42,1.14v0h-1.57v0a1.31,1.31,0,0,0,.35-1.22v-1.31l-1.33-2.39a2.1,2.1,0,0,0-.76-0.91h0.73a0.63,0.63,0,0,1,.6.25l1.29,2.33,1-1.66a0.57,0.57,0,0,0-.14-0.89v0h1.4l-2,3.3v1.4Z" transform="translate(-134.54 -270.39)"/><path class="cls-2" d="M489.11,276a1.72,1.72,0,0,0-1.26-.56,0.89,0.89,0,0,0-1,.82c0,1.2,2.75,1.19,2.75,2.84a2,2,0,0,1-2.13,1.84,3.91,3.91,0,0,1-1.44-.26l-0.23-1.12a2.59,2.59,0,0,0,1.76.75,1.09,1.09,0,0,0,1.14-.93c0-1.39-2.76-1.14-2.76-3,0-1.13,1-1.56,2-1.56a3.89,3.89,0,0,1,1.2.19v1Z" transform="translate(-134.54 -270.39)"/><path class="cls-2" d="M490.57,280.32a0.46,0.46,0,1,1,.46.46,0.46,0.46,0,0,1-.46-0.46m0.86,0a0.39,0.39,0,1,0-.39.39,0.39,0.39,0,0,0,.39-0.39m-0.17.25h-0.09l-0.15-.23h-0.09v0.23h-0.07v-0.51h0.22a0.14,0.14,0,0,1,.18.13,0.14,0.14,0,0,1-.16.14Zm-0.24-.3c0.06,0,.17,0,0.17-0.07s-0.07-.06-0.12-0.06h-0.14v0.13H491Z" transform="translate(-134.54 -270.39)"/><path class="cls-2" d="M430.57,298.16H428.9a1.07,1.07,0,0,0-1.17.81l-1.13,3.18h1.26l0.49-1.29h1.18l-0.42,1.24h1.37l0.95-2.73a0.87,0.87,0,0,0-.86-1.21m-0.51,1.2-0.21.59h-1.18l0.2-.56a0.48,0.48,0,0,1,.25-0.3,1.46,1.46,0,0,1,.75,0,0.24,0.24,0,0,1,.2.31" transform="translate(-134.54 -270.39)"/><polygon class="cls-2" points="290.52 27.76 290.03 29.26 291.33 29.26 291.83 27.76 293.17 27.76 291.74 31.76 290.41 31.76 290.99 30.18 289.7 30.18 289.15 31.75 287.89 31.75 289.25 27.76 290.52 27.76"/><path class="cls-2" d="M434.66,298.16h-2.42l-1.37,4h1.27l0.53-1.63h0.92a0.22,0.22,0,0,1,.24.26c0,0.21-.2.71-0.2,0.95a0.5,0.5,0,0,0,.18.41h1.4a0.85,0.85,0,0,1-.4-0.52,5.51,5.51,0,0,0,.24-0.9,0.56,0.56,0,0,0-.3-0.53c1.14-.27,1.28-2-0.09-2m-0.78,1.48H433l0.18-.55H434c0.52,0,.34.55-0.17,0.55" transform="translate(-134.54 -270.39)"/><path class="cls-2" d="M440.44,298.1l-2.33,3.62a0.89,0.89,0,0,1-.7.44,3.93,3.93,0,0,1-1.17,0,0.43,0.43,0,0,1-.4-0.47V298.1h1.26v3l1.95-3h1.4Z" transform="translate(-134.54 -270.39)"/><path class="cls-2" d="M445.88,298.14l-0.43,1.25c-0.23.64,1,.67,1.26,0l0.45-1.26h1.25l-1.16,3.31a1.13,1.13,0,0,1-1.26.66h-2.81l0.36-.94h2.14a0.56,0.56,0,0,0,.55-0.41,8.82,8.82,0,0,1-1.38,0,0.87,0.87,0,0,1-.72-1.26l0.48-1.37h1.29Z" transform="translate(-134.54 -270.39)"/><path class="cls-2" d="M447.32,302.07h3a1.32,1.32,0,0,0,1.34-1.22,1.06,1.06,0,0,0-1.19-1.24c-0.74,0-.94,0-0.94-0.21s0.08-.35.61-0.35h2.1l0.34-1h-2.85a1.47,1.47,0,0,0-1.44,1.48,1,1,0,0,0,1.26,1c0.58,0,.76,0,0.76.25s-0.16.26-.76,0.26h-1.9Z" transform="translate(-134.54 -270.39)"/><path class="cls-2" d="M444.18,298.14l-0.34,1h-1.92a0.72,0.72,0,0,0-.82.58h2.55l-0.34,1h-2.54s-0.21.51,0.3,0.51h2.13l-0.32.94h-2.68c-0.71,0-.93-0.7-0.7-1.45l0.59-1.67a1.33,1.33,0,0,1,1.35-.85h2.76Z" transform="translate(-134.54 -270.39)"/><path class="cls-2" d="M453.19,298.51a0.46,0.46,0,1,1,.46.46,0.46,0.46,0,0,1-.46-0.46m0.86,0a0.39,0.39,0,1,0-.39.39,0.39,0.39,0,0,0,.39-0.39m-0.17.25h-0.09l-0.15-.23h-0.09v0.23h-0.07v-0.51h0.22a0.14,0.14,0,0,1,.18.13,0.14,0.14,0,0,1-.16.14Zm-0.24-.3c0.06,0,.17,0,0.17-0.07s-0.07-.06-0.12-0.06h-0.14v0.13h0.09Z" transform="translate(-134.54 -270.39)"/></svg>