<svg xmlns="http://www.w3.org/2000/svg" width="43.812" height="32.843" viewBox="0 0 43.812 32.843">
  <defs>
    <style>
      .cls-1 {
        fill: #cc1c26;
        fill-rule: evenodd;
      }
    </style>
  </defs>
  <path id="fa-code" class="cls-1" d="M560.177,524.4a0.766,0.766,0,0,0,0-1.1l-9.408-9.409,9.408-9.409a0.766,0.766,0,0,0,0-1.1l-1.2-1.2a0.766,0.766,0,0,0-1.1,0L546.723,513.34a0.766,0.766,0,0,0,0,1.1L557.879,525.6a0.766,0.766,0,0,0,1.1,0Zm14.149-25.545a0.775,0.775,0,0,0-.527-0.957l-1.484-.407a0.761,0.761,0,0,0-.934.526l-8.929,30.908a0.775,0.775,0,0,0,.526.957l1.485,0.407a0.76,0.76,0,0,0,.933-0.526Zm15.729,15.586a0.767,0.767,0,0,0,0-1.1L578.9,502.184a0.766,0.766,0,0,0-1.1,0l-1.2,1.2a0.765,0.765,0,0,0,0,1.1l9.408,9.409L576.6,523.3a0.765,0.765,0,0,0,0,1.1l1.2,1.2a0.766,0.766,0,0,0,1.1,0Z" transform="translate(-546.5 -497.469)"/>
</svg>
