<svg xmlns="http://www.w3.org/2000/svg" width="29.969" height="34.969" viewBox="0 0 29.969 34.969">
  <defs>
    <style>
      .cls-1 {
        fill: #cc1c26;
        fill-rule: evenodd;
      }
    </style>
  </defs>
  <path id="fa-file-text-o" class="cls-1" d="M235.277,507.381l-6.092-6.093a5.237,5.237,0,0,0-3.2-1.327h-17.5a1.874,1.874,0,0,0-1.874,1.874v31.242a1.874,1.874,0,0,0,1.874,1.874H234.73a1.875,1.875,0,0,0,1.875-1.874V510.583A5.232,5.232,0,0,0,235.277,507.381Zm-8.669-4.765a2.489,2.489,0,0,1,.8.43l6.112,6.111a2.5,2.5,0,0,1,.429.8h-7.341v-7.342Zm7.5,29.836H209.112V502.46h15v8.123a1.875,1.875,0,0,0,1.875,1.874h8.123v20Zm-20-16.87v1.249a0.616,0.616,0,0,0,.625.625h13.746a0.616,0.616,0,0,0,.625-0.625v-1.249a0.616,0.616,0,0,0-.625-0.625H214.736A0.616,0.616,0,0,0,214.111,515.582Zm14.371,4.373H214.736a0.617,0.617,0,0,0-.625.625v1.25a0.617,0.617,0,0,0,.625.625h13.746a0.617,0.617,0,0,0,.625-0.625v-1.25A0.617,0.617,0,0,0,228.482,519.955Zm0,5H214.736a0.616,0.616,0,0,0-.625.625v1.25a0.616,0.616,0,0,0,.625.624h13.746a0.616,0.616,0,0,0,.625-0.624v-1.25A0.616,0.616,0,0,0,228.482,524.954Z" transform="translate(-206.625 -499.969)"/>
</svg>
